<svg width="342" height="13" viewBox="0 0 342 13" fill="none" xmlns="http://www.w3.org/2000/svg">
<path d="M12.5527 5.16761V6.10511H0.552734V5.16761H12.5527ZM16.5073 2.21023V1.27273H23.0527V2.21023H20.3084V10H19.2516V2.21023H16.5073ZM26.2573 10.1364C25.6664 10.1364 25.1479 9.99574 24.7019 9.71449C24.2587 9.43324 23.9121 9.03977 23.6621 8.53409C23.415 8.02841 23.2914 7.4375 23.2914 6.76136C23.2914 6.07955 23.415 5.48437 23.6621 4.97585C23.9121 4.46733 24.2587 4.07244 24.7019 3.79119C25.1479 3.50994 25.6664 3.36932 26.2573 3.36932C26.8482 3.36932 27.3652 3.50994 27.8084 3.79119C28.2544 4.07244 28.601 4.46733 28.8482 4.97585C29.0982 5.48437 29.2232 6.07955 29.2232 6.76136C29.2232 7.4375 29.0982 8.02841 28.8482 8.53409C28.601 9.03977 28.2544 9.43324 27.8084 9.71449C27.3652 9.99574 26.8482 10.1364 26.2573 10.1364ZM26.2573 9.23295C26.7061 9.23295 27.0755 9.1179 27.3652 8.88778C27.655 8.65767 27.8695 8.35511 28.0087 7.98011C28.1479 7.60511 28.2175 7.19886 28.2175 6.76136C28.2175 6.32386 28.1479 5.91619 28.0087 5.53835C27.8695 5.16051 27.655 4.85511 27.3652 4.62216C27.0755 4.3892 26.7061 4.27273 26.2573 4.27273C25.8084 4.27273 25.4391 4.3892 25.1493 4.62216C24.8596 4.85511 24.6451 5.16051 24.5059 5.53835C24.3667 5.91619 24.2971 6.32386 24.2971 6.76136C24.2971 7.19886 24.3667 7.60511 24.5059 7.98011C24.6451 8.35511 24.8596 8.65767 25.1493 8.88778C25.4391 9.1179 25.8084 9.23295 26.2573 9.23295ZM30.8947 10V1.27273H31.9004V4.49432H31.9856C32.0595 4.38068 32.1618 4.2358 32.2924 4.05966C32.426 3.88068 32.6163 3.72159 32.8635 3.58239C33.1135 3.44034 33.4515 3.36932 33.8777 3.36932C34.4288 3.36932 34.9146 3.5071 35.335 3.78267C35.7555 4.05824 36.0836 4.44886 36.3194 4.95455C36.5552 5.46023 36.6731 6.05682 36.6731 6.74432C36.6731 7.4375 36.5552 8.03835 36.3194 8.54688C36.0836 9.05256 35.7569 9.4446 35.3393 9.72301C34.9217 9.99858 34.4402 10.1364 33.8947 10.1364C33.4743 10.1364 33.1376 10.0668 32.8848 9.92756C32.6319 9.78551 32.4373 9.625 32.301 9.44602C32.1646 9.2642 32.0595 9.11364 31.9856 8.99432H31.8663V10H30.8947ZM31.8833 6.72727C31.8833 7.22159 31.9558 7.65767 32.1007 8.03551C32.2456 8.41051 32.4572 8.70455 32.7356 8.91761C33.014 9.12784 33.3549 9.23295 33.7583 9.23295C34.1788 9.23295 34.5297 9.12216 34.8109 8.90057C35.095 8.67614 35.3081 8.375 35.4501 7.99716C35.595 7.61648 35.6674 7.19318 35.6674 6.72727C35.6674 6.26705 35.5964 5.85227 35.4544 5.48295C35.3152 5.1108 35.1035 4.81676 34.8194 4.60085C34.5382 4.3821 34.1845 4.27273 33.7583 4.27273C33.3493 4.27273 33.0055 4.37642 32.7271 4.58381C32.4487 4.78835 32.2385 5.07528 32.0964 5.4446C31.9544 5.81108 31.8833 6.23864 31.8833 6.72727ZM40.8706 10.1364C40.2797 10.1364 39.7612 9.99574 39.3152 9.71449C38.872 9.43324 38.5254 9.03977 38.2754 8.53409C38.0282 8.02841 37.9047 7.4375 37.9047 6.76136C37.9047 6.07955 38.0282 5.48437 38.2754 4.97585C38.5254 4.46733 38.872 4.07244 39.3152 3.79119C39.7612 3.50994 40.2797 3.36932 40.8706 3.36932C41.4615 3.36932 41.9785 3.50994 42.4217 3.79119C42.8677 4.07244 43.2143 4.46733 43.4615 4.97585C43.7115 5.48437 43.8365 6.07955 43.8365 6.76136C43.8365 7.4375 43.7115 8.02841 43.4615 8.53409C43.2143 9.03977 42.8677 9.43324 42.4217 9.71449C41.9785 9.99574 41.4615 10.1364 40.8706 10.1364ZM40.8706 9.23295C41.3194 9.23295 41.6887 9.1179 41.9785 8.88778C42.2683 8.65767 42.4828 8.35511 42.622 7.98011C42.7612 7.60511 42.8308 7.19886 42.8308 6.76136C42.8308 6.32386 42.7612 5.91619 42.622 5.53835C42.4828 5.16051 42.2683 4.85511 41.9785 4.62216C41.6887 4.3892 41.3194 4.27273 40.8706 4.27273C40.4217 4.27273 40.0524 4.3892 39.7626 4.62216C39.4728 4.85511 39.2583 5.16051 39.1191 5.53835C38.9799 5.91619 38.9103 6.32386 38.9103 6.76136C38.9103 7.19886 38.9799 7.60511 39.1191 7.98011C39.2583 8.35511 39.4728 8.65767 39.7626 8.88778C40.0524 9.1179 40.4217 9.23295 40.8706 9.23295ZM45.508 10V1.27273H48.4569C49.1415 1.27273 49.7012 1.39631 50.1358 1.64347C50.5733 1.88778 50.8972 2.21875 51.1074 2.63636C51.3176 3.05398 51.4228 3.51989 51.4228 4.03409C51.4228 4.5483 51.3176 5.01562 51.1074 5.43608C50.9 5.85653 50.579 6.19176 50.1444 6.44176C49.7097 6.68892 49.1529 6.8125 48.4739 6.8125H46.3603V5.875H48.4398C48.9086 5.875 49.285 5.79403 49.5691 5.6321C49.8532 5.47017 50.0591 5.25142 50.187 4.97585C50.3176 4.69744 50.383 4.38352 50.383 4.03409C50.383 3.68466 50.3176 3.37216 50.187 3.09659C50.0591 2.82102 49.8517 2.60511 49.5648 2.44886C49.2779 2.28977 48.8972 2.21023 48.4228 2.21023H46.5648V10H45.508ZM54.915 10.1534C54.5002 10.1534 54.1238 10.0753 53.7857 9.91903C53.4476 9.75994 53.1792 9.53125 52.9803 9.23295C52.7814 8.93182 52.682 8.56818 52.682 8.14205C52.682 7.76705 52.7559 7.46307 52.9036 7.23011C53.0513 6.99432 53.2488 6.80966 53.4959 6.67614C53.7431 6.54261 54.0158 6.44318 54.3141 6.37784C54.6152 6.30966 54.9178 6.25568 55.2218 6.21591C55.6195 6.16477 55.9419 6.12642 56.1891 6.10085C56.4391 6.07244 56.6209 6.02557 56.7346 5.96023C56.851 5.89489 56.9093 5.78125 56.9093 5.61932V5.58523C56.9093 5.16477 56.7942 4.83807 56.5641 4.60511C56.3368 4.37216 55.9917 4.25568 55.5286 4.25568C55.0485 4.25568 54.6721 4.3608 54.3993 4.57102C54.1266 4.78125 53.9348 5.00568 53.824 5.24432L52.8695 4.90341C53.04 4.50568 53.2672 4.19602 53.5513 3.97443C53.8382 3.75 54.1507 3.59375 54.4888 3.50568C54.8297 3.41477 55.165 3.36932 55.4945 3.36932C55.7047 3.36932 55.9462 3.39489 56.2189 3.44602C56.4945 3.49432 56.7601 3.59517 57.0158 3.74858C57.2743 3.90199 57.4888 4.13352 57.6593 4.44318C57.8297 4.75284 57.915 5.16761 57.915 5.6875V10H56.9093V9.11364H56.8581C56.79 9.25568 56.6763 9.40767 56.5172 9.5696C56.3581 9.73153 56.1465 9.86932 55.8823 9.98295C55.6181 10.0966 55.2956 10.1534 54.915 10.1534ZM55.0684 9.25C55.4661 9.25 55.8013 9.17188 56.074 9.01562C56.3496 8.85938 56.557 8.65767 56.6962 8.41051C56.8382 8.16335 56.9093 7.90341 56.9093 7.63068V6.71023C56.8667 6.76136 56.7729 6.80824 56.628 6.85085C56.486 6.89062 56.3212 6.92614 56.1337 6.95739C55.949 6.9858 55.7686 7.01136 55.5925 7.03409C55.4192 7.05398 55.2786 7.07102 55.1706 7.08523C54.9093 7.11932 54.665 7.17472 54.4377 7.25142C54.2132 7.32528 54.0314 7.4375 53.8922 7.58807C53.7559 7.7358 53.6877 7.9375 53.6877 8.19318C53.6877 8.54261 53.8169 8.80682 54.0755 8.9858C54.3368 9.16193 54.6678 9.25 55.0684 9.25ZM60.1639 12.4545C59.9934 12.4545 59.8414 12.4403 59.7079 12.4119C59.5744 12.3864 59.4821 12.3608 59.4309 12.3352L59.6866 11.4489C59.9309 11.5114 60.1468 11.5341 60.3343 11.517C60.5218 11.5 60.688 11.4162 60.8329 11.2656C60.9806 11.1179 61.1156 10.8778 61.2377 10.5455L61.4252 10.0341L59.0048 3.45455H60.0957L61.9025 8.67045H61.9707L63.7775 3.45455H64.8684L62.09 10.9545C61.965 11.2926 61.8102 11.5724 61.6255 11.794C61.4409 12.0185 61.2264 12.1847 60.9821 12.2926C60.7406 12.4006 60.4679 12.4545 60.1639 12.4545ZM70.0652 10H68.9572L72.1618 1.27273H73.2527L76.4572 10H75.3493L72.7413 2.65341H72.6731L70.0652 10ZM70.4743 6.59091H74.9402V7.52841H70.4743V6.59091ZM77.6802 12.4545V3.45455H78.6518V4.49432H78.7711C78.845 4.38068 78.9473 4.2358 79.0779 4.05966C79.2115 3.88068 79.4018 3.72159 79.649 3.58239C79.899 3.44034 80.237 3.36932 80.6632 3.36932C81.2143 3.36932 81.7001 3.5071 82.1206 3.78267C82.541 4.05824 82.8691 4.44886 83.1049 4.95455C83.3407 5.46023 83.4586 6.05682 83.4586 6.74432C83.4586 7.4375 83.3407 8.03835 83.1049 8.54688C82.8691 9.05256 82.5424 9.4446 82.1248 9.72301C81.7072 9.99858 81.2257 10.1364 80.6802 10.1364C80.2598 10.1364 79.9231 10.0668 79.6703 9.92756C79.4174 9.78551 79.2228 9.625 79.0865 9.44602C78.9501 9.2642 78.845 9.11364 78.7711 8.99432H78.6859V12.4545H77.6802ZM78.6689 6.72727C78.6689 7.22159 78.7413 7.65767 78.8862 8.03551C79.0311 8.41051 79.2427 8.70455 79.5211 8.91761C79.7995 9.12784 80.1404 9.23295 80.5439 9.23295C80.9643 9.23295 81.3152 9.12216 81.5964 8.90057C81.8805 8.67614 82.0936 8.375 82.2356 7.99716C82.3805 7.61648 82.4529 7.19318 82.4529 6.72727C82.4529 6.26705 82.3819 5.85227 82.2399 5.48295C82.1007 5.1108 81.889 4.81676 81.6049 4.60085C81.3237 4.3821 80.97 4.27273 80.5439 4.27273C80.1348 4.27273 79.791 4.37642 79.5126 4.58381C79.2342 4.78835 79.024 5.07528 78.8819 5.4446C78.7399 5.81108 78.6689 6.23864 78.6689 6.72727ZM84.9927 12.4545V3.45455H85.9643V4.49432H86.0836C86.1575 4.38068 86.2598 4.2358 86.3904 4.05966C86.524 3.88068 86.7143 3.72159 86.9615 3.58239C87.2115 3.44034 87.5495 3.36932 87.9757 3.36932C88.5268 3.36932 89.0126 3.5071 89.4331 3.78267C89.8535 4.05824 90.1816 4.44886 90.4174 4.95455C90.6532 5.46023 90.7711 6.05682 90.7711 6.74432C90.7711 7.4375 90.6532 8.03835 90.4174 8.54688C90.1816 9.05256 89.8549 9.4446 89.4373 9.72301C89.0197 9.99858 88.5382 10.1364 87.9927 10.1364C87.5723 10.1364 87.2356 10.0668 86.9828 9.92756C86.7299 9.78551 86.5353 9.625 86.399 9.44602C86.2626 9.2642 86.1575 9.11364 86.0836 8.99432H85.9984V12.4545H84.9927ZM85.9814 6.72727C85.9814 7.22159 86.0538 7.65767 86.1987 8.03551C86.3436 8.41051 86.5552 8.70455 86.8336 8.91761C87.112 9.12784 87.4529 9.23295 87.8564 9.23295C88.2768 9.23295 88.6277 9.12216 88.9089 8.90057C89.193 8.67614 89.4061 8.375 89.5481 7.99716C89.693 7.61648 89.7654 7.19318 89.7654 6.72727C89.7654 6.26705 89.6944 5.85227 89.5524 5.48295C89.4132 5.1108 89.2015 4.81676 88.9174 4.60085C88.6362 4.3821 88.2825 4.27273 87.8564 4.27273C87.4473 4.27273 87.1035 4.37642 86.8251 4.58381C86.5467 4.78835 86.3365 5.07528 86.1944 5.4446C86.0524 5.81108 85.9814 6.23864 85.9814 6.72727ZM95.6802 10V3.45455H96.6859V10H95.6802ZM96.1916 2.36364C95.9956 2.36364 95.8265 2.29688 95.6845 2.16335C95.5453 2.02983 95.4757 1.86932 95.4757 1.68182C95.4757 1.49432 95.5453 1.33381 95.6845 1.20028C95.8265 1.06676 95.9956 1 96.1916 1C96.3876 1 96.5552 1.06676 96.6944 1.20028C96.8365 1.33381 96.9075 1.49432 96.9075 1.68182C96.9075 1.86932 96.8365 2.02983 96.6944 2.16335C96.5552 2.29688 96.3876 2.36364 96.1916 2.36364ZM103.164 4.92045L102.261 5.17614C102.204 5.02557 102.12 4.87926 102.009 4.73722C101.901 4.59233 101.754 4.47301 101.566 4.37926C101.379 4.28551 101.139 4.23864 100.846 4.23864C100.445 4.23864 100.112 4.33097 99.8446 4.51562C99.5804 4.69744 99.4483 4.92898 99.4483 5.21023C99.4483 5.46023 99.5392 5.65767 99.7211 5.80256C99.9029 5.94744 100.187 6.06818 100.573 6.16477L101.545 6.40341C102.13 6.54545 102.566 6.76278 102.853 7.0554C103.14 7.34517 103.284 7.71875 103.284 8.17614C103.284 8.55114 103.176 8.88636 102.96 9.18182C102.747 9.47727 102.448 9.71023 102.065 9.88068C101.681 10.0511 101.235 10.1364 100.727 10.1364C100.059 10.1364 99.5066 9.99148 99.0691 9.7017C98.6316 9.41193 98.3546 8.98864 98.2381 8.43182L99.1926 8.19318C99.2836 8.54545 99.4554 8.80966 99.7083 8.9858C99.964 9.16193 100.298 9.25 100.71 9.25C101.178 9.25 101.551 9.15057 101.826 8.9517C102.105 8.75 102.244 8.50852 102.244 8.22727C102.244 8 102.164 7.80966 102.005 7.65625C101.846 7.5 101.602 7.38352 101.272 7.30682L100.181 7.05114C99.5819 6.90909 99.1415 6.68892 98.8603 6.39062C98.5819 6.08949 98.4426 5.71307 98.4426 5.26136C98.4426 4.89205 98.5463 4.56534 98.7537 4.28125C98.964 3.99716 99.2495 3.77415 99.6103 3.61222C99.9739 3.45028 100.386 3.36932 100.846 3.36932C101.494 3.36932 102.002 3.51136 102.372 3.79545C102.744 4.07955 103.008 4.45455 103.164 4.92045ZM108.309 10V1.27273H109.314V4.49432H109.4C109.474 4.38068 109.576 4.2358 109.706 4.05966C109.84 3.88068 110.03 3.72159 110.278 3.58239C110.528 3.44034 110.866 3.36932 111.292 3.36932C111.843 3.36932 112.329 3.5071 112.749 3.78267C113.17 4.05824 113.498 4.44886 113.733 4.95455C113.969 5.46023 114.087 6.05682 114.087 6.74432C114.087 7.4375 113.969 8.03835 113.733 8.54688C113.498 9.05256 113.171 9.4446 112.753 9.72301C112.336 9.99858 111.854 10.1364 111.309 10.1364C110.888 10.1364 110.552 10.0668 110.299 9.92756C110.046 9.78551 109.851 9.625 109.715 9.44602C109.579 9.2642 109.474 9.11364 109.4 8.99432H109.28V10H108.309ZM109.297 6.72727C109.297 7.22159 109.37 7.65767 109.515 8.03551C109.66 8.41051 109.871 8.70455 110.15 8.91761C110.428 9.12784 110.769 9.23295 111.172 9.23295C111.593 9.23295 111.944 9.12216 112.225 8.90057C112.509 8.67614 112.722 8.375 112.864 7.99716C113.009 7.61648 113.081 7.19318 113.081 6.72727C113.081 6.26705 113.01 5.85227 112.868 5.48295C112.729 5.1108 112.518 4.81676 112.233 4.60085C111.952 4.3821 111.599 4.27273 111.172 4.27273C110.763 4.27273 110.42 4.37642 110.141 4.58381C109.863 4.78835 109.653 5.07528 109.51 5.4446C109.368 5.81108 109.297 6.23864 109.297 6.72727ZM118.37 10.1364C117.739 10.1364 117.195 9.99716 116.738 9.71875C116.283 9.4375 115.932 9.04545 115.685 8.54261C115.441 8.03693 115.319 7.44886 115.319 6.77841C115.319 6.10795 115.441 5.51705 115.685 5.00568C115.932 4.49148 116.276 4.09091 116.716 3.80398C117.16 3.5142 117.677 3.36932 118.268 3.36932C118.608 3.36932 118.945 3.42614 119.278 3.53977C119.61 3.65341 119.912 3.83807 120.185 4.09375C120.458 4.34659 120.675 4.68182 120.837 5.09943C120.999 5.51705 121.08 6.03125 121.08 6.64205V7.06818H116.035V6.19886H120.057C120.057 5.82955 119.983 5.5 119.836 5.21023C119.691 4.92045 119.483 4.69176 119.214 4.52415C118.947 4.35653 118.631 4.27273 118.268 4.27273C117.867 4.27273 117.52 4.37216 117.228 4.57102C116.938 4.76705 116.715 5.02273 116.559 5.33807C116.403 5.65341 116.324 5.99148 116.324 6.35227V6.93182C116.324 7.42614 116.41 7.84517 116.58 8.18892C116.753 8.52983 116.993 8.78977 117.3 8.96875C117.607 9.14489 117.964 9.23295 118.37 9.23295C118.634 9.23295 118.873 9.19602 119.086 9.12216C119.302 9.04545 119.488 8.93182 119.644 8.78125C119.8 8.62784 119.921 8.4375 120.006 8.21023L120.978 8.48295C120.876 8.8125 120.704 9.10227 120.462 9.35227C120.221 9.59943 119.922 9.79261 119.567 9.93182C119.212 10.0682 118.813 10.1364 118.37 10.1364ZM122.61 10V3.45455H123.616V10H122.61ZM123.121 2.36364C122.925 2.36364 122.756 2.29688 122.614 2.16335C122.475 2.02983 122.405 1.86932 122.405 1.68182C122.405 1.49432 122.475 1.33381 122.614 1.20028C122.756 1.06676 122.925 1 123.121 1C123.317 1 123.485 1.06676 123.624 1.20028C123.766 1.33381 123.837 1.49432 123.837 1.68182C123.837 1.86932 123.766 2.02983 123.624 2.16335C123.485 2.29688 123.317 2.36364 123.121 2.36364ZM126.463 6.0625V10H125.458V3.45455H126.429V4.47727H126.514C126.668 4.14489 126.901 3.87784 127.213 3.67614C127.526 3.47159 127.929 3.36932 128.423 3.36932C128.867 3.36932 129.254 3.46023 129.587 3.64205C129.919 3.82102 130.178 4.09375 130.362 4.46023C130.547 4.82386 130.639 5.28409 130.639 5.84091V10H129.634V5.90909C129.634 5.39489 129.5 4.99432 129.233 4.70739C128.966 4.41761 128.6 4.27273 128.134 4.27273C127.813 4.27273 127.526 4.34233 127.273 4.48153C127.023 4.62074 126.825 4.82386 126.681 5.09091C126.536 5.35795 126.463 5.68182 126.463 6.0625ZM135.119 12.5909C134.633 12.5909 134.216 12.5284 133.866 12.4034C133.517 12.2812 133.226 12.1193 132.993 11.9176C132.763 11.7188 132.579 11.5057 132.443 11.2784L133.244 10.7159C133.335 10.8352 133.45 10.9716 133.589 11.125C133.729 11.2812 133.919 11.4162 134.16 11.5298C134.405 11.6463 134.724 11.7045 135.119 11.7045C135.648 11.7045 136.084 11.5767 136.427 11.321C136.771 11.0653 136.943 10.6648 136.943 10.1193V8.78977H136.858C136.784 8.90909 136.679 9.05682 136.542 9.23295C136.409 9.40625 136.216 9.56108 135.963 9.69744C135.713 9.83097 135.375 9.89773 134.949 9.89773C134.42 9.89773 133.946 9.77273 133.525 9.52273C133.108 9.27273 132.777 8.90909 132.532 8.43182C132.291 7.95455 132.17 7.375 132.17 6.69318C132.17 6.02273 132.288 5.43892 132.524 4.94176C132.76 4.44176 133.088 4.0554 133.508 3.78267C133.929 3.5071 134.415 3.36932 134.966 3.36932C135.392 3.36932 135.73 3.44034 135.98 3.58239C136.233 3.72159 136.426 3.88068 136.559 4.05966C136.696 4.2358 136.801 4.38068 136.875 4.49432H136.977V3.45455H137.949V10.1875C137.949 10.75 137.821 11.2074 137.565 11.5597C137.312 11.9148 136.971 12.1747 136.542 12.3395C136.116 12.5071 135.642 12.5909 135.119 12.5909ZM135.085 8.99432C135.488 8.99432 135.829 8.90199 136.108 8.71733C136.386 8.53267 136.598 8.26705 136.743 7.92045C136.888 7.57386 136.96 7.15909 136.96 6.67614C136.96 6.20455 136.889 5.78835 136.747 5.42756C136.605 5.06676 136.395 4.78409 136.116 4.57955C135.838 4.375 135.494 4.27273 135.085 4.27273C134.659 4.27273 134.304 4.38068 134.02 4.59659C133.738 4.8125 133.527 5.10227 133.385 5.46591C133.246 5.82955 133.176 6.23295 133.176 6.67614C133.176 7.13068 133.247 7.53267 133.389 7.8821C133.534 8.22869 133.747 8.50142 134.028 8.70028C134.312 8.89631 134.665 8.99432 135.085 8.99432ZM143.301 10V1.27273H144.358V9.0625H148.415V10H143.301ZM151.841 10.1534C151.426 10.1534 151.05 10.0753 150.711 9.91903C150.373 9.75994 150.105 9.53125 149.906 9.23295C149.707 8.93182 149.608 8.56818 149.608 8.14205C149.608 7.76705 149.682 7.46307 149.829 7.23011C149.977 6.99432 150.175 6.80966 150.422 6.67614C150.669 6.54261 150.942 6.44318 151.24 6.37784C151.541 6.30966 151.844 6.25568 152.148 6.21591C152.545 6.16477 152.868 6.12642 153.115 6.10085C153.365 6.07244 153.547 6.02557 153.66 5.96023C153.777 5.89489 153.835 5.78125 153.835 5.61932V5.58523C153.835 5.16477 153.72 4.83807 153.49 4.60511C153.263 4.37216 152.917 4.25568 152.454 4.25568C151.974 4.25568 151.598 4.3608 151.325 4.57102C151.052 4.78125 150.861 5.00568 150.75 5.24432L149.795 4.90341C149.966 4.50568 150.193 4.19602 150.477 3.97443C150.764 3.75 151.077 3.59375 151.415 3.50568C151.756 3.41477 152.091 3.36932 152.42 3.36932C152.631 3.36932 152.872 3.39489 153.145 3.44602C153.42 3.49432 153.686 3.59517 153.942 3.74858C154.2 3.90199 154.415 4.13352 154.585 4.44318C154.756 4.75284 154.841 5.16761 154.841 5.6875V10H153.835V9.11364H153.784C153.716 9.25568 153.602 9.40767 153.443 9.5696C153.284 9.73153 153.072 9.86932 152.808 9.98295C152.544 10.0966 152.221 10.1534 151.841 10.1534ZM151.994 9.25C152.392 9.25 152.727 9.17188 153 9.01562C153.275 8.85938 153.483 8.65767 153.622 8.41051C153.764 8.16335 153.835 7.90341 153.835 7.63068V6.71023C153.792 6.76136 153.699 6.80824 153.554 6.85085C153.412 6.89062 153.247 6.92614 153.059 6.95739C152.875 6.9858 152.694 7.01136 152.518 7.03409C152.345 7.05398 152.204 7.07102 152.096 7.08523C151.835 7.11932 151.591 7.17472 151.363 7.25142C151.139 7.32528 150.957 7.4375 150.818 7.58807C150.682 7.7358 150.613 7.9375 150.613 8.19318C150.613 8.54261 150.743 8.80682 151.001 8.9858C151.263 9.16193 151.594 9.25 151.994 9.25ZM160.801 7.32386V3.45455H161.807V10H160.801V8.89205H160.733C160.58 9.22443 160.341 9.5071 160.017 9.74006C159.693 9.97017 159.284 10.0852 158.79 10.0852C158.381 10.0852 158.017 9.99574 157.699 9.81676C157.381 9.63494 157.131 9.36222 156.949 8.99858C156.767 8.6321 156.676 8.17045 156.676 7.61364V3.45455H157.682V7.54545C157.682 8.02273 157.816 8.40341 158.083 8.6875C158.352 8.97159 158.696 9.11364 159.114 9.11364C159.364 9.11364 159.618 9.04972 159.877 8.92188C160.138 8.79403 160.357 8.59801 160.533 8.33381C160.712 8.0696 160.801 7.73295 160.801 7.32386ZM164.655 6.0625V10H163.649V3.45455H164.621V4.47727H164.706C164.859 4.14489 165.092 3.87784 165.405 3.67614C165.717 3.47159 166.121 3.36932 166.615 3.36932C167.058 3.36932 167.446 3.46023 167.778 3.64205C168.111 3.82102 168.369 4.09375 168.554 4.46023C168.738 4.82386 168.831 5.28409 168.831 5.84091V10H167.825V5.90909C167.825 5.39489 167.692 4.99432 167.425 4.70739C167.157 4.41761 166.791 4.27273 166.325 4.27273C166.004 4.27273 165.717 4.34233 165.464 4.48153C165.214 4.62074 165.017 4.82386 164.872 5.09091C164.727 5.35795 164.655 5.68182 164.655 6.0625ZM173.328 10.1364C172.714 10.1364 172.186 9.99148 171.742 9.7017C171.299 9.41193 170.958 9.01278 170.72 8.50426C170.481 7.99574 170.362 7.41477 170.362 6.76136C170.362 6.09659 170.484 5.50994 170.728 5.00142C170.975 4.49006 171.319 4.09091 171.759 3.80398C172.203 3.5142 172.72 3.36932 173.311 3.36932C173.771 3.36932 174.186 3.45455 174.555 3.625C174.924 3.79545 175.227 4.03409 175.463 4.34091C175.698 4.64773 175.845 5.00568 175.901 5.41477H174.896C174.819 5.11648 174.649 4.85227 174.384 4.62216C174.123 4.3892 173.771 4.27273 173.328 4.27273C172.936 4.27273 172.592 4.375 172.296 4.57955C172.004 4.78125 171.775 5.06676 171.61 5.43608C171.448 5.80256 171.367 6.23295 171.367 6.72727C171.367 7.23295 171.447 7.6733 171.606 8.0483C171.768 8.4233 171.995 8.71449 172.288 8.92188C172.583 9.12926 172.93 9.23295 173.328 9.23295C173.589 9.23295 173.826 9.1875 174.039 9.09659C174.252 9.00568 174.433 8.875 174.58 8.70455C174.728 8.53409 174.833 8.32955 174.896 8.09091H175.901C175.845 8.47727 175.704 8.82528 175.48 9.13494C175.258 9.44176 174.964 9.68608 174.597 9.8679C174.234 10.0469 173.811 10.1364 173.328 10.1364ZM178.377 6.0625V10H177.372V1.27273H178.377V4.47727H178.463C178.616 4.1392 178.846 3.87074 179.153 3.67188C179.463 3.47017 179.874 3.36932 180.389 3.36932C180.835 3.36932 181.225 3.45881 181.561 3.63778C181.896 3.81392 182.156 4.08523 182.34 4.4517C182.528 4.81534 182.622 5.27841 182.622 5.84091V10H181.616V5.90909C181.616 5.3892 181.481 4.98722 181.211 4.70312C180.944 4.41619 180.573 4.27273 180.099 4.27273C179.769 4.27273 179.474 4.34233 179.213 4.48153C178.954 4.62074 178.749 4.82386 178.599 5.09091C178.451 5.35795 178.377 5.68182 178.377 6.0625ZM187.206 10.1364C186.575 10.1364 186.031 9.99716 185.574 9.71875C185.119 9.4375 184.768 9.04545 184.521 8.54261C184.277 8.03693 184.155 7.44886 184.155 6.77841C184.155 6.10795 184.277 5.51705 184.521 5.00568C184.768 4.49148 185.112 4.09091 185.552 3.80398C185.996 3.5142 186.513 3.36932 187.104 3.36932C187.444 3.36932 187.781 3.42614 188.113 3.53977C188.446 3.65341 188.748 3.83807 189.021 4.09375C189.294 4.34659 189.511 4.68182 189.673 5.09943C189.835 5.51705 189.916 6.03125 189.916 6.64205V7.06818H184.871V6.19886H188.893C188.893 5.82955 188.819 5.5 188.672 5.21023C188.527 4.92045 188.319 4.69176 188.05 4.52415C187.782 4.35653 187.467 4.27273 187.104 4.27273C186.703 4.27273 186.356 4.37216 186.064 4.57102C185.774 4.76705 185.551 5.02273 185.395 5.33807C185.238 5.65341 185.16 5.99148 185.16 6.35227V6.93182C185.16 7.42614 185.246 7.84517 185.416 8.18892C185.589 8.52983 185.829 8.78977 186.136 8.96875C186.443 9.14489 186.8 9.23295 187.206 9.23295C187.47 9.23295 187.709 9.19602 187.922 9.12216C188.138 9.04545 188.324 8.93182 188.48 8.78125C188.636 8.62784 188.757 8.4375 188.842 8.21023L189.814 8.48295C189.711 8.8125 189.54 9.10227 189.298 9.35227C189.057 9.59943 188.758 9.79261 188.403 9.93182C188.048 10.0682 187.649 10.1364 187.206 10.1364ZM193.917 10.1364C193.372 10.1364 192.89 9.99858 192.473 9.72301C192.055 9.4446 191.729 9.05256 191.493 8.54688C191.257 8.03835 191.139 7.4375 191.139 6.74432C191.139 6.05682 191.257 5.46023 191.493 4.95455C191.729 4.44886 192.057 4.05824 192.477 3.78267C192.898 3.5071 193.383 3.36932 193.934 3.36932C194.361 3.36932 194.697 3.44034 194.944 3.58239C195.194 3.72159 195.385 3.88068 195.515 4.05966C195.649 4.2358 195.753 4.38068 195.827 4.49432H195.912V1.27273H196.917V10H195.946V8.99432H195.827C195.753 9.11364 195.648 9.2642 195.511 9.44602C195.375 9.625 195.18 9.78551 194.927 9.92756C194.675 10.0668 194.338 10.1364 193.917 10.1364ZM194.054 9.23295C194.457 9.23295 194.798 9.12784 195.077 8.91761C195.355 8.70455 195.567 8.41051 195.711 8.03551C195.856 7.65767 195.929 7.22159 195.929 6.72727C195.929 6.23864 195.858 5.81108 195.716 5.4446C195.574 5.07528 195.363 4.78835 195.085 4.58381C194.807 4.37642 194.463 4.27273 194.054 4.27273C193.628 4.27273 193.273 4.3821 192.988 4.60085C192.707 4.81676 192.496 5.1108 192.354 5.48295C192.214 5.85227 192.145 6.26705 192.145 6.72727C192.145 7.19318 192.216 7.61648 192.358 7.99716C192.503 8.375 192.716 8.67614 192.997 8.90057C193.281 9.12216 193.633 9.23295 194.054 9.23295ZM202.41 10V1.27273H203.416V4.49432H203.501C203.575 4.38068 203.677 4.2358 203.808 4.05966C203.942 3.88068 204.132 3.72159 204.379 3.58239C204.629 3.44034 204.967 3.36932 205.393 3.36932C205.944 3.36932 206.43 3.5071 206.851 3.78267C207.271 4.05824 207.599 4.44886 207.835 4.95455C208.071 5.46023 208.189 6.05682 208.189 6.74432C208.189 7.4375 208.071 8.03835 207.835 8.54688C207.599 9.05256 207.273 9.4446 206.855 9.72301C206.437 9.99858 205.956 10.1364 205.41 10.1364C204.99 10.1364 204.653 10.0668 204.4 9.92756C204.148 9.78551 203.953 9.625 203.817 9.44602C203.68 9.2642 203.575 9.11364 203.501 8.99432H203.382V10H202.41ZM203.399 6.72727C203.399 7.22159 203.471 7.65767 203.616 8.03551C203.761 8.41051 203.973 8.70455 204.251 8.91761C204.53 9.12784 204.871 9.23295 205.274 9.23295C205.694 9.23295 206.045 9.12216 206.327 8.90057C206.611 8.67614 206.824 8.375 206.966 7.99716C207.111 7.61648 207.183 7.19318 207.183 6.72727C207.183 6.26705 207.112 5.85227 206.97 5.48295C206.831 5.1108 206.619 4.81676 206.335 4.60085C206.054 4.3821 205.7 4.27273 205.274 4.27273C204.865 4.27273 204.521 4.37642 204.243 4.58381C203.964 4.78835 203.754 5.07528 203.612 5.4446C203.47 5.81108 203.399 6.23864 203.399 6.72727ZM210.14 12.4545C209.97 12.4545 209.818 12.4403 209.684 12.4119C209.551 12.3864 209.459 12.3608 209.407 12.3352L209.663 11.4489C209.907 11.5114 210.123 11.5341 210.311 11.517C210.498 11.5 210.665 11.4162 210.809 11.2656C210.957 11.1179 211.092 10.8778 211.214 10.5455L211.402 10.0341L208.981 3.45455H210.072L211.879 8.67045H211.947L213.754 3.45455H214.845L212.067 10.9545C211.942 11.2926 211.787 11.5724 211.602 11.794C211.417 12.0185 211.203 12.1847 210.959 12.2926C210.717 12.4006 210.444 12.4545 210.14 12.4545ZM219.53 10V9.23295L222.411 6.07955C222.749 5.71023 223.028 5.3892 223.246 5.11648C223.465 4.84091 223.627 4.58239 223.732 4.34091C223.84 4.09659 223.894 3.84091 223.894 3.57386C223.894 3.26705 223.82 3.00142 223.672 2.77699C223.528 2.55256 223.329 2.37926 223.076 2.2571C222.823 2.13494 222.539 2.07386 222.224 2.07386C221.888 2.07386 221.596 2.14347 221.346 2.28267C221.099 2.41903 220.907 2.6108 220.77 2.85795C220.637 3.10511 220.57 3.39489 220.57 3.72727H219.564C219.564 3.21591 219.682 2.76705 219.918 2.38068C220.154 1.99432 220.475 1.69318 220.881 1.47727C221.29 1.26136 221.749 1.15341 222.258 1.15341C222.769 1.15341 223.222 1.26136 223.617 1.47727C224.012 1.69318 224.322 1.98437 224.546 2.35085C224.77 2.71733 224.883 3.125 224.883 3.57386C224.883 3.89489 224.824 4.20881 224.708 4.51562C224.594 4.8196 224.395 5.15909 224.111 5.53409C223.83 5.90625 223.439 6.3608 222.939 6.89773L220.979 8.99432V9.0625H225.036V10H219.53ZM229.523 10.1193C229.023 10.1193 228.573 10.0199 228.172 9.82102C227.772 9.62216 227.451 9.34943 227.209 9.00284C226.968 8.65625 226.836 8.26136 226.813 7.81818H227.836C227.876 8.21307 228.055 8.53977 228.373 8.7983C228.694 9.05398 229.077 9.18182 229.523 9.18182C229.881 9.18182 230.199 9.09801 230.478 8.9304C230.759 8.76278 230.979 8.53267 231.138 8.24006C231.3 7.9446 231.381 7.6108 231.381 7.23864C231.381 6.85795 231.297 6.51847 231.13 6.22017C230.965 5.91903 230.738 5.68182 230.448 5.50852C230.158 5.33523 229.827 5.24716 229.455 5.24432C229.188 5.24148 228.914 5.28267 228.633 5.3679C228.351 5.45028 228.12 5.55682 227.938 5.6875L226.949 5.56818L227.478 1.27273H232.012V2.21023H228.364L228.057 4.78409H228.108C228.287 4.64205 228.512 4.52415 228.782 4.4304C229.052 4.33665 229.333 4.28977 229.626 4.28977C230.16 4.28977 230.635 4.41761 231.053 4.6733C231.474 4.92614 231.803 5.27273 232.042 5.71307C232.283 6.15341 232.404 6.65625 232.404 7.22159C232.404 7.77841 232.279 8.27557 232.029 8.71307C231.782 9.14773 231.441 9.49148 231.006 9.74432C230.572 9.99432 230.077 10.1193 229.523 10.1193ZM237.199 0.863636L234.387 11.3125H233.466L236.279 0.863636H237.199ZM238.374 10V9.23295L241.255 6.07955C241.593 5.71023 241.871 5.3892 242.09 5.11648C242.309 4.84091 242.471 4.58239 242.576 4.34091C242.684 4.09659 242.738 3.84091 242.738 3.57386C242.738 3.26705 242.664 3.00142 242.516 2.77699C242.371 2.55256 242.172 2.37926 241.92 2.2571C241.667 2.13494 241.383 2.07386 241.067 2.07386C240.732 2.07386 240.439 2.14347 240.189 2.28267C239.942 2.41903 239.751 2.6108 239.614 2.85795C239.481 3.10511 239.414 3.39489 239.414 3.72727H238.408C238.408 3.21591 238.526 2.76705 238.762 2.38068C238.998 1.99432 239.319 1.69318 239.725 1.47727C240.134 1.26136 240.593 1.15341 241.101 1.15341C241.613 1.15341 242.066 1.26136 242.461 1.47727C242.856 1.69318 243.165 1.98437 243.39 2.35085C243.614 2.71733 243.726 3.125 243.726 3.57386C243.726 3.89489 243.668 4.20881 243.552 4.51562C243.438 4.8196 243.239 5.15909 242.955 5.53409C242.674 5.90625 242.283 6.3608 241.783 6.89773L239.823 8.99432V9.0625H243.88V10H238.374ZM248.589 10.1193C248.026 10.1193 247.525 10.0227 247.084 9.82955C246.647 9.63636 246.299 9.3679 246.04 9.02415C245.785 8.67756 245.645 8.27557 245.623 7.81818H246.697C246.719 8.09943 246.816 8.34233 246.986 8.54688C247.157 8.74858 247.38 8.90483 247.655 9.01562C247.931 9.12642 248.236 9.18182 248.572 9.18182C248.947 9.18182 249.279 9.11648 249.569 8.9858C249.858 8.85511 250.086 8.6733 250.251 8.44034C250.415 8.20739 250.498 7.9375 250.498 7.63068C250.498 7.30966 250.418 7.02699 250.259 6.78267C250.1 6.53551 249.867 6.34233 249.56 6.20312C249.253 6.06392 248.878 5.99432 248.435 5.99432H247.736V5.05682H248.435C248.782 5.05682 249.086 4.99432 249.347 4.86932C249.611 4.74432 249.817 4.56818 249.965 4.34091C250.116 4.11364 250.191 3.84659 250.191 3.53977C250.191 3.24432 250.126 2.98722 249.995 2.76847C249.864 2.54972 249.68 2.37926 249.441 2.2571C249.205 2.13494 248.927 2.07386 248.606 2.07386C248.305 2.07386 248.02 2.12926 247.753 2.24006C247.489 2.34801 247.273 2.50568 247.106 2.71307C246.938 2.91761 246.847 3.16477 246.833 3.45455H245.81C245.827 2.99716 245.965 2.59659 246.224 2.25284C246.482 1.90625 246.82 1.63636 247.238 1.44318C247.658 1.25 248.12 1.15341 248.623 1.15341C249.162 1.15341 249.626 1.26278 250.012 1.48153C250.398 1.69744 250.695 1.98295 250.903 2.33807C251.11 2.69318 251.214 3.0767 251.214 3.48864C251.214 3.98011 251.084 4.39915 250.826 4.74574C250.57 5.09233 250.222 5.33239 249.782 5.46591V5.53409C250.333 5.625 250.763 5.85937 251.073 6.23722C251.383 6.61222 251.537 7.0767 251.537 7.63068C251.537 8.10511 251.408 8.53125 251.15 8.90909C250.894 9.28409 250.545 9.57955 250.101 9.79545C249.658 10.0114 249.154 10.1193 248.589 10.1193ZM253.761 10.0682C253.551 10.0682 253.37 9.9929 253.22 9.84233C253.069 9.69176 252.994 9.51136 252.994 9.30114C252.994 9.09091 253.069 8.91051 253.22 8.75994C253.37 8.60937 253.551 8.53409 253.761 8.53409C253.971 8.53409 254.151 8.60937 254.302 8.75994C254.453 8.91051 254.528 9.09091 254.528 9.30114C254.528 9.44034 254.492 9.56818 254.421 9.68466C254.353 9.80114 254.261 9.89489 254.144 9.96591C254.031 10.0341 253.903 10.0682 253.761 10.0682ZM259.844 10V1.27273H260.901V9.0625H264.958V10H259.844ZM269.202 10.1364C268.571 10.1364 268.027 9.99716 267.57 9.71875C267.115 9.4375 266.764 9.04545 266.517 8.54261C266.273 8.03693 266.151 7.44886 266.151 6.77841C266.151 6.10795 266.273 5.51705 266.517 5.00568C266.764 4.49148 267.108 4.09091 267.548 3.80398C267.992 3.5142 268.509 3.36932 269.1 3.36932C269.441 3.36932 269.777 3.42614 270.11 3.53977C270.442 3.65341 270.744 3.83807 271.017 4.09375C271.29 4.34659 271.507 4.68182 271.669 5.09943C271.831 5.51705 271.912 6.03125 271.912 6.64205V7.06818H266.867V6.19886H270.889C270.889 5.82955 270.816 5.5 270.668 5.21023C270.523 4.92045 270.316 4.69176 270.046 4.52415C269.779 4.35653 269.463 4.27273 269.1 4.27273C268.699 4.27273 268.352 4.37216 268.06 4.57102C267.77 4.76705 267.547 5.02273 267.391 5.33807C267.235 5.65341 267.156 5.99148 267.156 6.35227V6.93182C267.156 7.42614 267.242 7.84517 267.412 8.18892C267.585 8.52983 267.825 8.78977 268.132 8.96875C268.439 9.14489 268.796 9.23295 269.202 9.23295C269.466 9.23295 269.705 9.19602 269.918 9.12216C270.134 9.04545 270.32 8.93182 270.476 8.78125C270.632 8.62784 270.753 8.4375 270.838 8.21023L271.81 8.48295C271.708 8.8125 271.536 9.10227 271.294 9.35227C271.053 9.59943 270.754 9.79261 270.399 9.93182C270.044 10.0682 269.645 10.1364 269.202 10.1364ZM275.368 10.1534C274.953 10.1534 274.577 10.0753 274.239 9.91903C273.901 9.75994 273.632 9.53125 273.433 9.23295C273.235 8.93182 273.135 8.56818 273.135 8.14205C273.135 7.76705 273.209 7.46307 273.357 7.23011C273.504 6.99432 273.702 6.80966 273.949 6.67614C274.196 6.54261 274.469 6.44318 274.767 6.37784C275.068 6.30966 275.371 6.25568 275.675 6.21591C276.073 6.16477 276.395 6.12642 276.642 6.10085C276.892 6.07244 277.074 6.02557 277.188 5.96023C277.304 5.89489 277.362 5.78125 277.362 5.61932V5.58523C277.362 5.16477 277.247 4.83807 277.017 4.60511C276.79 4.37216 276.445 4.25568 275.982 4.25568C275.502 4.25568 275.125 4.3608 274.852 4.57102C274.58 4.78125 274.388 5.00568 274.277 5.24432L273.323 4.90341C273.493 4.50568 273.72 4.19602 274.004 3.97443C274.291 3.75 274.604 3.59375 274.942 3.50568C275.283 3.41477 275.618 3.36932 275.948 3.36932C276.158 3.36932 276.399 3.39489 276.672 3.44602C276.948 3.49432 277.213 3.59517 277.469 3.74858C277.727 3.90199 277.942 4.13352 278.112 4.44318C278.283 4.75284 278.368 5.16761 278.368 5.6875V10H277.362V9.11364H277.311C277.243 9.25568 277.129 9.40767 276.97 9.5696C276.811 9.73153 276.6 9.86932 276.335 9.98295C276.071 10.0966 275.749 10.1534 275.368 10.1534ZM275.521 9.25C275.919 9.25 276.254 9.17188 276.527 9.01562C276.803 8.85938 277.01 8.65767 277.149 8.41051C277.291 8.16335 277.362 7.90341 277.362 7.63068V6.71023C277.32 6.76136 277.226 6.80824 277.081 6.85085C276.939 6.89062 276.774 6.92614 276.587 6.95739C276.402 6.9858 276.222 7.01136 276.046 7.03409C275.872 7.05398 275.732 7.07102 275.624 7.08523C275.362 7.11932 275.118 7.17472 274.891 7.25142C274.666 7.32528 274.485 7.4375 274.345 7.58807C274.209 7.7358 274.141 7.9375 274.141 8.19318C274.141 8.54261 274.27 8.80682 274.529 8.9858C274.79 9.16193 275.121 9.25 275.521 9.25ZM280.204 10V3.45455H281.175V4.44318H281.243C281.363 4.11932 281.579 3.85653 281.891 3.65483C282.204 3.45312 282.556 3.35227 282.948 3.35227C283.022 3.35227 283.114 3.35369 283.225 3.35653C283.336 3.35937 283.42 3.36364 283.476 3.36932V4.39205C283.442 4.38352 283.364 4.37074 283.242 4.35369C283.123 4.33381 282.996 4.32386 282.863 4.32386C282.545 4.32386 282.26 4.39062 282.01 4.52415C281.763 4.65483 281.567 4.83665 281.422 5.0696C281.28 5.29972 281.209 5.5625 281.209 5.85795V10H280.204ZM285.674 6.0625V10H284.669V3.45455H285.64V4.47727H285.725C285.879 4.14489 286.112 3.87784 286.424 3.67614C286.737 3.47159 287.14 3.36932 287.634 3.36932C288.078 3.36932 288.465 3.46023 288.798 3.64205C289.13 3.82102 289.389 4.09375 289.573 4.46023C289.758 4.82386 289.85 5.28409 289.85 5.84091V10H288.845V5.90909C288.845 5.39489 288.711 4.99432 288.444 4.70739C288.177 4.41761 287.811 4.27273 287.345 4.27273C287.024 4.27273 286.737 4.34233 286.484 4.48153C286.234 4.62074 286.036 4.82386 285.892 5.09091C285.747 5.35795 285.674 5.68182 285.674 6.0625ZM295.063 10V3.45455H296.035V4.47727H296.12C296.256 4.12784 296.476 3.85653 296.78 3.66335C297.084 3.46733 297.449 3.36932 297.876 3.36932C298.307 3.36932 298.667 3.46733 298.954 3.66335C299.243 3.85653 299.469 4.12784 299.631 4.47727H299.699C299.867 4.1392 300.118 3.87074 300.454 3.67188C300.789 3.47017 301.191 3.36932 301.66 3.36932C302.245 3.36932 302.724 3.55256 303.096 3.91903C303.468 4.28267 303.654 4.84943 303.654 5.61932V10H302.648V5.61932C302.648 5.13636 302.516 4.79119 302.252 4.58381C301.988 4.37642 301.677 4.27273 301.319 4.27273C300.858 4.27273 300.502 4.41193 300.249 4.69034C299.996 4.96591 299.87 5.31534 299.87 5.73864V10H298.847V5.51705C298.847 5.14489 298.726 4.84517 298.485 4.6179C298.243 4.38778 297.932 4.27273 297.552 4.27273C297.29 4.27273 297.046 4.34233 296.819 4.48153C296.594 4.62074 296.412 4.81392 296.273 5.06108C296.137 5.3054 296.069 5.58807 296.069 5.90909V10H295.063ZM308.152 10.1364C307.561 10.1364 307.042 9.99574 306.596 9.71449C306.153 9.43324 305.807 9.03977 305.557 8.53409C305.309 8.02841 305.186 7.4375 305.186 6.76136C305.186 6.07955 305.309 5.48437 305.557 4.97585C305.807 4.46733 306.153 4.07244 306.596 3.79119C307.042 3.50994 307.561 3.36932 308.152 3.36932C308.743 3.36932 309.26 3.50994 309.703 3.79119C310.149 4.07244 310.496 4.46733 310.743 4.97585C310.993 5.48437 311.118 6.07955 311.118 6.76136C311.118 7.4375 310.993 8.02841 310.743 8.53409C310.496 9.03977 310.149 9.43324 309.703 9.71449C309.26 9.99574 308.743 10.1364 308.152 10.1364ZM308.152 9.23295C308.601 9.23295 308.97 9.1179 309.26 8.88778C309.55 8.65767 309.764 8.35511 309.903 7.98011C310.042 7.60511 310.112 7.19886 310.112 6.76136C310.112 6.32386 310.042 5.91619 309.903 5.53835C309.764 5.16051 309.55 4.85511 309.26 4.62216C308.97 4.3892 308.601 4.27273 308.152 4.27273C307.703 4.27273 307.334 4.3892 307.044 4.62216C306.754 4.85511 306.54 5.16051 306.4 5.53835C306.261 5.91619 306.192 6.32386 306.192 6.76136C306.192 7.19886 306.261 7.60511 306.4 7.98011C306.54 8.35511 306.754 8.65767 307.044 8.88778C307.334 9.1179 307.703 9.23295 308.152 9.23295ZM312.653 10V3.45455H313.624V4.44318H313.693C313.812 4.11932 314.028 3.85653 314.34 3.65483C314.653 3.45312 315.005 3.35227 315.397 3.35227C315.471 3.35227 315.563 3.35369 315.674 3.35653C315.785 3.35937 315.869 3.36364 315.926 3.36932V4.39205C315.892 4.38352 315.813 4.37074 315.691 4.35369C315.572 4.33381 315.445 4.32386 315.312 4.32386C314.994 4.32386 314.71 4.39062 314.46 4.52415C314.213 4.65483 314.017 4.83665 313.872 5.0696C313.73 5.29972 313.659 5.5625 313.659 5.85795V10H312.653ZM319.663 10.1364C319.032 10.1364 318.488 9.99716 318.031 9.71875C317.576 9.4375 317.225 9.04545 316.978 8.54261C316.734 8.03693 316.612 7.44886 316.612 6.77841C316.612 6.10795 316.734 5.51705 316.978 5.00568C317.225 4.49148 317.569 4.09091 318.009 3.80398C318.453 3.5142 318.97 3.36932 319.561 3.36932C319.901 3.36932 320.238 3.42614 320.57 3.53977C320.903 3.65341 321.205 3.83807 321.478 4.09375C321.751 4.34659 321.968 4.68182 322.13 5.09943C322.292 5.51705 322.373 6.03125 322.373 6.64205V7.06818H317.328V6.19886H321.35C321.35 5.82955 321.276 5.5 321.129 5.21023C320.984 4.92045 320.776 4.69176 320.507 4.52415C320.24 4.35653 319.924 4.27273 319.561 4.27273C319.16 4.27273 318.813 4.37216 318.521 4.57102C318.231 4.76705 318.008 5.02273 317.852 5.33807C317.695 5.65341 317.617 5.99148 317.617 6.35227V6.93182C317.617 7.42614 317.703 7.84517 317.873 8.18892C318.046 8.52983 318.286 8.78977 318.593 8.96875C318.9 9.14489 319.257 9.23295 319.663 9.23295C319.927 9.23295 320.166 9.19602 320.379 9.12216C320.595 9.04545 320.781 8.93182 320.937 8.78125C321.093 8.62784 321.214 8.4375 321.299 8.21023L322.271 8.48295C322.169 8.8125 321.997 9.10227 321.755 9.35227C321.514 9.59943 321.215 9.79261 320.86 9.93182C320.505 10.0682 320.106 10.1364 319.663 10.1364ZM337.445 10L336.789 9.34375L339.491 6.65057H327.857V5.71307H339.491L336.789 3.01136L337.445 2.36364L341.264 6.18182L337.445 10Z" fill="white"/>
</svg>
