<svg width="408" height="86" viewBox="0 0 408 86" fill="none" xmlns="http://www.w3.org/2000/svg">
<g clip-path="url(#clip0_3538_1573)">
<g clip-path="url(#clip1_3538_1573)">
<path d="M42.9998 47.5071V56.5003C42.9998 57.3287 43.6713 58.0003 44.4998 58.0003H71.4998C72.3282 58.0003 72.9998 57.3287 72.9998 56.5003V47.5074C72.9998 46.68 72.3304 46.0088 71.503 46.0077C64.0455 45.9979 51.3229 45.9978 44.4935 46.0075C43.6662 46.0087 42.9998 46.6798 42.9998 47.5071Z" fill="#533D86"/>
<path fill-rule="evenodd" clip-rule="evenodd" d="M47.5745 30.587C47.0143 29.9953 47.0143 29.036 47.5745 28.4443C48.1347 27.8526 49.0429 27.8526 49.6031 28.4443L51.5014 30.4493C53.5131 29.4188 55.7348 28.8499 58.0002 28.8499C60.2663 28.8499 62.4878 29.4185 64.499 30.4484L66.3964 28.4443C66.9566 27.8526 67.8649 27.8526 68.4251 28.4443C68.9853 29.036 68.9853 29.9953 68.4251 30.587L67.0215 32.0696C70.2629 34.6277 72.5797 38.5379 72.9947 43.1679C73.0687 43.9931 72.3899 44.6671 71.5615 44.6671H44.4378C43.6094 44.6671 42.9305 43.9931 43.0046 43.168C43.4199 38.5386 45.7377 34.6288 48.9791 32.0707L47.5745 30.587ZM51.2039 37.8867C50.509 37.8867 49.9477 37.4108 49.9477 36.6363C49.9477 35.8645 50.509 35.3191 51.2039 35.3191C51.8918 35.3191 52.453 35.8644 52.453 36.6363C52.453 37.4108 51.8918 37.8867 51.2039 37.8867ZM64.8232 37.9086C64.1306 37.9086 63.5694 37.4108 63.5694 36.6363C63.5694 35.8645 64.1306 35.344 64.8232 35.344C65.5179 35.344 66.0746 35.8644 66.0746 36.6363C66.0746 37.4108 65.5181 37.9086 64.8232 37.9086Z" fill="#533D86"/>
<path d="M85.87 26.0101C86.6433 26.0101 87.3067 26.1501 87.86 26.4301C88.4133 26.7101 88.8367 27.1134 89.13 27.6401C89.4233 28.1668 89.57 28.7934 89.57 29.5201C89.57 30.2401 89.4233 30.8634 89.13 31.3901C88.8367 31.9101 88.4133 32.3101 87.86 32.5901C87.3067 32.8634 86.6433 33.0001 85.87 33.0001H83.8V26.0101H85.87ZM85.87 32.4201C86.8433 32.4201 87.5833 32.1668 88.09 31.6601C88.6033 31.1468 88.86 30.4334 88.86 29.5201C88.86 28.6001 88.6033 27.8834 88.09 27.3701C87.5833 26.8501 86.8433 26.5901 85.87 26.5901H84.5V32.4201H85.87ZM93.2505 33.0801C92.7372 33.0801 92.2739 32.9668 91.8605 32.7401C91.4539 32.5068 91.1305 32.1801 90.8905 31.7601C90.6572 31.3334 90.5405 30.8368 90.5405 30.2701C90.5405 29.7034 90.6605 29.2101 90.9005 28.7901C91.1405 28.3634 91.4672 28.0368 91.8805 27.8101C92.2939 27.5768 92.7572 27.4601 93.2705 27.4601C93.7839 27.4601 94.2472 27.5768 94.6605 27.8101C95.0805 28.0368 95.4072 28.3634 95.6405 28.7901C95.8805 29.2101 96.0005 29.7034 96.0005 30.2701C96.0005 30.8301 95.8805 31.3234 95.6405 31.7501C95.4005 32.1768 95.0705 32.5068 94.6505 32.7401C94.2305 32.9668 93.7639 33.0801 93.2505 33.0801ZM93.2505 32.4701C93.6105 32.4701 93.9439 32.3901 94.2505 32.2301C94.5572 32.0634 94.8039 31.8168 94.9905 31.4901C95.1839 31.1568 95.2805 30.7501 95.2805 30.2701C95.2805 29.7901 95.1872 29.3868 95.0005 29.0601C94.8139 28.7268 94.5672 28.4801 94.2605 28.3201C93.9539 28.1534 93.6205 28.0701 93.2605 28.0701C92.9005 28.0701 92.5672 28.1534 92.2605 28.3201C91.9539 28.4801 91.7072 28.7268 91.5205 29.0601C91.3405 29.3868 91.2505 29.7901 91.2505 30.2701C91.2505 30.7501 91.3405 31.1568 91.5205 31.4901C91.7072 31.8168 91.9505 32.0634 92.2505 32.2301C92.5572 32.3901 92.8905 32.4701 93.2505 32.4701ZM104.477 27.5401L102.767 33.0001H102.067L100.557 28.4201L99.0466 33.0001H98.3366L96.6266 27.5401H97.3366L98.6966 32.2901L100.227 27.5401H100.927L102.437 32.3001L103.787 27.5401H104.477ZM107.991 27.4401C108.644 27.4401 109.178 27.6434 109.591 28.0501C110.004 28.4501 110.211 29.0334 110.211 29.8001V33.0001H109.521V29.8801C109.521 29.2868 109.371 28.8334 109.071 28.5201C108.778 28.2068 108.374 28.0501 107.861 28.0501C107.334 28.0501 106.914 28.2168 106.601 28.5501C106.288 28.8834 106.131 29.3734 106.131 30.0201V33.0001H105.431V27.5401H106.131V28.4701C106.304 28.1368 106.554 27.8834 106.881 27.7101C107.208 27.5301 107.578 27.4401 107.991 27.4401ZM112.459 25.6001V33.0001H111.759V25.6001H112.459ZM116.434 33.0801C115.921 33.0801 115.457 32.9668 115.044 32.7401C114.637 32.5068 114.314 32.1801 114.074 31.7601C113.841 31.3334 113.724 30.8368 113.724 30.2701C113.724 29.7034 113.844 29.2101 114.084 28.7901C114.324 28.3634 114.651 28.0368 115.064 27.8101C115.477 27.5768 115.941 27.4601 116.454 27.4601C116.967 27.4601 117.431 27.5768 117.844 27.8101C118.264 28.0368 118.591 28.3634 118.824 28.7901C119.064 29.2101 119.184 29.7034 119.184 30.2701C119.184 30.8301 119.064 31.3234 118.824 31.7501C118.584 32.1768 118.254 32.5068 117.834 32.7401C117.414 32.9668 116.947 33.0801 116.434 33.0801ZM116.434 32.4701C116.794 32.4701 117.127 32.3901 117.434 32.2301C117.741 32.0634 117.987 31.8168 118.174 31.4901C118.367 31.1568 118.464 30.7501 118.464 30.2701C118.464 29.7901 118.371 29.3868 118.184 29.0601C117.997 28.7268 117.751 28.4801 117.444 28.3201C117.137 28.1534 116.804 28.0701 116.444 28.0701C116.084 28.0701 115.751 28.1534 115.444 28.3201C115.137 28.4801 114.891 28.7268 114.704 29.0601C114.524 29.3868 114.434 29.7901 114.434 30.2701C114.434 30.7501 114.524 31.1568 114.704 31.4901C114.891 31.8168 115.134 32.0634 115.434 32.2301C115.741 32.3901 116.074 32.4701 116.434 32.4701ZM120.14 30.2601C120.14 29.7001 120.25 29.2101 120.47 28.7901C120.697 28.3634 121.007 28.0368 121.4 27.8101C121.8 27.5768 122.25 27.4601 122.75 27.4601C123.27 27.4601 123.717 27.5801 124.09 27.8201C124.47 28.0601 124.743 28.3668 124.91 28.7401V27.5401H125.61V33.0001H124.91V31.7901C124.737 32.1634 124.46 32.4734 124.08 32.7201C123.707 32.9601 123.26 33.0801 122.74 33.0801C122.247 33.0801 121.8 32.9634 121.4 32.7301C121.007 32.4968 120.697 32.1668 120.47 31.7401C120.25 31.3134 120.14 30.8201 120.14 30.2601ZM124.91 30.2701C124.91 29.8301 124.82 29.4434 124.64 29.1101C124.46 28.7768 124.213 28.5201 123.9 28.3401C123.593 28.1601 123.253 28.0701 122.88 28.0701C122.493 28.0701 122.147 28.1568 121.84 28.3301C121.533 28.5034 121.29 28.7568 121.11 29.0901C120.937 29.4168 120.85 29.8068 120.85 30.2601C120.85 30.7068 120.937 31.1001 121.11 31.4401C121.29 31.7734 121.533 32.0301 121.84 32.2101C122.147 32.3834 122.493 32.4701 122.88 32.4701C123.253 32.4701 123.593 32.3801 123.9 32.2001C124.213 32.0201 124.46 31.7634 124.64 31.4301C124.82 31.0968 124.91 30.7101 124.91 30.2701ZM126.888 30.2601C126.888 29.7001 127.002 29.2101 127.228 28.7901C127.455 28.3634 127.765 28.0368 128.158 27.8101C128.558 27.5768 129.008 27.4601 129.508 27.4601C129.988 27.4601 130.422 27.5768 130.808 27.8101C131.195 28.0434 131.478 28.3468 131.658 28.7201V25.6001H132.358V33.0001H131.658V31.7801C131.492 32.1601 131.218 32.4734 130.838 32.7201C130.458 32.9601 130.012 33.0801 129.498 33.0801C128.998 33.0801 128.548 32.9634 128.148 32.7301C127.755 32.4968 127.445 32.1668 127.218 31.7401C126.998 31.3134 126.888 30.8201 126.888 30.2601ZM131.658 30.2701C131.658 29.8301 131.568 29.4434 131.388 29.1101C131.208 28.7768 130.962 28.5201 130.648 28.3401C130.342 28.1601 130.002 28.0701 129.628 28.0701C129.242 28.0701 128.895 28.1568 128.588 28.3301C128.282 28.5034 128.038 28.7568 127.858 29.0901C127.685 29.4168 127.598 29.8068 127.598 30.2601C127.598 30.7068 127.685 31.1001 127.858 31.4401C128.038 31.7734 128.282 32.0301 128.588 32.2101C128.895 32.3834 129.242 32.4701 129.628 32.4701C130.002 32.4701 130.342 32.3801 130.648 32.2001C130.962 32.0201 131.208 31.7634 131.388 31.4301C131.568 31.0968 131.658 30.7101 131.658 30.2701ZM139.09 33.0801C138.577 33.0801 138.114 32.9668 137.7 32.7401C137.294 32.5068 136.97 32.1801 136.73 31.7601C136.497 31.3334 136.38 30.8368 136.38 30.2701C136.38 29.7034 136.5 29.2101 136.74 28.7901C136.98 28.3634 137.307 28.0368 137.72 27.8101C138.134 27.5768 138.597 27.4601 139.11 27.4601C139.624 27.4601 140.087 27.5768 140.5 27.8101C140.92 28.0368 141.247 28.3634 141.48 28.7901C141.72 29.2101 141.84 29.7034 141.84 30.2701C141.84 30.8301 141.72 31.3234 141.48 31.7501C141.24 32.1768 140.91 32.5068 140.49 32.7401C140.07 32.9668 139.604 33.0801 139.09 33.0801ZM139.09 32.4701C139.45 32.4701 139.784 32.3901 140.09 32.2301C140.397 32.0634 140.644 31.8168 140.83 31.4901C141.024 31.1568 141.12 30.7501 141.12 30.2701C141.12 29.7901 141.027 29.3868 140.84 29.0601C140.654 28.7268 140.407 28.4801 140.1 28.3201C139.794 28.1534 139.46 28.0701 139.1 28.0701C138.74 28.0701 138.407 28.1534 138.1 28.3201C137.794 28.4801 137.547 28.7268 137.36 29.0601C137.18 29.3868 137.09 29.7901 137.09 30.2701C137.09 30.7501 137.18 31.1568 137.36 31.4901C137.547 31.8168 137.79 32.0634 138.09 32.2301C138.397 32.3901 138.73 32.4701 139.09 32.4701ZM145.676 27.4401C146.33 27.4401 146.863 27.6434 147.276 28.0501C147.69 28.4501 147.896 29.0334 147.896 29.8001V33.0001H147.206V29.8801C147.206 29.2868 147.056 28.8334 146.756 28.5201C146.463 28.2068 146.06 28.0501 145.546 28.0501C145.02 28.0501 144.6 28.2168 144.286 28.5501C143.973 28.8834 143.816 29.3734 143.816 30.0201V33.0001H143.116V27.5401H143.816V28.4701C143.99 28.1368 144.24 27.8834 144.566 27.7101C144.893 27.5301 145.263 27.4401 145.676 27.4401Z" fill="#533D86"/>
<path d="M91.946 54.6059H86.942L86.114 56.9999H83.468L87.986 44.4179H90.92L95.438 56.9999H92.774L91.946 54.6059ZM91.262 52.5899L89.444 47.3339L87.626 52.5899H91.262ZM102.653 46.8839C103.841 46.8839 104.801 47.2619 105.533 48.0179C106.265 48.7619 106.631 49.8059 106.631 51.1499V56.9999H104.111V51.4919C104.111 50.6999 103.913 50.0939 103.517 49.6739C103.121 49.2419 102.581 49.0259 101.897 49.0259C101.201 49.0259 100.649 49.2419 100.241 49.6739C99.8448 50.0939 99.6468 50.6999 99.6468 51.4919V56.9999H97.1268V47.0279H99.6468V48.2699C99.9828 47.8379 100.409 47.5019 100.925 47.2619C101.453 47.0099 102.029 46.8839 102.653 46.8839ZM108.379 51.9779C108.379 50.9699 108.577 50.0759 108.973 49.2959C109.381 48.5159 109.933 47.9159 110.629 47.4959C111.325 47.0759 112.099 46.8659 112.951 46.8659C113.599 46.8659 114.217 47.0099 114.805 47.2979C115.393 47.5739 115.861 47.9459 116.209 48.4139V43.6799H118.765V56.9999H116.209V55.5239C115.897 56.0159 115.459 56.4119 114.895 56.7119C114.331 57.0119 113.677 57.1619 112.933 57.1619C112.093 57.1619 111.325 56.9459 110.629 56.5139C109.933 56.0819 109.381 55.4759 108.973 54.6959C108.577 53.9039 108.379 52.9979 108.379 51.9779ZM116.227 52.0139C116.227 51.4019 116.107 50.8799 115.867 50.4479C115.627 50.0039 115.303 49.6679 114.895 49.4399C114.487 49.1999 114.049 49.0799 113.581 49.0799C113.113 49.0799 112.681 49.1939 112.285 49.4219C111.889 49.6499 111.565 49.9859 111.313 50.4299C111.073 50.8619 110.953 51.3779 110.953 51.9779C110.953 52.5779 111.073 53.1059 111.313 53.5619C111.565 54.0059 111.889 54.3479 112.285 54.5879C112.693 54.8279 113.125 54.9479 113.581 54.9479C114.049 54.9479 114.487 54.8339 114.895 54.6059C115.303 54.3659 115.627 54.0299 115.867 53.5979C116.107 53.1539 116.227 52.6259 116.227 52.0139ZM123.746 48.5759C124.07 48.0479 124.49 47.6339 125.006 47.3339C125.534 47.0339 126.134 46.8839 126.806 46.8839V49.5299H126.14C125.348 49.5299 124.748 49.7159 124.34 50.0879C123.944 50.4599 123.746 51.1079 123.746 52.0319V56.9999H121.226V47.0279H123.746V48.5759ZM132.932 57.1619C131.972 57.1619 131.108 56.9519 130.34 56.5319C129.572 56.0999 128.966 55.4939 128.522 54.7139C128.09 53.9339 127.874 53.0339 127.874 52.0139C127.874 50.9939 128.096 50.0939 128.54 49.3139C128.996 48.5339 129.614 47.9339 130.394 47.5139C131.174 47.0819 132.044 46.8659 133.004 46.8659C133.964 46.8659 134.834 47.0819 135.614 47.5139C136.394 47.9339 137.006 48.5339 137.45 49.3139C137.906 50.0939 138.134 50.9939 138.134 52.0139C138.134 53.0339 137.9 53.9339 137.432 54.7139C136.976 55.4939 136.352 56.0999 135.56 56.5319C134.78 56.9519 133.904 57.1619 132.932 57.1619ZM132.932 54.9659C133.388 54.9659 133.814 54.8579 134.21 54.6419C134.618 54.4139 134.942 54.0779 135.182 53.6339C135.422 53.1899 135.542 52.6499 135.542 52.0139C135.542 51.0659 135.29 50.3399 134.786 49.8359C134.294 49.3199 133.688 49.0619 132.968 49.0619C132.248 49.0619 131.642 49.3199 131.15 49.8359C130.67 50.3399 130.43 51.0659 130.43 52.0139C130.43 52.9619 130.664 53.6939 131.132 54.2099C131.612 54.7139 132.212 54.9659 132.932 54.9659ZM141.26 45.8399C140.816 45.8399 140.444 45.7019 140.144 45.4259C139.856 45.1379 139.712 44.7839 139.712 44.3639C139.712 43.9439 139.856 43.5959 140.144 43.3199C140.444 43.0319 140.816 42.8879 141.26 42.8879C141.704 42.8879 142.07 43.0319 142.358 43.3199C142.658 43.5959 142.808 43.9439 142.808 44.3639C142.808 44.7839 142.658 45.1379 142.358 45.4259C142.07 45.7019 141.704 45.8399 141.26 45.8399ZM142.502 47.0279V56.9999H139.982V47.0279H142.502ZM144.344 51.9779C144.344 50.9699 144.542 50.0759 144.938 49.2959C145.346 48.5159 145.898 47.9159 146.594 47.4959C147.29 47.0759 148.064 46.8659 148.916 46.8659C149.564 46.8659 150.182 47.0099 150.77 47.2979C151.358 47.5739 151.826 47.9459 152.174 48.4139V43.6799H154.73V56.9999H152.174V55.5239C151.862 56.0159 151.424 56.4119 150.86 56.7119C150.296 57.0119 149.642 57.1619 148.898 57.1619C148.058 57.1619 147.29 56.9459 146.594 56.5139C145.898 56.0819 145.346 55.4759 144.938 54.6959C144.542 53.9039 144.344 52.9979 144.344 51.9779ZM152.192 52.0139C152.192 51.4019 152.072 50.8799 151.832 50.4479C151.592 50.0039 151.268 49.6679 150.86 49.4399C150.452 49.1999 150.014 49.0799 149.546 49.0799C149.078 49.0799 148.646 49.1939 148.25 49.4219C147.854 49.6499 147.53 49.9859 147.278 50.4299C147.038 50.8619 146.918 51.3779 146.918 51.9779C146.918 52.5779 147.038 53.1059 147.278 53.5619C147.53 54.0059 147.854 54.3479 148.25 54.5879C148.658 54.8279 149.09 54.9479 149.546 54.9479C150.014 54.9479 150.452 54.8339 150.86 54.6059C151.268 54.3659 151.592 54.0299 151.832 53.5979C152.072 53.1539 152.192 52.6259 152.192 52.0139Z" fill="#533D86"/>
<path d="M155 2.5H41C18.6325 2.5 0.5 20.6325 0.5 43C0.5 65.3675 18.6325 83.5 41 83.5H155C177.368 83.5 195.5 65.3675 195.5 43C195.5 20.6325 177.368 2.5 155 2.5Z" stroke="#E4E4E4"/>
</g>
</g>
<g clip-path="url(#clip2_3538_1573)">
<g clip-path="url(#clip3_3538_1573)">
<path fill-rule="evenodd" clip-rule="evenodd" d="M269.918 33.5131C268.994 34.6469 267.444 35.4973 266.208 35.4973C266.068 35.4973 265.929 35.4796 265.842 35.4619C265.825 35.391 265.79 35.1784 265.79 34.9658C265.79 33.5131 266.504 32.0959 267.288 31.1923C268.28 30.0053 269.935 29.1195 271.311 29.0664C271.346 29.2258 271.363 29.4207 271.363 29.6156C271.363 31.0506 270.754 32.4856 269.918 33.5131ZM263.86 56.4053C263.24 56.6765 262.652 56.9335 261.853 56.9335C260.147 56.9335 258.962 55.339 257.604 53.3903C256.019 51.0872 254.73 47.5263 254.73 44.1603C254.73 38.7391 258.196 35.8692 261.61 35.8692C262.606 35.8692 263.516 36.2408 264.326 36.5712C264.974 36.8357 265.557 37.0738 266.068 37.0738C266.512 37.0738 267.064 36.8518 267.708 36.593C268.607 36.2315 269.685 35.7983 270.893 35.7983C271.659 35.7983 274.463 35.8692 276.31 38.562C276.299 38.5704 276.276 38.5855 276.244 38.6076C275.789 38.9126 273.366 40.5397 273.366 43.8768C273.366 48.0047 276.902 49.475 277.024 49.5105C277.021 49.5184 277.013 49.5412 277.002 49.5772C276.886 49.9431 276.332 51.6875 275.143 53.4612C273.976 55.1619 272.739 56.898 270.893 56.898C269.983 56.898 269.403 56.6369 268.804 56.3673C268.166 56.0794 267.505 55.7819 266.399 55.7819C265.287 55.7819 264.554 56.1025 263.86 56.4053Z" fill="#533D86"/>
<path d="M291.765 27.218C292.484 27.218 293.1 27.3481 293.614 27.6082C294.128 27.8682 294.521 28.2429 294.794 28.7321C295.066 29.2214 295.202 29.8034 295.202 30.4785C295.202 31.1473 295.066 31.7263 294.794 32.2155C294.521 32.6986 294.128 33.0701 293.614 33.3302C293.1 33.5841 292.484 33.7111 291.765 33.7111H289.843V27.218H291.765ZM291.765 33.1723C292.67 33.1723 293.357 32.937 293.828 32.4664C294.304 31.9895 294.543 31.3269 294.543 30.4785C294.543 29.6239 294.304 28.9581 293.828 28.4813C293.357 27.9983 292.67 27.7568 291.765 27.7568H290.493V33.1723H291.765ZM298.621 33.7854C298.145 33.7854 297.714 33.6802 297.33 33.4696C296.952 33.2529 296.652 32.9494 296.429 32.5592C296.212 32.1629 296.104 31.7016 296.104 31.1752C296.104 30.6488 296.215 30.1905 296.438 29.8004C296.661 29.404 296.965 29.1006 297.349 28.89C297.733 28.6733 298.163 28.5649 298.64 28.5649C299.117 28.5649 299.547 28.6733 299.931 28.89C300.321 29.1006 300.625 29.404 300.841 29.8004C301.064 30.1905 301.176 30.6488 301.176 31.1752C301.176 31.6954 301.064 32.1536 300.841 32.55C300.618 32.9463 300.312 33.2529 299.922 33.4696C299.532 33.6802 299.098 33.7854 298.621 33.7854ZM298.621 33.2188C298.956 33.2188 299.265 33.1445 299.55 32.9958C299.835 32.841 300.064 32.6119 300.238 32.3084C300.417 31.9988 300.507 31.621 300.507 31.1752C300.507 30.7293 300.42 30.3547 300.247 30.0512C300.074 29.7416 299.844 29.5124 299.56 29.3638C299.275 29.2089 298.965 29.1316 298.631 29.1316C298.296 29.1316 297.987 29.2089 297.702 29.3638C297.417 29.5124 297.188 29.7416 297.014 30.0512C296.847 30.3547 296.763 30.7293 296.763 31.1752C296.763 31.621 296.847 31.9988 297.014 32.3084C297.188 32.6119 297.414 32.841 297.692 32.9958C297.977 33.1445 298.287 33.2188 298.621 33.2188ZM309.05 28.6392L307.461 33.7111H306.811L305.408 29.4567L304.005 33.7111H303.346L301.757 28.6392H302.417L303.68 33.0516L305.102 28.6392H305.752L307.155 33.0609L308.409 28.6392H309.05ZM312.314 28.5464C312.92 28.5464 313.417 28.7352 313.8 29.113C314.184 29.4846 314.376 30.0264 314.376 30.7386V33.7111H313.735V30.8129C313.735 30.2618 313.596 29.8406 313.317 29.5496C313.045 29.2585 312.67 29.113 312.193 29.113C311.704 29.113 311.313 29.2678 311.023 29.5774C310.732 29.887 310.586 30.3422 310.586 30.9429V33.7111H309.936V28.6392H310.586V29.5031C310.747 29.1935 310.979 28.9581 311.283 28.7972C311.587 28.63 311.93 28.5464 312.314 28.5464ZM316.464 26.8372V33.7111H315.814V26.8372H316.464ZM320.157 33.7854C319.68 33.7854 319.249 33.6802 318.866 33.4696C318.487 33.2529 318.187 32.9494 317.964 32.5592C317.748 32.1629 317.639 31.7016 317.639 31.1752C317.639 30.6488 317.751 30.1905 317.974 29.8004C318.197 29.404 318.5 29.1006 318.884 28.89C319.268 28.6733 319.699 28.5649 320.175 28.5649C320.652 28.5649 321.083 28.6733 321.466 28.89C321.857 29.1006 322.16 29.404 322.377 29.8004C322.6 30.1905 322.711 30.6488 322.711 31.1752C322.711 31.6954 322.6 32.1536 322.377 32.55C322.154 32.9463 321.847 33.2529 321.457 33.4696C321.067 33.6802 320.633 33.7854 320.157 33.7854ZM320.157 33.2188C320.491 33.2188 320.8 33.1445 321.086 32.9958C321.371 32.841 321.599 32.6119 321.773 32.3084C321.952 31.9988 322.042 31.621 322.042 31.1752C322.042 30.7293 321.956 30.3547 321.782 30.0512C321.609 29.7416 321.38 29.5124 321.095 29.3638C320.81 29.2089 320.5 29.1316 320.166 29.1316C319.832 29.1316 319.522 29.2089 319.237 29.3638C318.952 29.5124 318.723 29.7416 318.55 30.0512C318.382 30.3547 318.299 30.7293 318.299 31.1752C318.299 31.621 318.382 31.9988 318.55 32.3084C318.723 32.6119 318.949 32.841 319.228 32.9958C319.513 33.1445 319.822 33.2188 320.157 33.2188ZM323.599 31.1659C323.599 30.6457 323.701 30.1905 323.906 29.8004C324.117 29.404 324.405 29.1006 324.77 28.89C325.141 28.6733 325.559 28.5649 326.024 28.5649C326.507 28.5649 326.922 28.6764 327.268 28.8993C327.621 29.1223 327.875 29.4072 328.03 29.7539V28.6392H328.68V33.7111H328.03V32.5871C327.869 32.9339 327.612 33.2218 327.259 33.451C326.913 33.6739 326.497 33.7854 326.014 33.7854C325.556 33.7854 325.141 33.677 324.77 33.4603C324.405 33.2436 324.117 32.937 323.906 32.5407C323.701 32.1443 323.599 31.6861 323.599 31.1659ZM328.03 31.1752C328.03 30.7664 327.947 30.4072 327.779 30.0976C327.612 29.788 327.383 29.5496 327.092 29.3824C326.807 29.2152 326.491 29.1316 326.144 29.1316C325.785 29.1316 325.464 29.2121 325.178 29.3731C324.893 29.5341 324.667 29.7694 324.5 30.0791C324.34 30.3825 324.259 30.7448 324.259 31.1659C324.259 31.5808 324.34 31.9462 324.5 32.262C324.667 32.5716 324.893 32.81 325.178 32.9773C325.464 33.1382 325.785 33.2188 326.144 33.2188C326.491 33.2188 326.807 33.1352 327.092 32.968C327.383 32.8008 327.612 32.5623 327.779 32.2527C327.947 31.9431 328.03 31.5839 328.03 31.1752ZM329.868 31.1659C329.868 30.6457 329.973 30.1905 330.183 29.8004C330.394 29.404 330.682 29.1006 331.047 28.89C331.419 28.6733 331.837 28.5649 332.301 28.5649C332.747 28.5649 333.15 28.6733 333.509 28.89C333.868 29.1068 334.131 29.3886 334.298 29.7354V26.8372H334.949V33.7111H334.298V32.5778C334.144 32.9308 333.89 33.2218 333.537 33.451C333.184 33.6739 332.769 33.7854 332.292 33.7854C331.828 33.7854 331.41 33.677 331.038 33.4603C330.673 33.2436 330.385 32.937 330.174 32.5407C329.97 32.1443 329.868 31.6861 329.868 31.1659ZM334.298 31.1752C334.298 30.7664 334.215 30.4072 334.048 30.0976C333.88 29.788 333.652 29.5496 333.36 29.3824C333.076 29.2152 332.76 29.1316 332.413 29.1316C332.054 29.1316 331.732 29.2121 331.447 29.3731C331.162 29.5341 330.936 29.7694 330.769 30.0791C330.608 30.3825 330.527 30.7448 330.527 31.1659C330.527 31.5808 330.608 31.9462 330.769 32.262C330.936 32.5716 331.162 32.81 331.447 32.9773C331.732 33.1382 332.054 33.2188 332.413 33.2188C332.76 33.2188 333.076 33.1352 333.36 32.968C333.652 32.8008 333.88 32.5623 334.048 32.2527C334.215 31.9431 334.298 31.5839 334.298 31.1752ZM341.202 33.7854C340.726 33.7854 340.295 33.6802 339.911 33.4696C339.534 33.2529 339.233 32.9494 339.01 32.5592C338.793 32.1629 338.685 31.7016 338.685 31.1752C338.685 30.6488 338.796 30.1905 339.019 29.8004C339.242 29.404 339.546 29.1006 339.929 28.89C340.314 28.6733 340.744 28.5649 341.221 28.5649C341.698 28.5649 342.128 28.6733 342.512 28.89C342.902 29.1006 343.206 29.404 343.422 29.8004C343.645 30.1905 343.757 30.6488 343.757 31.1752C343.757 31.6954 343.645 32.1536 343.422 32.55C343.199 32.9463 342.893 33.2529 342.503 33.4696C342.112 33.6802 341.68 33.7854 341.202 33.7854ZM341.202 33.2188C341.536 33.2188 341.847 33.1445 342.131 32.9958C342.416 32.841 342.646 32.6119 342.818 32.3084C342.999 31.9988 343.088 31.621 343.088 31.1752C343.088 30.7293 343.001 30.3547 342.828 30.0512C342.655 29.7416 342.425 29.5124 342.14 29.3638C341.856 29.2089 341.546 29.1316 341.211 29.1316C340.877 29.1316 340.568 29.2089 340.282 29.3638C339.998 29.5124 339.769 29.7416 339.595 30.0512C339.428 30.3547 339.344 30.7293 339.344 31.1752C339.344 31.621 339.428 31.9988 339.595 32.3084C339.769 32.6119 339.994 32.841 340.273 32.9958C340.558 33.1445 340.868 33.2188 341.202 33.2188ZM347.32 28.5464C347.927 28.5464 348.422 28.7352 348.806 29.113C349.191 29.4846 349.382 30.0264 349.382 30.7386V33.7111H348.741V30.8129C348.741 30.2618 348.602 29.8406 348.323 29.5496C348.051 29.2585 347.677 29.113 347.199 29.113C346.711 29.113 346.32 29.2678 346.029 29.5774C345.738 29.887 345.592 30.3422 345.592 30.9429V33.7111H344.942V28.6392H345.592V29.5031C345.754 29.1935 345.986 28.9581 346.289 28.7972C346.593 28.63 346.936 28.5464 347.32 28.5464Z" fill="#533D86"/>
<path d="M297.41 53.781H292.761L291.992 56.0048H289.534L293.731 44.3172H296.456L300.653 56.0048H298.179L297.41 53.781ZM296.774 51.9083L295.085 47.0259L293.397 51.9083H296.774ZM304.563 48.0793C304.864 47.6557 305.276 47.3046 305.8 47.0259C306.335 46.7361 306.943 46.5912 307.623 46.5912C308.414 46.5912 309.128 46.7863 309.763 47.1764C310.41 47.5666 310.917 48.1239 311.285 48.8485C311.664 49.5619 311.853 50.3923 311.853 51.3398C311.853 52.2873 311.664 53.1289 311.285 53.8646C310.917 54.5891 310.41 55.152 309.763 55.5533C309.128 55.9546 308.414 56.1553 307.623 56.1553C306.943 56.1553 306.341 56.0159 305.817 55.7372C305.304 55.4586 304.886 55.1074 304.563 54.6839V60.419H302.222V46.7417H304.563V48.0793ZM309.462 51.3398C309.462 50.7824 309.345 50.3031 309.111 49.9018C308.888 49.4894 308.587 49.1773 308.208 48.9655C307.84 48.7537 307.439 48.6478 307.004 48.6478C306.581 48.6478 306.179 48.7593 305.8 48.9822C305.433 49.194 305.132 49.5061 304.897 49.9186C304.674 50.331 304.563 50.8159 304.563 51.3732C304.563 51.9306 304.674 52.4155 304.897 52.8279C305.132 53.2403 305.433 53.558 305.8 53.781C306.179 53.9928 306.581 54.0987 307.004 54.0987C307.439 54.0987 307.84 53.9872 308.208 53.7642C308.587 53.5413 308.888 53.2236 309.111 52.8112C309.345 52.3987 309.462 51.9083 309.462 51.3398ZM315.895 48.0793C316.196 47.6557 316.608 47.3046 317.132 47.0259C317.667 46.7361 318.275 46.5912 318.955 46.5912C319.746 46.5912 320.46 46.7863 321.095 47.1764C321.741 47.5666 322.249 48.1239 322.616 48.8485C322.995 49.5619 323.185 50.3923 323.185 51.3398C323.185 52.2873 322.995 53.1289 322.616 53.8646C322.249 54.5891 321.741 55.152 321.095 55.5533C320.46 55.9546 319.746 56.1553 318.955 56.1553C318.275 56.1553 317.673 56.0159 317.149 55.7372C316.636 55.4586 316.218 55.1074 315.895 54.6839V60.419H313.554V46.7417H315.895V48.0793ZM320.794 51.3398C320.794 50.7824 320.677 50.3031 320.443 49.9018C320.22 49.4894 319.919 49.1773 319.54 48.9655C319.172 48.7537 318.771 48.6478 318.336 48.6478C317.912 48.6478 317.511 48.7593 317.132 48.9822C316.764 49.194 316.463 49.5061 316.229 49.9186C316.006 50.331 315.895 50.8159 315.895 51.3732C315.895 51.9306 316.006 52.4155 316.229 52.8279C316.463 53.2403 316.764 53.558 317.132 53.781C317.511 53.9928 317.912 54.0987 318.336 54.0987C318.771 54.0987 319.172 53.9872 319.54 53.7642C319.919 53.5413 320.22 53.2236 320.443 52.8112C320.677 52.3987 320.794 51.9083 320.794 51.3398ZM327.227 43.6317V56.0048H324.886V43.6317H327.227ZM338.151 51.1726C338.151 51.507 338.128 51.808 338.084 52.0755H331.312C331.368 52.7443 331.602 53.2682 332.014 53.6472C332.427 54.0262 332.934 54.2157 333.536 54.2157C334.405 54.2157 335.024 53.8423 335.392 53.0954H337.917C337.649 53.9872 337.136 54.7229 336.378 55.3025C335.62 55.871 334.69 56.1553 333.586 56.1553C332.694 56.1553 331.892 55.9602 331.178 55.57C330.476 55.1688 329.924 54.6058 329.523 53.8813C329.133 53.1567 328.938 52.3207 328.938 51.3732C328.938 50.4146 329.133 49.573 329.523 48.8485C329.913 48.1239 330.459 47.5666 331.162 47.1764C331.864 46.7863 332.672 46.5912 333.586 46.5912C334.467 46.5912 335.252 46.7807 335.944 47.1597C336.646 47.5387 337.186 48.0793 337.565 48.7816C337.956 49.4727 338.151 50.2697 338.151 51.1726ZM335.726 50.5038C335.715 49.9018 335.498 49.4225 335.074 49.0658C334.65 48.698 334.132 48.514 333.519 48.514C332.939 48.514 332.449 48.6924 332.048 49.0491C331.658 49.3947 331.418 49.8795 331.329 50.5038H335.726ZM345.03 45.6381C344.618 45.6381 344.272 45.5099 343.993 45.2536C343.726 44.986 343.592 44.6572 343.592 44.2671C343.592 43.8769 343.726 43.5537 343.993 43.2973C344.272 43.0298 344.618 42.896 345.03 42.896C345.443 42.896 345.783 43.0298 346.05 43.2973C346.329 43.5537 346.468 43.8769 346.468 44.2671C346.468 44.6572 346.329 44.986 346.05 45.2536C345.783 45.5099 345.443 45.6381 345.03 45.6381ZM346.184 46.7417V56.0048H343.843V46.7417H346.184ZM353.914 56.1218C352.822 56.1218 351.819 55.8654 350.905 55.3527C349.991 54.8399 349.266 54.1321 348.731 53.2292C348.196 52.3151 347.928 51.2841 347.928 50.1359C347.928 48.9989 348.196 47.979 348.731 47.0761C349.266 46.162 349.991 45.4486 350.905 44.9359C351.819 44.4231 352.822 44.1667 353.914 44.1667C355.018 44.1667 356.021 44.4231 356.924 44.9359C357.838 45.4486 358.557 46.162 359.081 47.0761C359.616 47.979 359.883 48.9989 359.883 50.1359C359.883 51.2841 359.616 52.3151 359.081 53.2292C358.557 54.1321 357.838 54.8399 356.924 55.3527C356.01 55.8654 355.007 56.1218 353.914 56.1218ZM353.914 54.0318C354.616 54.0318 355.235 53.8757 355.77 53.5636C356.305 53.2403 356.723 52.7833 357.024 52.1925C357.325 51.6017 357.476 50.9162 357.476 50.1359C357.476 49.3556 357.325 48.6757 357.024 48.096C356.723 47.5052 356.305 47.0538 355.77 46.7417C355.235 46.4296 354.616 46.2735 353.914 46.2735C353.212 46.2735 352.588 46.4296 352.042 46.7417C351.506 47.0538 351.088 47.5052 350.788 48.096C350.487 48.6757 350.336 49.3556 350.336 50.1359C350.336 50.9162 350.487 51.6017 350.788 52.1925C351.088 52.7833 351.506 53.2403 352.042 53.5636C352.588 53.8757 353.212 54.0318 353.914 54.0318ZM365.655 56.1218C364.841 56.1218 364.105 55.9825 363.448 55.7038C362.801 55.4251 362.288 55.0238 361.909 54.4999C361.53 53.976 361.335 53.3574 361.324 52.644H363.832C363.866 53.1233 364.033 53.5023 364.334 53.781C364.646 54.0596 365.069 54.199 365.605 54.199C366.151 54.199 366.58 54.0708 366.892 53.8144C367.204 53.5469 367.36 53.2013 367.36 52.7777C367.36 52.4322 367.254 52.1479 367.043 51.925C366.831 51.7021 366.563 51.5293 366.24 51.4067C365.928 51.2729 365.493 51.128 364.936 50.9719C364.178 50.749 363.559 50.5316 363.08 50.3198C362.612 50.0969 362.205 49.7681 361.859 49.3333C361.525 48.8875 361.358 48.2967 361.358 47.561C361.358 46.8699 361.53 46.2679 361.876 45.7552C362.221 45.2424 362.706 44.8523 363.331 44.5848C363.955 44.3061 364.668 44.1667 365.471 44.1667C366.675 44.1667 367.65 44.4621 368.397 45.0529C369.155 45.6326 369.573 46.4463 369.651 47.4941H367.076C367.054 47.0928 366.881 46.764 366.558 46.5076C366.245 46.2401 365.827 46.1063 365.304 46.1063C364.847 46.1063 364.479 46.2234 364.2 46.4574C363.933 46.6915 363.799 47.0315 363.799 47.4774C363.799 47.7895 363.899 48.0514 364.1 48.2632C364.312 48.4639 364.568 48.6311 364.869 48.7648C365.181 48.8875 365.616 49.0324 366.173 49.1996C366.931 49.4225 367.55 49.6455 368.029 49.8684C368.508 50.0913 368.921 50.4257 369.266 50.8716C369.612 51.3175 369.785 51.9027 369.785 52.6273C369.785 53.2515 369.623 53.8311 369.3 54.3662C368.976 54.9012 368.503 55.3304 367.879 55.6536C367.254 55.9658 366.513 56.1218 365.655 56.1218Z" fill="#533D86"/>
<path d="M369.915 5.37915H250.085C229.308 5.37915 212.464 22.2226 212.464 43C212.464 63.7774 229.308 80.6209 250.085 80.6209H369.915C390.692 80.6209 407.536 63.7774 407.536 43C407.536 22.2226 390.692 5.37915 369.915 5.37915Z" stroke="#E4E4E4" stroke-width="0.92891"/>
</g>
</g>
<defs>
<clipPath id="clip0_3538_1573">
<rect width="196" height="86" fill="white"/>
</clipPath>
<clipPath id="clip1_3538_1573">
<rect width="196" height="82" fill="white" transform="translate(0 2)"/>
</clipPath>
<clipPath id="clip2_3538_1573">
<rect width="196" height="86" fill="white" transform="translate(212)"/>
</clipPath>
<clipPath id="clip3_3538_1573">
<rect width="196" height="76.1706" fill="white" transform="translate(212 4.91479)"/>
</clipPath>
</defs>
</svg>
