<svg width="56" height="56" viewBox="0 0 56 56" fill="none" xmlns="http://www.w3.org/2000/svg">
<path d="M32.591 24.72C33.7986 24.72 34.7776 23.741 34.7776 22.5333C34.7776 21.3257 33.7986 20.3467 32.591 20.3467C31.3833 20.3467 30.4043 21.3257 30.4043 22.5333C30.4043 23.741 31.3833 24.72 32.591 24.72Z" stroke="#424242" stroke-miterlimit="10" stroke-linecap="round" stroke-linejoin="round"/>
<path d="M22.742 24.72C23.9497 24.72 24.9287 23.741 24.9287 22.5333C24.9287 21.3257 23.9497 20.3467 22.742 20.3467C21.5344 20.3467 20.5554 21.3257 20.5554 22.5333C20.5554 23.741 21.5344 24.72 22.742 24.72Z" stroke="#533D86" stroke-miterlimit="10" stroke-linecap="round" stroke-linejoin="round"/>
<path d="M32.591 35.6534C33.7986 35.6534 34.7776 34.6744 34.7776 33.4667C34.7776 32.259 33.7986 31.28 32.591 31.28C31.3833 31.28 30.4043 32.259 30.4043 33.4667C30.4043 34.6744 31.3833 35.6534 32.591 35.6534Z" stroke="#533D86" stroke-miterlimit="10" stroke-linecap="round" stroke-linejoin="round"/>
<path d="M22.742 35.6534C23.9497 35.6534 24.9287 34.6744 24.9287 33.4667C24.9287 32.259 23.9497 31.28 22.742 31.28C21.5344 31.28 20.5554 32.259 20.5554 33.4667C20.5554 34.6744 21.5344 35.6534 22.742 35.6534Z" stroke="#424242" stroke-miterlimit="10" stroke-linecap="round" stroke-linejoin="round"/>
<rect x="0.333333" y="0.333333" width="55.3333" height="55.3333" rx="27.6667" stroke="#533D86" stroke-width="0.666667"/>
</svg>
