<svg width="49" height="49" viewBox="0 0 49 49" fill="none" xmlns="http://www.w3.org/2000/svg">
<path d="M21.436 34.8271H27.436C32.436 34.8271 34.436 32.8271 34.436 27.8271V21.8271C34.436 16.8271 32.436 14.8271 27.436 14.8271H21.436C16.436 14.8271 14.436 16.8271 14.436 21.8271V27.8271C14.436 32.8271 16.436 34.8271 21.436 34.8271Z" stroke="#E4E4E4" stroke-width="1.5" stroke-linecap="round" stroke-linejoin="round"/>
<path d="M27.1523 25.5604L27.1524 25.5605C27.2907 25.8902 27.2958 26.3398 27.2958 26.7549V30.3381C27.2958 30.4869 27.4155 30.6085 27.565 30.6085H29.9665C30.116 30.6085 30.2357 30.4869 30.2357 30.3381V26.298C30.2357 25.272 30.1176 24.3395 29.661 23.6497C29.1911 22.9396 28.3877 22.5205 27.0826 22.5205C26.5088 22.5205 26.0139 22.6548 25.614 22.8656C25.3956 22.9796 25.206 23.1136 25.044 23.2605V22.7909C25.044 22.6421 24.9243 22.5205 24.7747 22.5205H22.5705V22.5132H22.4705C22.321 22.5132 22.2013 22.6349 22.2013 22.7837V30.3345C22.2013 30.4833 22.321 30.6049 22.4705 30.6049H24.872C25.0215 30.6049 25.1412 30.4833 25.1412 30.3345V26.6896C25.1412 26.2373 25.1854 25.8156 25.3578 25.5217L25.3579 25.5216C25.4374 25.386 25.5464 25.2749 25.6977 25.1968C25.8499 25.1183 26.0503 25.0706 26.3157 25.0706C26.5656 25.0706 26.7443 25.1253 26.8738 25.2102C27.0032 25.2949 27.0917 25.4151 27.1523 25.5604ZM24.8899 25.254L24.8899 25.254C24.6526 25.6626 24.5991 26.186 24.5991 26.6969V30.0713H22.7397V23.0614H24.5019V23.9805C24.5019 24.1293 24.6216 24.251 24.7711 24.251H24.8035C24.9076 24.251 24.9932 24.1924 25.0381 24.1133L25.0385 24.1127C25.1907 23.8401 25.4642 23.5527 25.8579 23.3475L25.8585 23.3471C26.1856 23.1737 26.5943 23.0614 27.079 23.0614C28.2096 23.0614 28.8488 23.4051 29.2097 23.9522C29.5847 24.5204 29.6936 25.3426 29.6936 26.3016V30.0713H27.8306V26.7585C27.8306 26.3203 27.8284 25.7916 27.6465 25.3564C27.5491 25.1218 27.4032 24.9138 27.1836 24.7653C26.9638 24.6168 26.6786 24.5333 26.3121 24.5333C25.9518 24.5333 25.6593 24.6029 25.424 24.7298C25.1881 24.8569 25.0151 25.0386 24.8899 25.254ZM20.6297 21.7734C20.9067 21.4943 21.0764 21.1139 21.0764 20.6911C21.0764 20.2681 20.903 19.8841 20.6297 19.6088C20.3527 19.3297 19.9747 19.1585 19.5542 19.1585C19.1336 19.1585 18.752 19.3335 18.4788 19.6088C18.2017 19.8878 18.0321 20.2683 18.0321 20.6911C18.0321 21.1141 18.2055 21.4981 18.4788 21.7734C18.7558 22.0524 19.1338 22.2236 19.5542 22.2236C19.9748 22.2236 20.3564 22.0487 20.6297 21.7734ZM20.5379 20.6911C20.5379 20.9645 20.4268 21.2115 20.2501 21.3895C20.0735 21.5675 19.8286 21.6791 19.5578 21.6791C19.2871 21.6791 19.0422 21.5675 18.8655 21.3895C18.6888 21.2115 18.5777 20.9645 18.5777 20.6911C18.5777 20.4177 18.6888 20.1707 18.8655 19.9927C19.0422 19.8147 19.2871 19.7031 19.5578 19.7031C19.8286 19.7031 20.0735 19.8147 20.2501 19.9927C20.4268 20.1707 20.5379 20.4177 20.5379 20.6911ZM20.8071 22.5169H18.3085C18.159 22.5169 18.0393 22.6385 18.0393 22.7873V30.3381C18.0393 30.4869 18.159 30.6085 18.3085 30.6085H20.8071C20.9567 30.6085 21.0764 30.4869 21.0764 30.3381V22.7873C21.0764 22.6385 20.9567 22.5169 20.8071 22.5169ZM18.5777 30.0676V23.0578H20.5379V30.0676H18.5777Z" fill="#E4E4E4" stroke="#E4E4E4" stroke-width="0.2"/>
<rect x="1.32715" y="1.32715" width="47" height="47" rx="23.5" stroke="#E4E4E4"/>
</svg>
