<svg width="74" height="74" viewBox="0 0 74 74" fill="none" xmlns="http://www.w3.org/2000/svg">
<rect width="74" height="74" rx="16" fill="#533D86"/>
<path d="M48.232 24.872L41.944 33.032C44.28 33.704 46.136 34.888 47.512 36.584C48.92 38.28 49.624 40.296 49.624 42.632C49.624 46.088 48.456 48.792 46.12 50.744C43.848 52.696 41.016 53.672 37.624 53.672C34.968 53.672 32.616 53.064 30.568 51.848C28.52 50.6 27.032 48.84 26.104 46.568L31.768 43.304C32.568 45.896 34.52 47.192 37.624 47.192C39.32 47.192 40.632 46.792 41.56 45.992C42.52 45.16 43 44.04 43 42.632C43 41.256 42.52 40.152 41.56 39.32C40.632 38.488 39.32 38.072 37.624 38.072H36.184L33.64 34.232L40.264 25.592H27.112V19.4H48.232V24.872Z" fill="white"/>
</svg>
