<svg width="48" height="49" viewBox="0 0 48 49" fill="none" xmlns="http://www.w3.org/2000/svg">
<path d="M19.8312 34.4823C17.2176 34.4823 14.676 33.7383 12.48 32.3295C12.276 32.1975 12.1872 31.9431 12.2688 31.7127C12.3504 31.4823 12.5832 31.3359 12.8232 31.3719C14.664 31.5855 16.5864 31.2111 18.1992 30.2895C16.6056 29.8095 15.3072 28.5759 14.784 26.9391C14.7264 26.7615 14.7672 26.5695 14.892 26.4327C14.9664 26.3487 15.0672 26.2935 15.1752 26.2695C13.9296 25.3167 13.1424 23.8191 13.1424 22.1751C13.1424 21.9903 13.2408 21.7911 13.4016 21.6951C13.5624 21.6015 13.7592 21.5727 13.92 21.6591C13.9656 21.6855 14.0136 21.7095 14.0592 21.7335C13.4928 20.8983 13.1808 19.8975 13.1808 18.8559C13.1808 17.9511 13.4208 17.0583 13.8768 16.2759C13.9632 16.1271 14.1168 16.0311 14.2872 16.0167C14.4576 16.0047 14.6232 16.0743 14.7336 16.2063C16.848 18.8007 19.9104 20.4471 23.2128 20.7855C23.1984 20.6271 23.1912 20.4663 23.1912 20.3079C23.1912 17.4783 25.4952 15.1743 28.3248 15.1743C29.64 15.1743 30.912 15.6831 31.86 16.5831C32.7336 16.3839 33.5688 16.0479 34.3512 15.5847C34.5384 15.4767 34.7736 15.4911 34.944 15.6255C35.1144 15.7623 35.1816 15.9879 35.1168 16.1943C34.9512 16.7151 34.704 17.1999 34.3872 17.6367C34.6056 17.5623 34.8168 17.4759 35.028 17.3847C35.2392 17.2887 35.4912 17.3463 35.64 17.5263C35.7888 17.7039 35.8032 17.9607 35.6736 18.1527C35.0664 19.0575 34.3248 19.8471 33.4704 20.5023C33.4728 20.6151 33.4752 20.7303 33.4752 20.8431C33.4752 27.5463 28.3704 34.4823 19.8312 34.4823ZM14.8872 32.4231C16.4424 33.0903 18.12 33.4359 19.8336 33.4359C27.7176 33.4359 32.4312 27.0327 32.4312 20.8383C32.4312 20.6463 32.4264 20.4543 32.4192 20.2623C32.412 20.0871 32.4936 19.9191 32.6352 19.8159C33.012 19.5447 33.3648 19.2447 33.6912 18.9183C33.3504 18.9975 33.0048 19.0575 32.6544 19.0983C32.412 19.1319 32.1768 18.9831 32.0976 18.7479C32.0184 18.5151 32.112 18.2583 32.3232 18.1311C32.7384 17.8815 33.1032 17.5647 33.4008 17.1975C32.88 17.3967 32.3424 17.5527 31.7928 17.6607C31.6176 17.6967 31.4352 17.6391 31.3104 17.5071C30.54 16.6863 29.4528 16.2159 28.3248 16.2159C26.0712 16.2159 24.2376 18.0495 24.2376 20.3031C24.2376 20.6151 24.2736 20.9295 24.3432 21.2367C24.3792 21.3951 24.3408 21.5631 24.2352 21.6903C24.1296 21.8151 23.9736 21.9015 23.808 21.8775C20.2392 21.6975 16.8768 20.1111 14.4624 17.4879C14.3088 17.9247 14.2272 18.3879 14.2272 18.8535C14.2272 20.2263 14.9064 21.4959 16.044 22.2567C16.2384 22.3863 16.3224 22.6287 16.2528 22.8495C16.1808 23.0703 15.96 23.2047 15.7392 23.2143C15.24 23.1975 14.7456 23.1087 14.2728 22.9503C14.5968 24.5703 15.8424 25.8543 17.4672 26.1807C17.7048 26.2287 17.88 26.4327 17.8872 26.6751C17.8944 26.9175 17.736 27.1335 17.5032 27.1983C17.052 27.3207 16.5792 27.3903 16.116 27.3807C16.8168 28.6191 18.132 29.4255 19.6008 29.4543C19.8216 29.4591 20.016 29.6031 20.0856 29.8119C20.1552 30.0207 20.0856 30.2535 19.9128 30.3903C18.4416 31.5447 16.7208 32.2359 14.8872 32.4231Z" fill="#E4E4E4"/>
<rect x="0.5" y="1.32715" width="47" height="47" rx="23.5" stroke="#E4E4E4"/>
</svg>
