<svg width="49" height="49" viewBox="0 0 49 49" fill="none" xmlns="http://www.w3.org/2000/svg">
<path d="M21.4358 34.8271H27.4358C32.4358 34.8271 34.4358 32.8271 34.4358 27.8271V21.8271C34.4358 16.8271 32.4358 14.8271 27.4358 14.8271H21.4358C16.4358 14.8271 14.4358 16.8271 14.4358 21.8271V27.8271C14.4358 32.8271 16.4358 34.8271 21.4358 34.8271Z" stroke="#E4E4E4" stroke-width="1.5" stroke-linecap="round" stroke-linejoin="round"/>
<path d="M24.4358 28.3271C26.3688 28.3271 27.9358 26.7601 27.9358 24.8271C27.9358 22.8942 26.3688 21.3271 24.4358 21.3271C22.5028 21.3271 20.9358 22.8942 20.9358 24.8271C20.9358 26.7601 22.5028 28.3271 24.4358 28.3271Z" stroke="#E4E4E4" stroke-width="1.5" stroke-linecap="round" stroke-linejoin="round"/>
<path d="M30.0719 19.8271H30.0835" stroke="#E4E4E4" stroke-width="2" stroke-linecap="round" stroke-linejoin="round"/>
<rect x="0.718018" y="1.32715" width="47" height="47" rx="23.5" stroke="#E4E4E4"/>
</svg>
