<svg width="49" height="49" viewBox="0 0 49 49" fill="none" xmlns="http://www.w3.org/2000/svg">
<path d="M26.609 22.1271V25.0271H29.209C29.409 25.0271 29.509 25.2271 29.509 25.4271L29.109 27.3271C29.109 27.4271 28.909 27.5271 28.809 27.5271H26.609V34.8271H23.609V27.6271H21.909C21.709 27.6271 21.609 27.5271 21.609 27.3271V25.4271C21.609 25.2271 21.709 25.1271 21.909 25.1271H23.609V21.8271C23.609 20.1271 24.909 18.8271 26.609 18.8271H29.309C29.509 18.8271 29.609 18.9271 29.609 19.1271V21.5271C29.609 21.7271 29.509 21.8271 29.309 21.8271H26.909C26.709 21.8271 26.609 21.9271 26.609 22.1271Z" stroke="#E4E4E4" stroke-width="1.5" stroke-miterlimit="10" stroke-linecap="round"/>
<path d="M27.609 34.8271H21.609C16.609 34.8271 14.609 32.8271 14.609 27.8271V21.8271C14.609 16.8271 16.609 14.8271 21.609 14.8271H27.609C32.609 14.8271 34.609 16.8271 34.609 21.8271V27.8271C34.609 32.8271 32.609 34.8271 27.609 34.8271Z" stroke="#E4E4E4" stroke-width="1.5" stroke-linecap="round" stroke-linejoin="round"/>
<rect x="1.10901" y="1.32715" width="47" height="47" rx="23.5" stroke="#E4E4E4"/>
</svg>
