<svg width="49" height="49" viewBox="0 0 49 49" fill="none" xmlns="http://www.w3.org/2000/svg">
<path d="M18.9455 33.4271C20.4455 34.3271 22.2455 34.8271 24.0455 34.8271C29.5455 34.8271 34.0455 30.3271 34.0455 24.8271C34.0455 19.3271 29.5455 14.8271 24.0455 14.8271C18.5455 14.8271 14.0455 19.3271 14.0455 24.8271C14.0455 26.6271 14.5455 28.3271 15.3455 29.8271L14.486 33.1331C14.2913 33.8821 14.9845 34.5589 15.7285 34.3463L18.9455 33.4271Z" stroke="#E4E4E4" stroke-width="1.5" stroke-miterlimit="10" stroke-linecap="round" stroke-linejoin="round"/>
<path d="M28.5455 27.6756C28.5455 27.8376 28.5095 28.0041 28.4329 28.1661C28.3562 28.3281 28.2571 28.4811 28.1264 28.6251C27.9056 28.8681 27.6622 29.0436 27.3873 29.1561C27.1169 29.2686 26.824 29.3271 26.5085 29.3271C26.0488 29.3271 25.5576 29.2191 25.0393 28.9986C24.521 28.7781 24.0027 28.4811 23.4889 28.1076C22.9707 27.7296 22.4794 27.3111 22.0107 26.8476C21.5465 26.3796 21.1274 25.8891 20.7533 25.3761C20.3838 24.8631 20.0863 24.3501 19.87 23.8416C19.6537 23.3286 19.5455 22.8381 19.5455 22.3701C19.5455 22.0641 19.5996 21.7716 19.7078 21.5016C19.8159 21.2271 19.9872 20.9751 20.2261 20.7501C20.5145 20.4666 20.83 20.3271 21.1635 20.3271C21.2896 20.3271 21.4158 20.3541 21.5285 20.4081C21.6457 20.4621 21.7493 20.5431 21.8305 20.6601L22.876 22.1316C22.9571 22.2441 23.0157 22.3476 23.0563 22.4466C23.0969 22.5411 23.1194 22.6356 23.1194 22.7211C23.1194 22.8291 23.0878 22.9371 23.0248 23.0406C22.9662 23.1441 22.8805 23.2521 22.7724 23.3601L22.4299 23.7156C22.3803 23.7651 22.3578 23.8236 22.3578 23.8956C22.3578 23.9316 22.3623 23.9631 22.3713 23.9991C22.3848 24.0351 22.3983 24.0621 22.4073 24.0891C22.4884 24.2376 22.6282 24.4311 22.8265 24.6651C23.0293 24.8991 23.2456 25.1376 23.4799 25.3761C23.7233 25.6146 23.9577 25.8351 24.1965 26.0376C24.4309 26.2356 24.6247 26.3706 24.7779 26.4516C24.8004 26.4606 24.8275 26.4741 24.859 26.4876C24.8951 26.5011 24.9311 26.5056 24.9717 26.5056C25.0483 26.5056 25.1069 26.4786 25.1564 26.4291L25.499 26.0916C25.6116 25.9791 25.7198 25.8936 25.8234 25.8396C25.9271 25.7766 26.0308 25.7451 26.1434 25.7451C26.2291 25.7451 26.3192 25.7631 26.4183 25.8036C26.5175 25.8441 26.6211 25.9026 26.7338 25.9791L28.2256 27.0366C28.3427 27.1176 28.4238 27.2121 28.4734 27.3246C28.5185 27.4371 28.5455 27.5496 28.5455 27.6756Z" stroke="#E4E4E4" stroke-width="1.5" stroke-miterlimit="10"/>
<rect x="0.936157" y="1.32715" width="47" height="47" rx="23.5" stroke="#E4E4E4"/>
</svg>
