<svg width="74" height="74" viewBox="0 0 74 74" fill="none" xmlns="http://www.w3.org/2000/svg">
<rect width="74" height="74" rx="16" fill="#533D86"/>
<path d="M49.5833 49.3334C49.5833 49.4658 49.4657 49.5834 49.3333 49.5834H24.6666C24.5342 49.5834 24.4166 49.4658 24.4166 49.3334C24.4166 49.2009 24.5342 49.0834 24.6666 49.0834H49.3333C49.4657 49.0834 49.5833 49.2009 49.5833 49.3334Z" fill="#FAFAFA" stroke="#FAFAFA" stroke-width="1.5"/>
<path d="M25.7768 40.823L25.5561 40.5967H25.5545C24.1984 39.0132 24.2688 36.6319 25.757 35.1437L35.2903 25.6104C36.8641 24.0366 39.4026 24.0366 40.9763 25.6104L40.983 25.617L40.9898 25.6235C41.2229 25.8453 41.2329 26.2532 40.9897 26.4964L26.6697 40.8164C26.4122 41.0738 26.0123 41.0643 25.7768 40.823Z" fill="#FAFAFA" stroke="#FAFAFA" stroke-width="1.5"/>
<path d="M36.9325 46.5149L36.9303 46.517C36.2985 47.1489 35.2846 47.1342 34.6535 46.5273L34.6482 46.5222L34.643 46.517C34.0111 45.8852 34.0258 44.8714 34.6327 44.2402L34.6378 44.2349L34.643 44.2297L36.2696 42.6031C36.7066 42.1661 37.3472 42.0453 37.9034 42.2209C37.7252 41.6644 37.859 41.0309 38.286 40.5869L38.2911 40.5816L38.2963 40.5764L41.563 37.3097C42.1817 36.691 43.2085 36.7062 43.826 37.299L43.8369 37.3094L43.8473 37.3202C44.4538 37.951 44.4688 38.9641 43.838 39.596L43.837 39.597M36.9325 46.5149L43.3066 39.0667L43.837 39.597M36.9325 46.5149L38.5404 44.8936C38.9904 44.4557 39.1145 43.8051 38.933 43.2428C39.4886 43.4214 40.1242 43.3049 40.5727 42.8744L40.5788 42.8686L40.5847 42.8626L43.837 39.597M36.9325 46.5149L43.837 39.597M48.2296 32.8504L48.2315 32.8523C49.8158 34.4253 49.8158 36.9727 48.2201 38.546L48.2201 38.546L48.2159 38.5501L38.6982 48.0812C38.6979 48.0815 38.6976 48.0817 38.6973 48.082C37.1234 49.6437 34.5836 49.6438 33.0096 48.0824C33.0092 48.082 33.0088 48.0816 33.0084 48.0812L28.9445 44.0039L28.9436 44.0031C28.6862 43.7456 28.6957 43.3457 28.937 43.1102L28.9371 43.1103L28.9436 43.1037L43.2636 28.7837L43.2637 28.7838L43.2701 28.7771C43.5056 28.5358 43.9055 28.5263 44.163 28.7837L48.2296 32.8504Z" fill="#FAFAFA" stroke="#FAFAFA" stroke-width="1.5"/>
</svg>
