<svg width="74" height="74" viewBox="0 0 74 74" fill="none" xmlns="http://www.w3.org/2000/svg">
<rect width="74" height="74" rx="16" fill="#533D86"/>
<path d="M49.76 52H27.296V47.056L38.768 35.248C41.328 32.528 42.608 30.288 42.608 28.528C42.608 27.216 42.192 26.16 41.36 25.36C40.56 24.56 39.52 24.16 38.24 24.16C35.68 24.16 33.808 25.472 32.624 28.096L27.056 24.832C28.08 22.56 29.568 20.816 31.52 19.6C33.504 18.352 35.712 17.728 38.144 17.728C41.184 17.728 43.792 18.688 45.968 20.608C48.144 22.496 49.232 25.056 49.232 28.288C49.232 31.776 47.392 35.36 43.712 39.04L37.136 45.616H49.76V52Z" fill="white"/>
</svg>
