<svg width="74" height="74" viewBox="0 0 74 74" fill="none" xmlns="http://www.w3.org/2000/svg">
<rect width="74" height="74" rx="16" fill="#533D86"/>
<path d="M33.5961 25.9251L30.0099 28.012C30.0619 26.8088 30.4217 25.958 30.9798 25.3975C31.5839 24.7909 32.5275 24.4166 33.8933 24.4166H40.1067C41.4724 24.4166 42.4161 24.7909 43.0202 25.3975C43.5767 25.9564 43.936 26.8039 43.9897 28.0016L40.4025 25.9243L40.4003 25.923C38.3832 24.7639 35.6042 24.7625 33.5975 25.9242L33.5961 25.9251Z" fill="#FAFAFA" stroke="#FAFAFA" stroke-width="1.5"/>
<path d="M44.2269 32.1839L44.2454 32.1945L44.2646 32.2041L44.4072 32.2754C45.61 33.0899 46.072 33.4678 46.3044 33.873C46.5265 34.2604 46.5833 34.7533 46.5833 36.0533V42.0799C46.5833 43.3909 46.5294 43.883 46.3139 44.264C46.0897 44.6602 45.6415 45.0255 44.443 45.8298L38.6513 49.1773L38.6497 49.1782C38.2169 49.4299 37.6214 49.5699 37 49.5699C36.3554 49.5699 35.7824 49.4394 35.3614 49.1848L35.3547 49.1807L35.3479 49.1768L29.6112 45.8703C28.3946 45.0471 27.9291 44.6674 27.6956 44.2602C27.4735 43.8728 27.4167 43.3799 27.4167 42.0799V36.0533C27.4167 34.7528 27.4733 34.2583 27.6908 33.8748C27.9162 33.4772 28.3633 33.1098 29.5391 32.3156L29.7354 32.2174L29.7582 32.206L29.7803 32.1931L31.5903 31.1283L35.3469 28.9703L35.3469 28.9703L35.3503 28.9683C35.7872 28.7143 36.3778 28.5699 37 28.5699C37.6222 28.5699 38.2128 28.7143 38.6497 28.9683L38.6513 28.9693L42.4113 31.1426L42.4135 31.1439L44.2269 32.1839ZM40.4555 40.5336C40.4617 40.5151 40.4682 40.5008 40.473 40.492L40.4755 40.4892L40.4885 40.4732L41.2979 39.478C41.6711 39.0329 41.8564 38.4527 41.6669 37.8808C41.4785 37.3119 40.9862 36.9541 40.4309 36.808L40.4274 36.8071L39.2104 36.493C39.2082 36.492 39.2052 36.4905 39.2014 36.4886C39.1872 36.4811 39.1691 36.47 39.15 36.4558C39.1308 36.4416 39.1157 36.4281 39.1058 36.4179C39.1034 36.4154 39.1017 36.4135 39.1005 36.4122L39.0955 36.4045L38.4022 35.3379L38.4022 35.3379L38.3993 35.3335C38.086 34.8587 37.598 34.4966 36.995 34.4966C36.3902 34.4966 35.9041 34.8607 35.5966 35.3398L34.9096 36.3967C34.9081 36.3986 34.903 36.4051 34.8932 36.4152C34.8797 36.4292 34.8624 36.4449 34.8434 36.4596C34.8241 36.4744 34.8078 36.4847 34.797 36.4905C34.7962 36.4909 34.7954 36.4913 34.7948 36.4917L33.5726 36.8071L33.5726 36.8071L33.5691 36.808C33.0137 36.9541 32.5215 37.3119 32.333 37.8808C32.1429 38.4547 32.3302 39.037 32.7059 39.4826C32.7063 39.483 32.7066 39.4834 32.707 39.4838L33.5318 40.4683L33.5402 40.4783C33.5449 40.4871 33.5516 40.5016 33.5579 40.5202C33.5643 40.5393 33.5683 40.5565 33.5702 40.5687C33.5706 40.5709 33.5708 40.5726 33.571 40.574L33.4917 41.8425C33.4917 41.8433 33.4916 41.844 33.4916 41.8447C33.4533 42.4173 33.635 42.9997 34.1215 43.3564C34.6093 43.7141 35.2204 43.7109 35.7563 43.4972C35.757 43.4969 35.7578 43.4966 35.7585 43.4963L36.9171 43.0407C36.9203 43.0401 36.9253 43.0391 36.9322 43.0381C36.9519 43.0353 36.9777 43.0333 37.0067 43.0333C37.0356 43.0333 37.0614 43.0353 37.0811 43.0381C37.087 43.039 37.0915 43.0398 37.0948 43.0404L38.2521 43.5086L38.2589 43.5113L38.2658 43.5139C38.7967 43.7167 39.4032 43.7195 39.8889 43.3669C40.3774 43.0123 40.5601 42.432 40.5218 41.8581C40.5217 41.8574 40.5217 41.8566 40.5216 41.8559L40.4423 40.5873C40.4425 40.586 40.4427 40.5842 40.4431 40.5821C40.445 40.5698 40.449 40.5527 40.4555 40.5336Z" fill="#FAFAFA" stroke="#FAFAFA" stroke-width="1.5"/>
</svg>
