<svg width="74" height="74" viewBox="0 0 74 74" fill="none" xmlns="http://www.w3.org/2000/svg">
<rect width="74" height="74" rx="16" fill="#533D86"/>
<path d="M27.23 27.9211L27.2308 27.9207L34.6575 24.8807L34.6595 24.8799C36.1562 24.2622 37.8172 24.2622 39.3139 24.8799L39.3139 24.8799L39.3171 24.8812L44.716 27.0808C44.7162 27.0809 44.7164 27.0809 44.7166 27.081C45.0995 27.2381 45.1978 27.7416 44.9097 28.0296L29.2564 43.683C28.9983 43.9411 28.5627 43.9053 28.3509 43.601C26.775 41.3 25.8567 38.5931 25.8567 35.8266V29.9733C25.8567 29.6057 26.0005 29.165 26.2701 28.7619C26.5397 28.3588 26.891 28.0593 27.23 27.9211Z" fill="#FAFAFA" stroke="#FAFAFA" stroke-width="1.5"/>
<path d="M47.1772 30.9597L47.1778 30.9592C47.5456 30.648 48.13 30.9035 48.13 31.4133V35.8267C48.13 41.997 43.6341 47.8163 37.4814 49.5168C37.1744 49.6002 36.8313 49.602 36.5039 49.5164C34.7057 49.009 33.0355 48.1603 31.6075 47.0483L31.6046 47.046C31.3174 46.8246 31.2927 46.414 31.5363 46.1643C34.4546 43.1791 42.9314 34.5442 47.1772 30.9597Z" fill="#FAFAFA" stroke="#FAFAFA" stroke-width="1.5"/>
</svg>
