<svg width="283" height="89" viewBox="0 0 283 89" fill="none" xmlns="http://www.w3.org/2000/svg">
<path d="M1.2642 22.218V7.67256H10.8949V10.2081H4.33949V13.674H10.2557V16.2095H4.33949V22.218H1.2642ZM17.0348 22.4311C15.9316 22.4311 14.9775 22.1967 14.1726 21.728C13.3724 21.2545 12.7545 20.5963 12.3189 19.7535C11.8833 18.906 11.6655 17.9235 11.6655 16.8061C11.6655 15.6792 11.8833 14.6943 12.3189 13.8515C12.7545 13.004 13.3724 12.3459 14.1726 11.8771C14.9775 11.4036 15.9316 11.1669 17.0348 11.1669C18.138 11.1669 19.0897 11.4036 19.8899 11.8771C20.6948 12.3459 21.3151 13.004 21.7507 13.8515C22.1863 14.6943 22.4041 15.6792 22.4041 16.8061C22.4041 17.9235 22.1863 18.906 21.7507 19.7535C21.3151 20.5963 20.6948 21.2545 19.8899 21.728C19.0897 22.1967 18.138 22.4311 17.0348 22.4311ZM17.049 20.0873C17.5509 20.0873 17.9699 19.9453 18.3061 19.6612C18.6423 19.3724 18.8956 18.9794 19.0661 18.4822C19.2412 17.9851 19.3288 17.4192 19.3288 16.7848C19.3288 16.1503 19.2412 15.5845 19.0661 15.0873C18.8956 14.5902 18.6423 14.1972 18.3061 13.9084C17.9699 13.6195 17.5509 13.4751 17.049 13.4751C16.5424 13.4751 16.1162 13.6195 15.7706 13.9084C15.4297 14.1972 15.1716 14.5902 14.9964 15.0873C14.826 15.5845 14.7408 16.1503 14.7408 16.7848C14.7408 17.4192 14.826 17.9851 14.9964 18.4822C15.1716 18.9794 15.4297 19.3724 15.7706 19.6612C16.1162 19.9453 16.5424 20.0873 17.049 20.0873ZM27.397 7.67256V22.218H24.3714V7.67256H27.397ZM32.8462 7.67256V22.218H29.8207V7.67256H32.8462ZM40.1989 22.4311C39.0956 22.4311 38.1416 22.1967 37.3366 21.728C36.5365 21.2545 35.9186 20.5963 35.483 19.7535C35.0473 18.906 34.8295 17.9235 34.8295 16.8061C34.8295 15.6792 35.0473 14.6943 35.483 13.8515C35.9186 13.004 36.5365 12.3459 37.3366 11.8771C38.1416 11.4036 39.0956 11.1669 40.1989 11.1669C41.3021 11.1669 42.2538 11.4036 43.054 11.8771C43.8589 12.3459 44.4792 13.004 44.9148 13.8515C45.3504 14.6943 45.5682 15.6792 45.5682 16.8061C45.5682 17.9235 45.3504 18.906 44.9148 19.7535C44.4792 20.5963 43.8589 21.2545 43.054 21.728C42.2538 22.1967 41.3021 22.4311 40.1989 22.4311ZM40.2131 20.0873C40.715 20.0873 41.134 19.9453 41.4702 19.6612C41.8063 19.3724 42.0597 18.9794 42.2301 18.4822C42.4053 17.9851 42.4929 17.4192 42.4929 16.7848C42.4929 16.1503 42.4053 15.5845 42.2301 15.0873C42.0597 14.5902 41.8063 14.1972 41.4702 13.9084C41.134 13.6195 40.715 13.4751 40.2131 13.4751C39.7064 13.4751 39.2803 13.6195 38.9347 13.9084C38.5938 14.1972 38.3357 14.5902 38.1605 15.0873C37.9901 15.5845 37.9048 16.1503 37.9048 16.7848C37.9048 17.4192 37.9901 17.9851 38.1605 18.4822C38.3357 18.9794 38.5938 19.3724 38.9347 19.6612C39.2803 19.9453 39.7064 20.0873 40.2131 20.0873ZM49.4141 22.218L46.4453 11.3089H49.5064L51.1967 18.6385H51.2962L53.0575 11.3089H56.0618L57.8516 18.5959H57.9439L59.6058 11.3089H62.6598L59.6982 22.218H56.495L54.62 15.3572H54.4851L52.6101 22.218H49.4141ZM75.8984 17.5731V11.3089H78.924V22.218H76.0192V20.2365H75.9055C75.6593 20.8757 75.2498 21.3894 74.6768 21.7777C74.1087 22.1659 73.415 22.3601 72.5959 22.3601C71.8667 22.3601 71.2251 22.1943 70.6712 21.8629C70.1172 21.5315 69.6839 21.0603 69.3714 20.4496C69.0637 19.8388 68.9074 19.1072 68.9027 18.2549V11.3089H71.9283V17.7152C71.933 18.3591 72.1058 18.8681 72.4467 19.2422C72.7876 19.6162 73.2446 19.8032 73.8175 19.8032C74.1821 19.8032 74.523 19.7204 74.8402 19.5547C75.1574 19.3842 75.4131 19.1333 75.6072 18.8018C75.8061 18.4704 75.9032 18.0608 75.8984 17.5731ZM90.4208 14.4197L87.6509 14.5902C87.6036 14.3534 87.5018 14.1404 87.3455 13.951C87.1893 13.7568 86.9833 13.603 86.7276 13.4893C86.4767 13.371 86.176 13.3118 85.8256 13.3118C85.3569 13.3118 84.9615 13.4112 84.6396 13.6101C84.3176 13.8042 84.1566 14.0646 84.1566 14.3913C84.1566 14.6517 84.2608 14.8719 84.4691 15.0518C84.6774 15.2317 85.0349 15.3762 85.5415 15.4851L87.516 15.8828C88.5766 16.1006 89.3673 16.451 89.8881 16.9339C90.409 17.4169 90.6694 18.0514 90.6694 18.8373C90.6694 19.5523 90.4587 20.1797 90.0373 20.7194C89.6206 21.2592 89.0477 21.6806 88.3185 21.9836C87.5941 22.2819 86.7584 22.4311 85.8114 22.4311C84.3673 22.4311 83.2167 22.1304 82.3597 21.5291C81.5075 20.923 81.0079 20.0992 80.8612 19.0575L83.837 18.9013C83.927 19.3416 84.1448 19.6778 84.4904 19.9098C84.8361 20.1371 85.2788 20.2507 85.8185 20.2507C86.3488 20.2507 86.775 20.1489 87.0969 19.9453C87.4237 19.737 87.5894 19.4694 87.5941 19.1427C87.5894 18.8681 87.4734 18.6432 87.2461 18.468C87.0188 18.2881 86.6684 18.1508 86.195 18.0561L84.3058 17.6797C83.2404 17.4666 82.4473 17.0973 81.9265 16.5717C81.4104 16.0461 81.1523 15.3762 81.1523 14.5618C81.1523 13.861 81.3417 13.2573 81.7205 12.7507C82.104 12.2441 82.6415 11.8534 83.3327 11.5788C84.0288 11.3042 84.8432 11.1669 85.7759 11.1669C87.1538 11.1669 88.238 11.4581 89.0288 12.0405C89.8242 12.6228 90.2882 13.4159 90.4208 14.4197Z" fill="#E4E4E4"/>
<path d="M19.8312 74.4823C17.2176 74.4823 14.676 73.7383 12.48 72.3295C12.276 72.1975 12.1872 71.9431 12.2688 71.7127C12.3504 71.4823 12.5832 71.3359 12.8232 71.3719C14.664 71.5855 16.5864 71.2111 18.1992 70.2895C16.6056 69.8095 15.3072 68.5759 14.784 66.9391C14.7264 66.7615 14.7672 66.5695 14.892 66.4327C14.9664 66.3487 15.0672 66.2935 15.1752 66.2695C13.9296 65.3167 13.1424 63.8191 13.1424 62.1751C13.1424 61.9903 13.2408 61.7911 13.4016 61.6951C13.5624 61.6015 13.7592 61.5727 13.92 61.6591C13.9656 61.6855 14.0136 61.7095 14.0592 61.7335C13.4928 60.8983 13.1808 59.8975 13.1808 58.8559C13.1808 57.9511 13.4208 57.0583 13.8768 56.2759C13.9632 56.1271 14.1168 56.0311 14.2872 56.0167C14.4576 56.0047 14.6232 56.0743 14.7336 56.2063C16.848 58.8007 19.9104 60.4471 23.2128 60.7855C23.1984 60.6271 23.1912 60.4663 23.1912 60.3079C23.1912 57.4783 25.4952 55.1743 28.3248 55.1743C29.64 55.1743 30.912 55.6831 31.86 56.5831C32.7336 56.3839 33.5688 56.0479 34.3512 55.5847C34.5384 55.4767 34.7736 55.4911 34.944 55.6255C35.1144 55.7623 35.1816 55.9879 35.1168 56.1943C34.9512 56.7151 34.704 57.1999 34.3872 57.6367C34.6056 57.5623 34.8168 57.4759 35.028 57.3847C35.2392 57.2887 35.4912 57.3463 35.64 57.5263C35.7888 57.7039 35.8032 57.9607 35.6736 58.1527C35.0664 59.0575 34.3248 59.8471 33.4704 60.5023C33.4728 60.6151 33.4752 60.7303 33.4752 60.8431C33.4752 67.5463 28.3704 74.4823 19.8312 74.4823ZM14.8872 72.4231C16.4424 73.0903 18.12 73.4359 19.8336 73.4359C27.7176 73.4359 32.4312 67.0327 32.4312 60.8383C32.4312 60.6463 32.4264 60.4543 32.4192 60.2623C32.412 60.0871 32.4936 59.9191 32.6352 59.8159C33.012 59.5447 33.3648 59.2447 33.6912 58.9183C33.3504 58.9975 33.0048 59.0575 32.6544 59.0983C32.412 59.1319 32.1768 58.9831 32.0976 58.7479C32.0184 58.5151 32.112 58.2583 32.3232 58.1311C32.7384 57.8815 33.1032 57.5647 33.4008 57.1975C32.88 57.3967 32.3424 57.5527 31.7928 57.6607C31.6176 57.6967 31.4352 57.6391 31.3104 57.5071C30.54 56.6863 29.4528 56.2159 28.3248 56.2159C26.0712 56.2159 24.2376 58.0495 24.2376 60.3031C24.2376 60.6151 24.2736 60.9295 24.3432 61.2367C24.3792 61.3951 24.3408 61.5631 24.2352 61.6903C24.1296 61.8151 23.9736 61.9015 23.808 61.8775C20.2392 61.6975 16.8768 60.1111 14.4624 57.4879C14.3088 57.9247 14.2272 58.3879 14.2272 58.8535C14.2272 60.2263 14.9064 61.4959 16.044 62.2567C16.2384 62.3863 16.3224 62.6287 16.2528 62.8495C16.1808 63.0703 15.96 63.2047 15.7392 63.2143C15.24 63.1975 14.7456 63.1087 14.2728 62.9503C14.5968 64.5703 15.8424 65.8543 17.4672 66.1807C17.7048 66.2287 17.88 66.4327 17.8872 66.6751C17.8944 66.9175 17.736 67.1335 17.5032 67.1983C17.052 67.3207 16.5792 67.3903 16.116 67.3807C16.8168 68.6191 18.132 69.4255 19.6008 69.4543C19.8216 69.4591 20.016 69.6031 20.0856 69.8119C20.1552 70.0207 20.0856 70.2535 19.9128 70.3903C18.4416 71.5447 16.7208 72.2359 14.8872 72.4231Z" fill="#E4E4E4"/>
<rect x="0.5" y="41.3271" width="47" height="47" rx="23.5" stroke="#E4E4E4"/>
<path d="M84.609 62.1271V65.0271H87.209C87.409 65.0271 87.509 65.2271 87.509 65.4271L87.109 67.3271C87.109 67.4271 86.909 67.5271 86.809 67.5271H84.609V74.8271H81.609V67.6271H79.909C79.709 67.6271 79.609 67.5271 79.609 67.3271V65.4271C79.609 65.2271 79.709 65.1271 79.909 65.1271H81.609V61.8271C81.609 60.1271 82.909 58.8271 84.609 58.8271H87.309C87.509 58.8271 87.609 58.9271 87.609 59.1271V61.5271C87.609 61.7271 87.509 61.8271 87.309 61.8271H84.909C84.709 61.8271 84.609 61.9271 84.609 62.1271Z" stroke="#E4E4E4" stroke-width="1.5" stroke-miterlimit="10" stroke-linecap="round"/>
<path d="M85.609 74.8271H79.609C74.609 74.8271 72.609 72.8271 72.609 67.8271V61.8271C72.609 56.8271 74.609 54.8271 79.609 54.8271H85.609C90.609 54.8271 92.609 56.8271 92.609 61.8271V67.8271C92.609 72.8271 90.609 74.8271 85.609 74.8271Z" stroke="#E4E4E4" stroke-width="1.5" stroke-linecap="round" stroke-linejoin="round"/>
<rect x="59.109" y="41.3271" width="47" height="47" rx="23.5" stroke="#E4E4E4"/>
<path d="M138.436 74.8271H144.436C149.436 74.8271 151.436 72.8271 151.436 67.8271V61.8271C151.436 56.8271 149.436 54.8271 144.436 54.8271H138.436C133.436 54.8271 131.436 56.8271 131.436 61.8271V67.8271C131.436 72.8271 133.436 74.8271 138.436 74.8271Z" stroke="#E4E4E4" stroke-width="1.5" stroke-linecap="round" stroke-linejoin="round"/>
<path d="M141.436 68.3271C143.369 68.3271 144.936 66.7601 144.936 64.8271C144.936 62.8942 143.369 61.3271 141.436 61.3271C139.503 61.3271 137.936 62.8942 137.936 64.8271C137.936 66.7601 139.503 68.3271 141.436 68.3271Z" stroke="#E4E4E4" stroke-width="1.5" stroke-linecap="round" stroke-linejoin="round"/>
<path d="M147.072 59.8271H147.083" stroke="#E4E4E4" stroke-width="2" stroke-linecap="round" stroke-linejoin="round"/>
<rect x="117.718" y="41.3271" width="47" height="47" rx="23.5" stroke="#E4E4E4"/>
<path d="M196.436 74.8271H202.436C207.436 74.8271 209.436 72.8271 209.436 67.8271V61.8271C209.436 56.8271 207.436 54.8271 202.436 54.8271H196.436C191.436 54.8271 189.436 56.8271 189.436 61.8271V67.8271C189.436 72.8271 191.436 74.8271 196.436 74.8271Z" stroke="#E4E4E4" stroke-width="1.5" stroke-linecap="round" stroke-linejoin="round"/>
<path d="M202.152 65.5604L202.152 65.5605C202.291 65.8902 202.296 66.3398 202.296 66.7549V70.3381C202.296 70.4869 202.415 70.6085 202.565 70.6085H204.966C205.116 70.6085 205.236 70.4869 205.236 70.3381V66.298C205.236 65.272 205.118 64.3395 204.661 63.6497C204.191 62.9396 203.388 62.5205 202.083 62.5205C201.509 62.5205 201.014 62.6548 200.614 62.8656C200.396 62.9796 200.206 63.1136 200.044 63.2605V62.7909C200.044 62.6421 199.924 62.5205 199.775 62.5205H197.571V62.5132H197.471C197.321 62.5132 197.201 62.6349 197.201 62.7837V70.3345C197.201 70.4833 197.321 70.6049 197.471 70.6049H199.872C200.021 70.6049 200.141 70.4833 200.141 70.3345V66.6896C200.141 66.2373 200.185 65.8156 200.358 65.5217L200.358 65.5216C200.437 65.386 200.546 65.2749 200.698 65.1968C200.85 65.1183 201.05 65.0706 201.316 65.0706C201.566 65.0706 201.744 65.1253 201.874 65.2102C202.003 65.2949 202.092 65.4151 202.152 65.5604ZM199.89 65.254L199.89 65.254C199.653 65.6626 199.599 66.186 199.599 66.6969V70.0713H197.74V63.0614H199.502V63.9805C199.502 64.1293 199.622 64.251 199.771 64.251H199.804C199.908 64.251 199.993 64.1924 200.038 64.1133L200.038 64.1127C200.191 63.8401 200.464 63.5527 200.858 63.3475L200.858 63.3471C201.186 63.1737 201.594 63.0614 202.079 63.0614C203.21 63.0614 203.849 63.4051 204.21 63.9522C204.585 64.5204 204.694 65.3426 204.694 66.3016V70.0713H202.831V66.7585C202.831 66.3203 202.828 65.7916 202.647 65.3564C202.549 65.1218 202.403 64.9138 202.184 64.7653C201.964 64.6168 201.679 64.5333 201.312 64.5333C200.952 64.5333 200.659 64.6029 200.424 64.7298C200.188 64.8569 200.015 65.0386 199.89 65.254ZM195.63 61.7734C195.907 61.4943 196.076 61.1139 196.076 60.6911C196.076 60.2681 195.903 59.8841 195.63 59.6088C195.353 59.3297 194.975 59.1585 194.554 59.1585C194.134 59.1585 193.752 59.3335 193.479 59.6088C193.202 59.8878 193.032 60.2683 193.032 60.6911C193.032 61.1141 193.205 61.4981 193.479 61.7734C193.756 62.0524 194.134 62.2236 194.554 62.2236C194.975 62.2236 195.356 62.0487 195.63 61.7734ZM195.538 60.6911C195.538 60.9645 195.427 61.2115 195.25 61.3895C195.073 61.5675 194.829 61.6791 194.558 61.6791C194.287 61.6791 194.042 61.5675 193.866 61.3895C193.689 61.2115 193.578 60.9645 193.578 60.6911C193.578 60.4177 193.689 60.1707 193.866 59.9927C194.042 59.8147 194.287 59.7031 194.558 59.7031C194.829 59.7031 195.073 59.8147 195.25 59.9927C195.427 60.1707 195.538 60.4177 195.538 60.6911ZM195.807 62.5169H193.308C193.159 62.5169 193.039 62.6385 193.039 62.7873V70.3381C193.039 70.4869 193.159 70.6085 193.308 70.6085H195.807C195.957 70.6085 196.076 70.4869 196.076 70.3381V62.7873C196.076 62.6385 195.957 62.5169 195.807 62.5169ZM193.578 70.0676V63.0578H195.538V70.0676H193.578Z" fill="#E4E4E4" stroke="#E4E4E4" stroke-width="0.2"/>
<rect x="176.327" y="41.3271" width="47" height="47" rx="23.5" stroke="#E4E4E4"/>
<path d="M252.946 73.4271C254.446 74.3271 256.246 74.8271 258.046 74.8271C263.546 74.8271 268.046 70.3271 268.046 64.8271C268.046 59.3271 263.546 54.8271 258.046 54.8271C252.546 54.8271 248.046 59.3271 248.046 64.8271C248.046 66.6271 248.546 68.3271 249.346 69.8271L248.486 73.1331C248.291 73.8821 248.984 74.5589 249.729 74.3463L252.946 73.4271Z" stroke="#E4E4E4" stroke-width="1.5" stroke-miterlimit="10" stroke-linecap="round" stroke-linejoin="round"/>
<path d="M262.546 67.6756C262.546 67.8376 262.509 68.0041 262.433 68.1661C262.356 68.3281 262.257 68.4811 262.126 68.6251C261.906 68.8681 261.662 69.0436 261.387 69.1561C261.117 69.2686 260.824 69.3271 260.508 69.3271C260.049 69.3271 259.558 69.2191 259.039 68.9986C258.521 68.7781 258.003 68.4811 257.489 68.1076C256.971 67.7296 256.479 67.3111 256.011 66.8476C255.547 66.3796 255.127 65.8891 254.753 65.3761C254.384 64.8631 254.086 64.3501 253.87 63.8416C253.654 63.3286 253.546 62.8381 253.546 62.3701C253.546 62.0641 253.6 61.7716 253.708 61.5016C253.816 61.2271 253.987 60.9751 254.226 60.7501C254.514 60.4666 254.83 60.3271 255.163 60.3271C255.29 60.3271 255.416 60.3541 255.529 60.4081C255.646 60.4621 255.749 60.5431 255.83 60.6601L256.876 62.1316C256.957 62.2441 257.016 62.3476 257.056 62.4466C257.097 62.5411 257.119 62.6356 257.119 62.7211C257.119 62.8291 257.088 62.9371 257.025 63.0406C256.966 63.1441 256.881 63.2521 256.772 63.3601L256.43 63.7156C256.38 63.7651 256.358 63.8236 256.358 63.8956C256.358 63.9316 256.362 63.9631 256.371 63.9991C256.385 64.0351 256.398 64.0621 256.407 64.0891C256.488 64.2376 256.628 64.4311 256.826 64.6651C257.029 64.8991 257.246 65.1376 257.48 65.3761C257.723 65.6146 257.958 65.8351 258.197 66.0376C258.431 66.2356 258.625 66.3706 258.778 66.4516C258.8 66.4606 258.827 66.4741 258.859 66.4876C258.895 66.5011 258.931 66.5056 258.972 66.5056C259.048 66.5056 259.107 66.4786 259.156 66.4291L259.499 66.0916C259.612 65.9791 259.72 65.8936 259.823 65.8396C259.927 65.7766 260.031 65.7451 260.143 65.7451C260.229 65.7451 260.319 65.7631 260.418 65.8036C260.517 65.8441 260.621 65.9026 260.734 65.9791L262.226 67.0366C262.343 67.1176 262.424 67.2121 262.473 67.3246C262.518 67.4371 262.546 67.5496 262.546 67.6756Z" stroke="#E4E4E4" stroke-width="1.5" stroke-miterlimit="10"/>
<rect x="234.936" y="41.3271" width="47" height="47" rx="23.5" stroke="#E4E4E4"/>
</svg>
