<svg width="74" height="74" viewBox="0 0 74 74" fill="none" xmlns="http://www.w3.org/2000/svg">
<rect width="74" height="74" rx="16" fill="#533D86"/>
<path d="M26.1899 38.76C26.1899 32.8008 31.0408 27.95 36.9999 27.95C42.9579 27.95 47.8099 32.813 47.8099 38.7733C47.8099 44.7324 42.9591 49.5833 36.9999 49.5833C31.0419 49.5833 26.1899 44.7202 26.1899 38.76ZM36.9999 40.0833C37.9608 40.0833 38.7499 39.2942 38.7499 38.3333V31.6666C38.7499 30.7057 37.9608 29.9166 36.9999 29.9166C36.0391 29.9166 35.2499 30.7057 35.2499 31.6666V38.3333C35.2499 39.2942 36.0391 40.0833 36.9999 40.0833Z" fill="#FAFAFA" stroke="#FAFAFA" stroke-width="1.5"/>
<path d="M40.8533 24.85H33.1466C33.0275 24.85 32.9366 24.7591 32.9366 24.64C32.9366 24.5073 33.0409 24.4166 33.1466 24.4166H40.8533C40.9724 24.4166 41.0633 24.5075 41.0633 24.6266C41.0633 24.7593 40.959 24.85 40.8533 24.85Z" fill="#FAFAFA" stroke="#FAFAFA" stroke-width="1.5"/>
</svg>
