<svg width="196" height="189" viewBox="0 0 196 189" fill="none" xmlns="http://www.w3.org/2000/svg">
<g clip-path="url(#clip0_691_30702)">
<g clip-path="url(#clip1_691_30702)">
<path d="M42.9998 48.2253V57.2185C42.9998 58.0469 43.6713 58.7185 44.4998 58.7185H71.4998C72.3282 58.7185 72.9998 58.0469 72.9998 57.2185V48.2256C72.9998 47.3982 72.3304 46.727 71.503 46.7259C64.0455 46.7161 51.3229 46.716 44.4935 46.7257C43.6662 46.7269 42.9998 47.398 42.9998 48.2253Z" fill="#E4E4E4"/>
<path fill-rule="evenodd" clip-rule="evenodd" d="M47.5745 31.3052C47.0143 30.7135 47.0143 29.7542 47.5745 29.1625C48.1347 28.5708 49.0429 28.5708 49.6031 29.1625L51.5014 31.1675C53.5131 30.137 55.7348 29.5681 58.0002 29.5681C60.2663 29.5681 62.4878 30.1367 64.499 31.1666L66.3964 29.1625C66.9566 28.5708 67.8649 28.5708 68.4251 29.1625C68.9853 29.7542 68.9853 30.7135 68.4251 31.3052L67.0215 32.7878C70.2629 35.3459 72.5797 39.2561 72.9947 43.8861C73.0687 44.7113 72.3899 45.3853 71.5615 45.3853H44.4378C43.6094 45.3853 42.9305 44.7113 43.0046 43.8862C43.4199 39.2568 45.7377 35.347 48.9791 32.7889L47.5745 31.3052ZM51.2039 38.6049C50.509 38.6049 49.9477 38.129 49.9477 37.3545C49.9477 36.5827 50.509 36.0373 51.2039 36.0373C51.8918 36.0373 52.453 36.5826 52.453 37.3545C52.453 38.129 51.8918 38.6049 51.2039 38.6049ZM64.8232 38.6268C64.1306 38.6268 63.5694 38.129 63.5694 37.3545C63.5694 36.5827 64.1306 36.0622 64.8232 36.0622C65.5179 36.0622 66.0746 36.5826 66.0746 37.3545C66.0746 38.129 65.5181 38.6268 64.8232 38.6268Z" fill="#E4E4E4"/>
<path d="M85.87 26.7284C86.6433 26.7284 87.3067 26.8684 87.86 27.1484C88.4133 27.4284 88.8367 27.8317 89.13 28.3584C89.4233 28.8851 89.57 29.5117 89.57 30.2384C89.57 30.9584 89.4233 31.5817 89.13 32.1084C88.8367 32.6284 88.4133 33.0284 87.86 33.3084C87.3067 33.5817 86.6433 33.7184 85.87 33.7184H83.8V26.7284H85.87ZM85.87 33.1384C86.8433 33.1384 87.5833 32.8851 88.09 32.3784C88.6033 31.8651 88.86 31.1517 88.86 30.2384C88.86 29.3184 88.6033 28.6017 88.09 28.0884C87.5833 27.5684 86.8433 27.3084 85.87 27.3084H84.5V33.1384H85.87ZM93.2505 33.7984C92.7372 33.7984 92.2739 33.6851 91.8605 33.4584C91.4539 33.2251 91.1305 32.8984 90.8905 32.4784C90.6572 32.0517 90.5405 31.5551 90.5405 30.9884C90.5405 30.4217 90.6605 29.9284 90.9005 29.5084C91.1405 29.0817 91.4672 28.7551 91.8805 28.5284C92.2939 28.2951 92.7572 28.1784 93.2705 28.1784C93.7839 28.1784 94.2472 28.2951 94.6605 28.5284C95.0805 28.7551 95.4072 29.0817 95.6405 29.5084C95.8805 29.9284 96.0005 30.4217 96.0005 30.9884C96.0005 31.5484 95.8805 32.0417 95.6405 32.4684C95.4005 32.8951 95.0705 33.2251 94.6505 33.4584C94.2305 33.6851 93.7639 33.7984 93.2505 33.7984ZM93.2505 33.1884C93.6105 33.1884 93.9439 33.1084 94.2505 32.9484C94.5572 32.7817 94.8039 32.5351 94.9905 32.2084C95.1839 31.8751 95.2805 31.4684 95.2805 30.9884C95.2805 30.5084 95.1872 30.1051 95.0005 29.7784C94.8139 29.4451 94.5672 29.1984 94.2605 29.0384C93.9539 28.8717 93.6205 28.7884 93.2605 28.7884C92.9005 28.7884 92.5672 28.8717 92.2605 29.0384C91.9539 29.1984 91.7072 29.4451 91.5205 29.7784C91.3405 30.1051 91.2505 30.5084 91.2505 30.9884C91.2505 31.4684 91.3405 31.8751 91.5205 32.2084C91.7072 32.5351 91.9505 32.7817 92.2505 32.9484C92.5572 33.1084 92.8905 33.1884 93.2505 33.1884ZM104.477 28.2584L102.767 33.7184H102.067L100.557 29.1384L99.0466 33.7184H98.3366L96.6266 28.2584H97.3366L98.6966 33.0084L100.227 28.2584H100.927L102.437 33.0184L103.787 28.2584H104.477ZM107.991 28.1584C108.644 28.1584 109.178 28.3617 109.591 28.7684C110.004 29.1684 110.211 29.7517 110.211 30.5184V33.7184H109.521V30.5984C109.521 30.0051 109.371 29.5517 109.071 29.2384C108.778 28.9251 108.374 28.7684 107.861 28.7684C107.334 28.7684 106.914 28.9351 106.601 29.2684C106.288 29.6017 106.131 30.0917 106.131 30.7384V33.7184H105.431V28.2584H106.131V29.1884C106.304 28.8551 106.554 28.6017 106.881 28.4284C107.208 28.2484 107.578 28.1584 107.991 28.1584ZM112.459 26.3184V33.7184H111.759V26.3184H112.459ZM116.434 33.7984C115.921 33.7984 115.457 33.6851 115.044 33.4584C114.637 33.2251 114.314 32.8984 114.074 32.4784C113.841 32.0517 113.724 31.5551 113.724 30.9884C113.724 30.4217 113.844 29.9284 114.084 29.5084C114.324 29.0817 114.651 28.7551 115.064 28.5284C115.477 28.2951 115.941 28.1784 116.454 28.1784C116.967 28.1784 117.431 28.2951 117.844 28.5284C118.264 28.7551 118.591 29.0817 118.824 29.5084C119.064 29.9284 119.184 30.4217 119.184 30.9884C119.184 31.5484 119.064 32.0417 118.824 32.4684C118.584 32.8951 118.254 33.2251 117.834 33.4584C117.414 33.6851 116.947 33.7984 116.434 33.7984ZM116.434 33.1884C116.794 33.1884 117.127 33.1084 117.434 32.9484C117.741 32.7817 117.987 32.5351 118.174 32.2084C118.367 31.8751 118.464 31.4684 118.464 30.9884C118.464 30.5084 118.371 30.1051 118.184 29.7784C117.997 29.4451 117.751 29.1984 117.444 29.0384C117.137 28.8717 116.804 28.7884 116.444 28.7884C116.084 28.7884 115.751 28.8717 115.444 29.0384C115.137 29.1984 114.891 29.4451 114.704 29.7784C114.524 30.1051 114.434 30.5084 114.434 30.9884C114.434 31.4684 114.524 31.8751 114.704 32.2084C114.891 32.5351 115.134 32.7817 115.434 32.9484C115.741 33.1084 116.074 33.1884 116.434 33.1884ZM120.14 30.9784C120.14 30.4184 120.25 29.9284 120.47 29.5084C120.697 29.0817 121.007 28.7551 121.4 28.5284C121.8 28.2951 122.25 28.1784 122.75 28.1784C123.27 28.1784 123.717 28.2984 124.09 28.5384C124.47 28.7784 124.743 29.0851 124.91 29.4584V28.2584H125.61V33.7184H124.91V32.5084C124.737 32.8817 124.46 33.1917 124.08 33.4384C123.707 33.6784 123.26 33.7984 122.74 33.7984C122.247 33.7984 121.8 33.6817 121.4 33.4484C121.007 33.2151 120.697 32.8851 120.47 32.4584C120.25 32.0317 120.14 31.5384 120.14 30.9784ZM124.91 30.9884C124.91 30.5484 124.82 30.1617 124.64 29.8284C124.46 29.4951 124.213 29.2384 123.9 29.0584C123.593 28.8784 123.253 28.7884 122.88 28.7884C122.493 28.7884 122.147 28.8751 121.84 29.0484C121.533 29.2217 121.29 29.4751 121.11 29.8084C120.937 30.1351 120.85 30.5251 120.85 30.9784C120.85 31.4251 120.937 31.8184 121.11 32.1584C121.29 32.4917 121.533 32.7484 121.84 32.9284C122.147 33.1017 122.493 33.1884 122.88 33.1884C123.253 33.1884 123.593 33.0984 123.9 32.9184C124.213 32.7384 124.46 32.4817 124.64 32.1484C124.82 31.8151 124.91 31.4284 124.91 30.9884ZM126.888 30.9784C126.888 30.4184 127.002 29.9284 127.228 29.5084C127.455 29.0817 127.765 28.7551 128.158 28.5284C128.558 28.2951 129.008 28.1784 129.508 28.1784C129.988 28.1784 130.422 28.2951 130.808 28.5284C131.195 28.7617 131.478 29.0651 131.658 29.4384V26.3184H132.358V33.7184H131.658V32.4984C131.492 32.8784 131.218 33.1917 130.838 33.4384C130.458 33.6784 130.012 33.7984 129.498 33.7984C128.998 33.7984 128.548 33.6817 128.148 33.4484C127.755 33.2151 127.445 32.8851 127.218 32.4584C126.998 32.0317 126.888 31.5384 126.888 30.9784ZM131.658 30.9884C131.658 30.5484 131.568 30.1617 131.388 29.8284C131.208 29.4951 130.962 29.2384 130.648 29.0584C130.342 28.8784 130.002 28.7884 129.628 28.7884C129.242 28.7884 128.895 28.8751 128.588 29.0484C128.282 29.2217 128.038 29.4751 127.858 29.8084C127.685 30.1351 127.598 30.5251 127.598 30.9784C127.598 31.4251 127.685 31.8184 127.858 32.1584C128.038 32.4917 128.282 32.7484 128.588 32.9284C128.895 33.1017 129.242 33.1884 129.628 33.1884C130.002 33.1884 130.342 33.0984 130.648 32.9184C130.962 32.7384 131.208 32.4817 131.388 32.1484C131.568 31.8151 131.658 31.4284 131.658 30.9884ZM139.09 33.7984C138.577 33.7984 138.114 33.6851 137.7 33.4584C137.294 33.2251 136.97 32.8984 136.73 32.4784C136.497 32.0517 136.38 31.5551 136.38 30.9884C136.38 30.4217 136.5 29.9284 136.74 29.5084C136.98 29.0817 137.307 28.7551 137.72 28.5284C138.134 28.2951 138.597 28.1784 139.11 28.1784C139.624 28.1784 140.087 28.2951 140.5 28.5284C140.92 28.7551 141.247 29.0817 141.48 29.5084C141.72 29.9284 141.84 30.4217 141.84 30.9884C141.84 31.5484 141.72 32.0417 141.48 32.4684C141.24 32.8951 140.91 33.2251 140.49 33.4584C140.07 33.6851 139.604 33.7984 139.09 33.7984ZM139.09 33.1884C139.45 33.1884 139.784 33.1084 140.09 32.9484C140.397 32.7817 140.644 32.5351 140.83 32.2084C141.024 31.8751 141.12 31.4684 141.12 30.9884C141.12 30.5084 141.027 30.1051 140.84 29.7784C140.654 29.4451 140.407 29.1984 140.1 29.0384C139.794 28.8717 139.46 28.7884 139.1 28.7884C138.74 28.7884 138.407 28.8717 138.1 29.0384C137.794 29.1984 137.547 29.4451 137.36 29.7784C137.18 30.1051 137.09 30.5084 137.09 30.9884C137.09 31.4684 137.18 31.8751 137.36 32.2084C137.547 32.5351 137.79 32.7817 138.09 32.9484C138.397 33.1084 138.73 33.1884 139.09 33.1884ZM145.676 28.1584C146.33 28.1584 146.863 28.3617 147.276 28.7684C147.69 29.1684 147.896 29.7517 147.896 30.5184V33.7184H147.206V30.5984C147.206 30.0051 147.056 29.5517 146.756 29.2384C146.463 28.9251 146.06 28.7684 145.546 28.7684C145.02 28.7684 144.6 28.9351 144.286 29.2684C143.973 29.6017 143.816 30.0917 143.816 30.7384V33.7184H143.116V28.2584H143.816V29.1884C143.99 28.8551 144.24 28.6017 144.566 28.4284C144.893 28.2484 145.263 28.1584 145.676 28.1584Z" fill="#E4E4E4"/>
<path d="M91.946 55.3242H86.942L86.114 57.7182H83.468L87.986 45.1362H90.92L95.438 57.7182H92.774L91.946 55.3242ZM91.262 53.3082L89.444 48.0522L87.626 53.3082H91.262ZM102.653 47.6022C103.841 47.6022 104.801 47.9802 105.533 48.7362C106.265 49.4802 106.631 50.5242 106.631 51.8682V57.7182H104.111V52.2102C104.111 51.4182 103.913 50.8122 103.517 50.3922C103.121 49.9602 102.581 49.7442 101.897 49.7442C101.201 49.7442 100.649 49.9602 100.241 50.3922C99.8448 50.8122 99.6468 51.4182 99.6468 52.2102V57.7182H97.1268V47.7462H99.6468V48.9882C99.9828 48.5562 100.409 48.2202 100.925 47.9802C101.453 47.7282 102.029 47.6022 102.653 47.6022ZM108.379 52.6962C108.379 51.6882 108.577 50.7942 108.973 50.0142C109.381 49.2342 109.933 48.6342 110.629 48.2142C111.325 47.7942 112.099 47.5842 112.951 47.5842C113.599 47.5842 114.217 47.7282 114.805 48.0162C115.393 48.2922 115.861 48.6642 116.209 49.1322V44.3982H118.765V57.7182H116.209V56.2422C115.897 56.7342 115.459 57.1302 114.895 57.4302C114.331 57.7302 113.677 57.8802 112.933 57.8802C112.093 57.8802 111.325 57.6642 110.629 57.2322C109.933 56.8002 109.381 56.1942 108.973 55.4142C108.577 54.6222 108.379 53.7162 108.379 52.6962ZM116.227 52.7322C116.227 52.1202 116.107 51.5982 115.867 51.1662C115.627 50.7222 115.303 50.3862 114.895 50.1582C114.487 49.9182 114.049 49.7982 113.581 49.7982C113.113 49.7982 112.681 49.9122 112.285 50.1402C111.889 50.3682 111.565 50.7042 111.313 51.1482C111.073 51.5802 110.953 52.0962 110.953 52.6962C110.953 53.2962 111.073 53.8242 111.313 54.2802C111.565 54.7242 111.889 55.0662 112.285 55.3062C112.693 55.5462 113.125 55.6662 113.581 55.6662C114.049 55.6662 114.487 55.5522 114.895 55.3242C115.303 55.0842 115.627 54.7482 115.867 54.3162C116.107 53.8722 116.227 53.3442 116.227 52.7322ZM123.746 49.2942C124.07 48.7662 124.49 48.3522 125.006 48.0522C125.534 47.7522 126.134 47.6022 126.806 47.6022V50.2482H126.14C125.348 50.2482 124.748 50.4342 124.34 50.8062C123.944 51.1782 123.746 51.8262 123.746 52.7502V57.7182H121.226V47.7462H123.746V49.2942ZM132.932 57.8802C131.972 57.8802 131.108 57.6702 130.34 57.2502C129.572 56.8182 128.966 56.2122 128.522 55.4322C128.09 54.6522 127.874 53.7522 127.874 52.7322C127.874 51.7122 128.096 50.8122 128.54 50.0322C128.996 49.2522 129.614 48.6522 130.394 48.2322C131.174 47.8002 132.044 47.5842 133.004 47.5842C133.964 47.5842 134.834 47.8002 135.614 48.2322C136.394 48.6522 137.006 49.2522 137.45 50.0322C137.906 50.8122 138.134 51.7122 138.134 52.7322C138.134 53.7522 137.9 54.6522 137.432 55.4322C136.976 56.2122 136.352 56.8182 135.56 57.2502C134.78 57.6702 133.904 57.8802 132.932 57.8802ZM132.932 55.6842C133.388 55.6842 133.814 55.5762 134.21 55.3602C134.618 55.1322 134.942 54.7962 135.182 54.3522C135.422 53.9082 135.542 53.3682 135.542 52.7322C135.542 51.7842 135.29 51.0582 134.786 50.5542C134.294 50.0382 133.688 49.7802 132.968 49.7802C132.248 49.7802 131.642 50.0382 131.15 50.5542C130.67 51.0582 130.43 51.7842 130.43 52.7322C130.43 53.6802 130.664 54.4122 131.132 54.9282C131.612 55.4322 132.212 55.6842 132.932 55.6842ZM141.26 46.5582C140.816 46.5582 140.444 46.4202 140.144 46.1442C139.856 45.8562 139.712 45.5022 139.712 45.0822C139.712 44.6622 139.856 44.3142 140.144 44.0382C140.444 43.7502 140.816 43.6062 141.26 43.6062C141.704 43.6062 142.07 43.7502 142.358 44.0382C142.658 44.3142 142.808 44.6622 142.808 45.0822C142.808 45.5022 142.658 45.8562 142.358 46.1442C142.07 46.4202 141.704 46.5582 141.26 46.5582ZM142.502 47.7462V57.7182H139.982V47.7462H142.502ZM144.344 52.6962C144.344 51.6882 144.542 50.7942 144.938 50.0142C145.346 49.2342 145.898 48.6342 146.594 48.2142C147.29 47.7942 148.064 47.5842 148.916 47.5842C149.564 47.5842 150.182 47.7282 150.77 48.0162C151.358 48.2922 151.826 48.6642 152.174 49.1322V44.3982H154.73V57.7182H152.174V56.2422C151.862 56.7342 151.424 57.1302 150.86 57.4302C150.296 57.7302 149.642 57.8802 148.898 57.8802C148.058 57.8802 147.29 57.6642 146.594 57.2322C145.898 56.8002 145.346 56.1942 144.938 55.4142C144.542 54.6222 144.344 53.7162 144.344 52.6962ZM152.192 52.7322C152.192 52.1202 152.072 51.5982 151.832 51.1662C151.592 50.7222 151.268 50.3862 150.86 50.1582C150.452 49.9182 150.014 49.7982 149.546 49.7982C149.078 49.7982 148.646 49.9122 148.25 50.1402C147.854 50.3682 147.53 50.7042 147.278 51.1482C147.038 51.5802 146.918 52.0962 146.918 52.6962C146.918 53.2962 147.038 53.8242 147.278 54.2802C147.53 54.7242 147.854 55.0662 148.25 55.3062C148.658 55.5462 149.09 55.6662 149.546 55.6662C150.014 55.6662 150.452 55.5522 150.86 55.3242C151.268 55.0842 151.592 54.7482 151.832 54.3162C152.072 53.8722 152.192 53.3442 152.192 52.7322Z" fill="#E4E4E4"/>
<path d="M155 3.21826H41C18.6325 3.21826 0.5 21.3507 0.5 43.7183C0.5 66.0858 18.6325 84.2183 41 84.2183H155C177.368 84.2183 195.5 66.0858 195.5 43.7183C195.5 21.3507 177.368 3.21826 155 3.21826Z" stroke="#E4E4E4"/>
</g>
</g>
<g clip-path="url(#clip2_691_30702)">
<g clip-path="url(#clip3_691_30702)">
<path fill-rule="evenodd" clip-rule="evenodd" d="M57.9175 136.231C56.9944 137.365 55.4443 138.216 54.2077 138.216C54.0684 138.216 53.929 138.198 53.8419 138.18C53.8246 138.109 53.7896 137.897 53.7896 137.684C53.7896 136.231 54.5038 134.814 55.2876 133.911C56.2803 132.724 57.9349 131.838 59.3109 131.785C59.3457 131.944 59.3631 132.139 59.3631 132.334C59.3631 133.769 58.7536 135.204 57.9175 136.231ZM51.8604 159.124C51.2397 159.395 50.6515 159.652 49.8534 159.652C48.1465 159.652 46.9622 158.057 45.6036 156.109C44.0187 153.805 42.7299 150.245 42.7299 146.879C42.7299 141.457 46.1958 138.587 49.6096 138.587C50.606 138.587 51.5164 138.959 52.3259 139.289C52.9739 139.554 53.5573 139.792 54.0683 139.792C54.5117 139.792 55.0641 139.57 55.708 139.311C56.6073 138.95 57.685 138.517 58.8929 138.517C59.6592 138.517 62.4633 138.587 64.3096 141.28C64.2991 141.289 64.2765 141.304 64.2436 141.326C63.7893 141.631 61.3661 143.258 61.3661 146.595C61.3661 150.723 64.9017 152.193 65.0237 152.229C65.0205 152.237 65.0134 152.259 65.0019 152.295C64.8857 152.661 64.3316 154.406 63.1427 156.179C61.9757 157.88 60.7391 159.616 58.8929 159.616C57.9829 159.616 57.4031 159.355 56.8044 159.086C56.1656 158.798 55.5052 158.5 54.3993 158.5C53.2874 158.5 52.5536 158.821 51.8604 159.124Z" fill="#E4E4E4"/>
<path d="M79.7655 129.936C80.4838 129.936 81.1001 130.066 81.614 130.326C82.128 130.587 82.5213 130.961 82.7937 131.45C83.0662 131.94 83.2025 132.522 83.2025 133.197C83.2025 133.866 83.0662 134.445 82.7937 134.934C82.5213 135.417 82.128 135.788 81.614 136.049C81.1001 136.302 80.4838 136.429 79.7655 136.429H77.8427V129.936H79.7655ZM79.7655 135.891C80.6696 135.891 81.357 135.655 81.8277 135.185C82.3045 134.708 82.5429 134.045 82.5429 133.197C82.5429 132.342 82.3045 131.676 81.8277 131.2C81.357 130.717 80.6696 130.475 79.7655 130.475H78.4929V135.891H79.7655ZM86.6213 136.504C86.1445 136.504 85.7141 136.398 85.3301 136.188C84.9524 135.971 84.652 135.668 84.4291 135.278C84.2124 134.881 84.104 134.42 84.104 133.893C84.104 133.367 84.2154 132.909 84.4384 132.519C84.6613 132.122 84.9648 131.819 85.3487 131.608C85.7327 131.392 86.1631 131.283 86.6399 131.283C87.1168 131.283 87.5472 131.392 87.9311 131.608C88.3212 131.819 88.6247 132.122 88.8414 132.519C89.0643 132.909 89.1758 133.367 89.1758 133.893C89.1758 134.414 89.0643 134.872 88.8414 135.268C88.6185 135.665 88.3119 135.971 87.9218 136.188C87.5316 136.398 87.0982 136.504 86.6213 136.504ZM86.6213 135.937C86.9557 135.937 87.2654 135.863 87.5502 135.714C87.8351 135.559 88.0643 135.33 88.2376 135.027C88.4173 134.717 88.507 134.339 88.507 133.893C88.507 133.448 88.4203 133.073 88.2469 132.769C88.0736 132.46 87.8444 132.231 87.5595 132.082C87.2747 131.927 86.965 131.85 86.6306 131.85C86.2962 131.85 85.9866 131.927 85.7017 132.082C85.4169 132.231 85.1877 132.46 85.0143 132.769C84.8471 133.073 84.7635 133.448 84.7635 133.893C84.7635 134.339 84.8471 134.717 85.0143 135.027C85.1877 135.33 85.4137 135.559 85.6924 135.714C85.9773 135.863 86.2869 135.937 86.6213 135.937ZM97.0497 131.358L95.4613 136.429H94.811L93.4084 132.175L92.0054 136.429H91.3458L89.7574 131.358H90.4169L91.6803 135.77L93.1018 131.358H93.7521L95.1547 135.779L96.4088 131.358H97.0497ZM100.314 131.265C100.92 131.265 101.417 131.453 101.8 131.831C102.184 132.203 102.376 132.745 102.376 133.457V136.429H101.735V133.531C101.735 132.98 101.596 132.559 101.317 132.268C101.045 131.977 100.67 131.831 100.193 131.831C99.7036 131.831 99.3135 131.986 99.0227 132.296C98.732 132.605 98.5861 133.06 98.5861 133.661V136.429H97.9359V131.358H98.5861V132.221C98.7468 131.912 98.9791 131.676 99.2828 131.515C99.5866 131.348 99.9303 131.265 100.314 131.265ZM104.464 129.555V136.429H103.814V129.555H104.464ZM108.157 136.504C107.68 136.504 107.249 136.398 106.866 136.188C106.487 135.971 106.187 135.668 105.964 135.278C105.748 134.881 105.639 134.42 105.639 133.893C105.639 133.367 105.751 132.909 105.974 132.519C106.197 132.122 106.5 131.819 106.884 131.608C107.268 131.392 107.699 131.283 108.175 131.283C108.652 131.283 109.083 131.392 109.466 131.608C109.857 131.819 110.16 132.122 110.377 132.519C110.6 132.909 110.711 133.367 110.711 133.893C110.711 134.414 110.6 134.872 110.377 135.268C110.154 135.665 109.847 135.971 109.457 136.188C109.067 136.398 108.633 136.504 108.157 136.504ZM108.157 135.937C108.491 135.937 108.8 135.863 109.086 135.714C109.371 135.559 109.599 135.33 109.773 135.027C109.952 134.717 110.042 134.339 110.042 133.893C110.042 133.448 109.956 133.073 109.782 132.769C109.609 132.46 109.38 132.231 109.095 132.082C108.81 131.927 108.5 131.85 108.166 131.85C107.832 131.85 107.522 131.927 107.237 132.082C106.952 132.231 106.723 132.46 106.55 132.769C106.382 133.073 106.299 133.448 106.299 133.893C106.299 134.339 106.382 134.717 106.55 135.027C106.723 135.33 106.949 135.559 107.228 135.714C107.513 135.863 107.822 135.937 108.157 135.937ZM111.599 133.884C111.599 133.364 111.701 132.909 111.906 132.519C112.117 132.122 112.405 131.819 112.77 131.608C113.141 131.392 113.559 131.283 114.024 131.283C114.507 131.283 114.922 131.395 115.268 131.618C115.621 131.841 115.875 132.125 116.03 132.472V131.358H116.68V136.429H116.03V135.305C115.869 135.652 115.612 135.94 115.259 136.169C114.913 136.392 114.497 136.504 114.014 136.504C113.556 136.504 113.141 136.395 112.77 136.179C112.405 135.962 112.117 135.655 111.906 135.259C111.701 134.863 111.599 134.404 111.599 133.884ZM116.03 133.893C116.03 133.485 115.947 133.125 115.779 132.816C115.612 132.506 115.383 132.268 115.092 132.101C114.807 131.933 114.491 131.85 114.144 131.85C113.785 131.85 113.464 131.93 113.178 132.091C112.893 132.252 112.667 132.488 112.5 132.797C112.34 133.101 112.259 133.463 112.259 133.884C112.259 134.299 112.34 134.664 112.5 134.98C112.667 135.29 112.893 135.528 113.178 135.696C113.464 135.856 113.785 135.937 114.144 135.937C114.491 135.937 114.807 135.853 115.092 135.686C115.383 135.519 115.612 135.281 115.779 134.971C115.947 134.661 116.03 134.302 116.03 133.893ZM117.868 133.884C117.868 133.364 117.973 132.909 118.183 132.519C118.394 132.122 118.682 131.819 119.047 131.608C119.419 131.392 119.837 131.283 120.301 131.283C120.747 131.283 121.15 131.392 121.509 131.608C121.868 131.825 122.131 132.107 122.298 132.454V129.555H122.949V136.429H122.298V135.296C122.144 135.649 121.89 135.94 121.537 136.169C121.184 136.392 120.769 136.504 120.292 136.504C119.828 136.504 119.41 136.395 119.038 136.179C118.673 135.962 118.385 135.655 118.174 135.259C117.97 134.863 117.868 134.404 117.868 133.884ZM122.298 133.893C122.298 133.485 122.215 133.125 122.048 132.816C121.88 132.506 121.652 132.268 121.36 132.101C121.076 131.933 120.76 131.85 120.413 131.85C120.054 131.85 119.732 131.93 119.447 132.091C119.162 132.252 118.936 132.488 118.769 132.797C118.608 133.101 118.527 133.463 118.527 133.884C118.527 134.299 118.608 134.664 118.769 134.98C118.936 135.29 119.162 135.528 119.447 135.696C119.732 135.856 120.054 135.937 120.413 135.937C120.76 135.937 121.076 135.853 121.36 135.686C121.652 135.519 121.88 135.281 122.048 134.971C122.215 134.661 122.298 134.302 122.298 133.893ZM129.202 136.504C128.726 136.504 128.295 136.398 127.911 136.188C127.534 135.971 127.233 135.668 127.01 135.278C126.793 134.881 126.685 134.42 126.685 133.893C126.685 133.367 126.796 132.909 127.019 132.519C127.242 132.122 127.546 131.819 127.929 131.608C128.314 131.392 128.744 131.283 129.221 131.283C129.698 131.283 130.128 131.392 130.512 131.608C130.902 131.819 131.206 132.122 131.422 132.519C131.645 132.909 131.757 133.367 131.757 133.893C131.757 134.414 131.645 134.872 131.422 135.268C131.199 135.665 130.893 135.971 130.503 136.188C130.112 136.398 129.68 136.504 129.202 136.504ZM129.202 135.937C129.536 135.937 129.847 135.863 130.131 135.714C130.416 135.559 130.646 135.33 130.818 135.027C130.999 134.717 131.088 134.339 131.088 133.893C131.088 133.448 131.001 133.073 130.828 132.769C130.655 132.46 130.425 132.231 130.14 132.082C129.856 131.927 129.546 131.85 129.211 131.85C128.877 131.85 128.568 131.927 128.282 132.082C127.998 132.231 127.769 132.46 127.595 132.769C127.428 133.073 127.344 133.448 127.344 133.893C127.344 134.339 127.428 134.717 127.595 135.027C127.769 135.33 127.994 135.559 128.273 135.714C128.558 135.863 128.868 135.937 129.202 135.937ZM135.32 131.265C135.927 131.265 136.422 131.453 136.806 131.831C137.191 132.203 137.382 132.745 137.382 133.457V136.429H136.741V133.531C136.741 132.98 136.602 132.559 136.323 132.268C136.051 131.977 135.677 131.831 135.199 131.831C134.711 131.831 134.32 131.986 134.029 132.296C133.738 132.605 133.592 133.06 133.592 133.661V136.429H132.942V131.358H133.592V132.221C133.754 131.912 133.986 131.676 134.289 131.515C134.593 131.348 134.936 131.265 135.32 131.265Z" fill="#E4E4E4"/>
<path d="M85.4096 156.499H80.7613L79.9921 158.723H77.5343L81.7311 147.035H84.4565L88.6533 158.723H86.1787L85.4096 156.499ZM84.7742 154.627L83.0854 149.744L81.3967 154.627H84.7742ZM92.5629 150.798C92.8639 150.374 93.2765 150.023 93.8004 149.744C94.3354 149.454 94.943 149.309 95.6229 149.309C96.4144 149.309 97.1278 149.505 97.7631 149.895C98.4096 150.285 98.9168 150.842 99.2847 151.567C99.6637 152.28 99.8532 153.111 99.8532 154.058C99.8532 155.006 99.6637 155.847 99.2847 156.583C98.9168 157.307 98.4096 157.87 97.7631 158.272C97.1278 158.673 96.4144 158.874 95.6229 158.874C94.943 158.874 94.341 158.734 93.8171 158.456C93.3044 158.177 92.8862 157.826 92.5629 157.402V163.137H90.222V149.46H92.5629V150.798ZM97.4622 154.058C97.4622 153.501 97.3451 153.021 97.111 152.62C96.8881 152.208 96.5871 151.896 96.2081 151.684C95.8403 151.472 95.439 151.366 95.0043 151.366C94.5807 151.366 94.1794 151.478 93.8004 151.7C93.4325 151.912 93.1316 152.224 92.8975 152.637C92.6744 153.049 92.5629 153.534 92.5629 154.091C92.5629 154.649 92.6744 155.134 92.8975 155.546C93.1316 155.959 93.4325 156.276 93.8004 156.499C94.1794 156.711 94.5807 156.817 95.0043 156.817C95.439 156.817 95.8403 156.705 96.2081 156.483C96.5871 156.26 96.8881 155.942 97.111 155.529C97.3451 155.117 97.4622 154.627 97.4622 154.058ZM103.895 150.798C104.196 150.374 104.608 150.023 105.132 149.744C105.667 149.454 106.275 149.309 106.955 149.309C107.746 149.309 108.46 149.505 109.095 149.895C109.741 150.285 110.249 150.842 110.616 151.567C110.995 152.28 111.185 153.111 111.185 154.058C111.185 155.006 110.995 155.847 110.616 156.583C110.249 157.307 109.741 157.87 109.095 158.272C108.46 158.673 107.746 158.874 106.955 158.874C106.275 158.874 105.673 158.734 105.149 158.456C104.636 158.177 104.218 157.826 103.895 157.402V163.137H101.554V149.46H103.895V150.798ZM108.794 154.058C108.794 153.501 108.677 153.021 108.443 152.62C108.22 152.208 107.919 151.896 107.54 151.684C107.172 151.472 106.771 151.366 106.336 151.366C105.912 151.366 105.511 151.478 105.132 151.7C104.764 151.912 104.463 152.224 104.229 152.637C104.006 153.049 103.895 153.534 103.895 154.091C103.895 154.649 104.006 155.134 104.229 155.546C104.463 155.959 104.764 156.276 105.132 156.499C105.511 156.711 105.912 156.817 106.336 156.817C106.771 156.817 107.172 156.705 107.54 156.483C107.919 156.26 108.22 155.942 108.443 155.529C108.677 155.117 108.794 154.627 108.794 154.058ZM115.227 146.35V158.723H112.886V146.35H115.227ZM126.151 153.891C126.151 154.225 126.128 154.526 126.084 154.794H119.312C119.368 155.463 119.602 155.986 120.014 156.365C120.427 156.744 120.934 156.934 121.536 156.934C122.405 156.934 123.024 156.561 123.392 155.814H125.917C125.649 156.705 125.136 157.441 124.378 158.021C123.62 158.589 122.69 158.874 121.586 158.874C120.694 158.874 119.892 158.678 119.178 158.288C118.476 157.887 117.924 157.324 117.523 156.6C117.133 155.875 116.938 155.039 116.938 154.091C116.938 153.133 117.133 152.291 117.523 151.567C117.913 150.842 118.459 150.285 119.162 149.895C119.864 149.505 120.672 149.309 121.586 149.309C122.467 149.309 123.252 149.499 123.944 149.878C124.646 150.257 125.186 150.798 125.565 151.5C125.956 152.191 126.151 152.988 126.151 153.891ZM123.726 153.222C123.715 152.62 123.498 152.141 123.074 151.784C122.65 151.416 122.132 151.232 121.519 151.232C120.939 151.232 120.449 151.411 120.048 151.767C119.658 152.113 119.418 152.598 119.329 153.222H123.726ZM133.03 148.356C132.618 148.356 132.272 148.228 131.993 147.972C131.726 147.704 131.592 147.375 131.592 146.985C131.592 146.595 131.726 146.272 131.993 146.016C132.272 145.748 132.618 145.614 133.03 145.614C133.443 145.614 133.783 145.748 134.05 146.016C134.329 146.272 134.468 146.595 134.468 146.985C134.468 147.375 134.329 147.704 134.05 147.972C133.783 148.228 133.443 148.356 133.03 148.356ZM134.184 149.46V158.723H131.843V149.46H134.184ZM141.914 158.84C140.822 158.84 139.819 158.584 138.905 158.071C137.991 157.558 137.266 156.85 136.731 155.947C136.196 155.033 135.928 154.002 135.928 152.854C135.928 151.717 136.196 150.697 136.731 149.794C137.266 148.88 137.991 148.167 138.905 147.654C139.819 147.141 140.822 146.885 141.914 146.885C143.018 146.885 144.021 147.141 144.924 147.654C145.838 148.167 146.557 148.88 147.081 149.794C147.616 150.697 147.883 151.717 147.883 152.854C147.883 154.002 147.616 155.033 147.081 155.947C146.557 156.85 145.838 157.558 144.924 158.071C144.01 158.584 143.007 158.84 141.914 158.84ZM141.914 156.75C142.616 156.75 143.235 156.594 143.77 156.282C144.305 155.959 144.723 155.502 145.024 154.911C145.325 154.32 145.476 153.634 145.476 152.854C145.476 152.074 145.325 151.394 145.024 150.814C144.723 150.224 144.305 149.772 143.77 149.46C143.235 149.148 142.616 148.992 141.914 148.992C141.212 148.992 140.588 149.148 140.042 149.46C139.506 149.772 139.088 150.224 138.788 150.814C138.487 151.394 138.336 152.074 138.336 152.854C138.336 153.634 138.487 154.32 138.788 154.911C139.088 155.502 139.506 155.959 140.042 156.282C140.588 156.594 141.212 156.75 141.914 156.75ZM153.655 158.84C152.841 158.84 152.105 158.701 151.448 158.422C150.801 158.143 150.288 157.742 149.909 157.218C149.53 156.694 149.335 156.076 149.324 155.362H151.832C151.866 155.842 152.033 156.221 152.334 156.499C152.646 156.778 153.069 156.917 153.605 156.917C154.151 156.917 154.58 156.789 154.892 156.533C155.204 156.265 155.36 155.92 155.36 155.496C155.36 155.15 155.254 154.866 155.043 154.643C154.831 154.42 154.563 154.248 154.24 154.125C153.928 153.991 153.493 153.846 152.936 153.69C152.178 153.467 151.559 153.25 151.08 153.038C150.612 152.815 150.205 152.486 149.859 152.052C149.525 151.606 149.358 151.015 149.358 150.279C149.358 149.588 149.53 148.986 149.876 148.473C150.221 147.961 150.706 147.571 151.331 147.303C151.955 147.024 152.668 146.885 153.471 146.885C154.675 146.885 155.65 147.18 156.397 147.771C157.155 148.351 157.573 149.165 157.651 150.212H155.076C155.054 149.811 154.881 149.482 154.558 149.226C154.245 148.958 153.827 148.825 153.304 148.825C152.847 148.825 152.479 148.942 152.2 149.176C151.933 149.41 151.799 149.75 151.799 150.196C151.799 150.508 151.899 150.77 152.1 150.981C152.312 151.182 152.568 151.349 152.869 151.483C153.181 151.606 153.616 151.751 154.173 151.918C154.931 152.141 155.55 152.364 156.029 152.587C156.508 152.81 156.921 153.144 157.266 153.59C157.612 154.036 157.785 154.621 157.785 155.346C157.785 155.97 157.623 156.549 157.3 157.084C156.976 157.619 156.503 158.049 155.879 158.372C155.254 158.684 154.513 158.84 153.655 158.84Z" fill="#E4E4E4"/>
<path d="M157.915 108.097H38.0853C17.3079 108.097 0.464447 124.941 0.464447 145.718C0.464447 166.496 17.3079 183.339 38.0853 183.339H157.915C178.692 183.339 195.536 166.496 195.536 145.718C195.536 124.941 178.692 108.097 157.915 108.097Z" stroke="#E4E4E4" stroke-width="0.92891"/>
</g>
</g>
<defs>
<clipPath id="clip0_691_30702">
<rect width="196" height="86" fill="white" transform="translate(0 0.718262)"/>
</clipPath>
<clipPath id="clip1_691_30702">
<rect width="196" height="82" fill="white" transform="translate(0 2.71826)"/>
</clipPath>
<clipPath id="clip2_691_30702">
<rect width="196" height="86" fill="white" transform="translate(0 102.718)"/>
</clipPath>
<clipPath id="clip3_691_30702">
<rect width="196" height="76.1706" fill="white" transform="translate(0 107.633)"/>
</clipPath>
</defs>
</svg>
