<svg width="30" height="17" viewBox="0 0 30 17" fill="none" xmlns="http://www.w3.org/2000/svg">
<path fill-rule="evenodd" clip-rule="evenodd" d="M4.5745 2.58696C4.0143 1.99526 4.0143 1.03596 4.5745 0.444263C5.1347 -0.147437 6.0429 -0.147437 6.6031 0.444263L8.5014 2.44926C10.5131 1.41876 12.7348 0.849863 15.0002 0.849863C17.2663 0.849863 19.4878 1.41846 21.499 2.44836L23.3964 0.444263C23.9566 -0.147437 24.8649 -0.147437 25.4251 0.444263C25.9853 1.03596 25.9853 1.99526 25.4251 2.58696L24.0215 4.06956C27.2629 6.62766 29.5797 10.5379 29.9947 15.1679C30.0687 15.9931 29.3899 16.6671 28.5615 16.6671H1.4378C0.609398 16.6671 -0.069503 15.9931 0.00459699 15.168C0.419897 10.5386 2.7377 6.62876 5.9791 4.07066L4.5745 2.58696ZM8.2039 9.88666C7.509 9.88666 6.9477 9.41076 6.9477 8.63626C6.9477 7.86446 7.509 7.31906 8.2039 7.31906C8.8918 7.31906 9.453 7.86436 9.453 8.63626C9.453 9.41076 8.8918 9.88666 8.2039 9.88666ZM21.8232 9.90856C21.1306 9.90856 20.5694 9.41076 20.5694 8.63626C20.5694 7.86446 21.1306 7.34397 21.8232 7.34397C22.5179 7.34397 23.0746 7.86436 23.0746 8.63626C23.0746 9.41076 22.5181 9.90856 21.8232 9.90856Z" fill="#533D86"/>
</svg>
