<svg width="24" height="28" viewBox="0 0 24 28" fill="none" xmlns="http://www.w3.org/2000/svg">
<path fill-rule="evenodd" clip-rule="evenodd" d="M15.9175 4.5131C14.9944 5.64693 13.4443 6.49734 12.2077 6.49734C12.0684 6.49734 11.929 6.4796 11.8419 6.46186C11.8246 6.39098 11.7896 6.17845 11.7896 5.96582C11.7896 4.5131 12.5038 3.09586 13.2876 2.19231C14.2803 1.00535 15.9349 0.11954 17.3109 0.0664062C17.3457 0.225807 17.3631 0.420692 17.3631 0.615578C17.3631 2.05056 16.7536 3.48563 15.9175 4.5131ZM9.86039 27.4053C9.2397 27.6765 8.65151 27.9335 7.85339 27.9335C6.14652 27.9335 4.96216 26.339 3.60363 24.3903C2.01872 22.0872 0.729858 18.5263 0.729858 15.1603C0.729858 9.73915 4.19581 6.86918 7.60955 6.86918C8.60599 6.86918 9.51642 7.24075 10.3259 7.57116C10.9739 7.83572 11.5573 8.0738 12.0683 8.0738C12.5117 8.0738 13.0641 7.85179 13.708 7.59299C14.6073 7.23146 15.685 6.79831 16.8929 6.79831C17.6592 6.79831 20.4633 6.86919 22.3096 9.562C22.2991 9.57036 22.2765 9.5855 22.2436 9.60761C21.7893 9.91257 19.3661 11.5397 19.3661 14.8768C19.3661 19.0047 22.9017 20.475 23.0237 20.5105C23.0205 20.5184 23.0134 20.5412 23.0019 20.5772C22.8857 20.9431 22.3316 22.6875 21.1427 24.4612C19.9757 26.1619 18.7391 27.898 16.8929 27.898C15.9829 27.898 15.4031 27.6369 14.8044 27.3673C14.1656 27.0794 13.5052 26.7819 12.3993 26.7819C11.2874 26.7819 10.5536 27.1025 9.86039 27.4053Z" fill="#533D86"/>
</svg>
