<svg width="212" height="13" viewBox="0 0 212 13" fill="none" xmlns="http://www.w3.org/2000/svg">
<path d="M3 5.13636C3 4.67045 3.11364 4.24574 3.34091 3.86222C3.56818 3.47869 3.87358 3.1733 4.2571 2.94602C4.64063 2.71875 5.06534 2.60511 5.53125 2.60511C5.93466 2.60511 6.30682 2.69176 6.64773 2.86506C6.99148 3.03835 7.27557 3.27557 7.5 3.5767C7.72443 3.875 7.86364 4.21307 7.91761 4.59091H6.88636C6.82955 4.2983 6.67188 4.05966 6.41335 3.875C6.15483 3.6875 5.8608 3.59375 5.53125 3.59375C5.24716 3.59375 4.98864 3.66335 4.75568 3.80256C4.52273 3.94176 4.33665 4.12784 4.19744 4.3608C4.05824 4.59375 3.98864 4.85227 3.98864 5.13636C3.98864 5.42045 4.05824 5.67898 4.19744 5.91193C4.33665 6.14489 4.52273 6.33097 4.75568 6.47017C4.98864 6.60937 5.24716 6.67898 5.53125 6.67898C5.8608 6.67898 6.1392 6.58665 6.36648 6.40199C6.59659 6.21449 6.74148 5.97443 6.80114 5.68182H7.83239C7.77841 6.05966 7.64631 6.39915 7.43608 6.70028C7.22585 6.99858 6.95597 7.23437 6.62642 7.40767C6.29972 7.58097 5.93466 7.66761 5.53125 7.66761C5.06534 7.66761 4.64063 7.55398 4.2571 7.3267C3.87358 7.09943 3.56818 6.79403 3.34091 6.41051C3.11364 6.02699 3 5.60227 3 5.13636ZM5.48864 9.63636C4.86932 9.63636 4.28693 9.51989 3.74148 9.28693C3.19886 9.05398 2.72017 8.73153 2.3054 8.3196C1.89347 7.90483 1.5696 7.42614 1.33381 6.88352C1.10085 6.34091 0.985795 5.75852 0.988636 5.13636C0.991477 4.5142 1.10938 3.93182 1.34233 3.3892C1.57813 2.84659 1.90199 2.36932 2.31392 1.95739C2.72585 1.54261 3.20313 1.21875 3.74574 0.985795C4.28835 0.752841 4.86932 0.636364 5.48864 0.636364C6.1108 0.636364 6.69318 0.752841 7.2358 0.985795C7.78125 1.21875 8.25852 1.54261 8.66761 1.95739C9.07955 2.36932 9.40199 2.84659 9.63494 3.3892C9.8679 3.93182 9.9858 4.5142 9.98864 5.13636C9.99148 5.75852 9.87642 6.34091 9.64347 6.88352C9.41051 7.42614 9.08807 7.90483 8.67614 8.3196C8.2642 8.73153 7.78551 9.05398 7.24006 9.28693C6.6946 9.51989 6.1108 9.63636 5.48864 9.63636ZM5.48864 8.64773C5.97443 8.64773 6.4304 8.55682 6.85653 8.375C7.28267 8.19318 7.65625 7.94176 7.97727 7.62074C8.2983 7.29972 8.54972 6.92756 8.73153 6.50426C8.91335 6.07812 9.00284 5.62358 9 5.14062C8.99716 4.65483 8.90483 4.19886 8.72301 3.77273C8.54119 3.34659 8.28977 2.97301 7.96875 2.65199C7.64773 2.33097 7.27557 2.07955 6.85227 1.89773C6.42898 1.71591 5.97443 1.625 5.48864 1.625C5.00568 1.625 4.55256 1.71591 4.12926 1.89773C3.70597 2.07955 3.33381 2.33239 3.01278 2.65625C2.69176 2.97727 2.43892 3.35085 2.25426 3.77699C2.07244 4.20028 1.98011 4.65483 1.97727 5.14062C1.97443 5.62074 2.06392 6.07386 2.24574 6.5C2.42756 6.9233 2.67898 7.29545 3 7.61648C3.32386 7.9375 3.69744 8.19034 4.12074 8.375C4.54688 8.55682 5.00284 8.64773 5.48864 8.64773ZM15.2589 9.5V8.73295L18.1396 5.57955C18.4776 5.21023 18.756 4.8892 18.9748 4.61648C19.1935 4.34091 19.3555 4.08239 19.4606 3.84091C19.5685 3.59659 19.6225 3.34091 19.6225 3.07386C19.6225 2.76705 19.5487 2.50142 19.4009 2.27699C19.256 2.05256 19.0572 1.87926 18.8043 1.7571C18.5515 1.63494 18.2674 1.57386 17.9521 1.57386C17.6168 1.57386 17.3242 1.64347 17.0742 1.78267C16.8271 1.91903 16.6353 2.1108 16.4989 2.35795C16.3654 2.60511 16.2987 2.89489 16.2987 3.22727H15.293C15.293 2.71591 15.4109 2.26705 15.6467 1.88068C15.8825 1.49432 16.2035 1.19318 16.6097 0.977272C17.0188 0.761363 17.4776 0.653409 17.9862 0.653409C18.4975 0.653409 18.9506 0.761363 19.3455 0.977272C19.7404 1.19318 20.0501 1.48437 20.2745 1.85085C20.4989 2.21733 20.6112 2.625 20.6112 3.07386C20.6112 3.39489 20.5529 3.70881 20.4364 4.01562C20.3228 4.3196 20.1239 4.65909 19.8398 5.03409C19.5586 5.40625 19.168 5.8608 18.668 6.39773L16.7077 8.49432V8.5625H20.7646V9.5H15.2589ZM25.3711 9.61932C24.729 9.61932 24.1822 9.4446 23.7305 9.09517C23.2788 8.7429 22.9336 8.23295 22.695 7.56534C22.4563 6.89489 22.337 6.08523 22.337 5.13636C22.337 4.19318 22.4563 3.38778 22.695 2.72017C22.9364 2.04972 23.283 1.53835 23.7347 1.18608C24.1893 0.830966 24.7347 0.653409 25.3711 0.653409C26.0075 0.653409 26.5515 0.830966 27.0032 1.18608C27.4577 1.53835 27.8043 2.04972 28.043 2.72017C28.2844 3.38778 28.4052 4.19318 28.4052 5.13636C28.4052 6.08523 28.2859 6.89489 28.0472 7.56534C27.8086 8.23295 27.4634 8.7429 27.0117 9.09517C26.56 9.4446 26.0131 9.61932 25.3711 9.61932ZM25.3711 8.68182C26.0075 8.68182 26.5018 8.375 26.854 7.76136C27.2063 7.14773 27.3825 6.27273 27.3825 5.13636C27.3825 4.38068 27.3015 3.73722 27.1396 3.20597C26.9805 2.67472 26.7504 2.26989 26.4492 1.99148C26.1509 1.71307 25.7915 1.57386 25.3711 1.57386C24.7404 1.57386 24.2475 1.88494 23.8924 2.5071C23.5373 3.12642 23.3597 4.00284 23.3597 5.13636C23.3597 5.89205 23.4393 6.53409 23.5984 7.0625C23.7575 7.59091 23.9862 7.9929 24.2844 8.26847C24.5856 8.54403 24.9478 8.68182 25.3711 8.68182ZM30.0245 9.5V8.73295L32.9052 5.57955C33.2433 5.21023 33.5217 4.8892 33.7404 4.61648C33.9592 4.34091 34.1211 4.08239 34.2262 3.84091C34.3342 3.59659 34.3881 3.34091 34.3881 3.07386C34.3881 2.76705 34.3143 2.50142 34.1665 2.27699C34.0217 2.05256 33.8228 1.87926 33.57 1.7571C33.3171 1.63494 33.033 1.57386 32.7177 1.57386C32.3825 1.57386 32.0898 1.64347 31.8398 1.78267C31.5927 1.91903 31.4009 2.1108 31.2646 2.35795C31.131 2.60511 31.0643 2.89489 31.0643 3.22727H30.0586C30.0586 2.71591 30.1765 2.26705 30.4123 1.88068C30.6481 1.49432 30.9691 1.19318 31.3754 0.977272C31.7844 0.761363 32.2433 0.653409 32.7518 0.653409C33.2631 0.653409 33.7163 0.761363 34.1112 0.977272C34.506 1.19318 34.8157 1.48437 35.0401 1.85085C35.2646 2.21733 35.3768 2.625 35.3768 3.07386C35.3768 3.39489 35.3185 3.70881 35.2021 4.01562C35.0884 4.3196 34.8896 4.65909 34.6055 5.03409C34.3242 5.40625 33.9336 5.8608 33.4336 6.39773L31.4734 8.49432V8.5625H35.5302V9.5H30.0245ZM40.239 9.61932C39.6765 9.61932 39.1751 9.52273 38.7347 9.32955C38.2972 9.13636 37.9492 8.8679 37.6907 8.52415C37.435 8.17756 37.2958 7.77557 37.2731 7.31818H38.3469C38.3697 7.59943 38.4663 7.84233 38.6367 8.04688C38.8072 8.24858 39.0302 8.40483 39.3058 8.51562C39.5813 8.62642 39.8867 8.68182 40.2219 8.68182C40.5969 8.68182 40.9293 8.61648 41.2191 8.4858C41.5089 8.35511 41.7362 8.1733 41.9009 7.94034C42.0657 7.70739 42.1481 7.4375 42.1481 7.13068C42.1481 6.80966 42.0685 6.52699 41.9094 6.28267C41.7504 6.03551 41.5174 5.84233 41.2106 5.70312C40.9038 5.56392 40.5288 5.49432 40.0856 5.49432H39.3867V4.55682H40.0856C40.4322 4.55682 40.7362 4.49432 40.9975 4.36932C41.2617 4.24432 41.4677 4.06818 41.6154 3.84091C41.766 3.61364 41.8413 3.34659 41.8413 3.03977C41.8413 2.74432 41.7759 2.48722 41.6452 2.26847C41.5146 2.04972 41.3299 1.87926 41.0913 1.7571C40.8555 1.63494 40.5771 1.57386 40.256 1.57386C39.9549 1.57386 39.6708 1.62926 39.4038 1.74006C39.1396 1.84801 38.9237 2.00568 38.756 2.21307C38.5884 2.41761 38.4975 2.66477 38.4833 2.95455H37.4606C37.4776 2.49716 37.6154 2.09659 37.8739 1.75284C38.1325 1.40625 38.4705 1.13636 38.8881 0.943182C39.3086 0.75 39.7702 0.653409 40.2731 0.653409C40.8129 0.653409 41.2759 0.762784 41.6623 0.981534C42.0487 1.19744 42.3455 1.48295 42.5529 1.83807C42.7603 2.19318 42.864 2.5767 42.864 2.98864C42.864 3.48011 42.7347 3.89915 42.4762 4.24574C42.2205 4.59233 41.8725 4.83239 41.4322 4.96591V5.03409C41.9833 5.125 42.4137 5.35937 42.7234 5.73722C43.033 6.11222 43.1879 6.5767 43.1879 7.13068C43.1879 7.60511 43.0586 8.03125 42.8001 8.40909C42.5444 8.78409 42.195 9.07955 41.7518 9.29545C41.3086 9.51136 40.8043 9.61932 40.239 9.61932ZM47.9819 1.71023V0.772727H54.5273V1.71023H51.783V9.5H50.7262V1.71023H47.9819ZM57.7319 9.63636C57.141 9.63636 56.6225 9.49574 56.1765 9.21449C55.7333 8.93324 55.3867 8.53977 55.1367 8.03409C54.8896 7.52841 54.766 6.9375 54.766 6.26136C54.766 5.57955 54.8896 4.98437 55.1367 4.47585C55.3867 3.96733 55.7333 3.57244 56.1765 3.29119C56.6225 3.00994 57.141 2.86932 57.7319 2.86932C58.3228 2.86932 58.8398 3.00994 59.283 3.29119C59.729 3.57244 60.0756 3.96733 60.3228 4.47585C60.5728 4.98437 60.6978 5.57955 60.6978 6.26136C60.6978 6.9375 60.5728 7.52841 60.3228 8.03409C60.0756 8.53977 59.729 8.93324 59.283 9.21449C58.8398 9.49574 58.3228 9.63636 57.7319 9.63636ZM57.7319 8.73295C58.1808 8.73295 58.5501 8.6179 58.8398 8.38778C59.1296 8.15767 59.3441 7.85511 59.4833 7.48011C59.6225 7.10511 59.6921 6.69886 59.6921 6.26136C59.6921 5.82386 59.6225 5.41619 59.4833 5.03835C59.3441 4.66051 59.1296 4.35511 58.8398 4.12216C58.5501 3.8892 58.1808 3.77273 57.7319 3.77273C57.283 3.77273 56.9137 3.8892 56.6239 4.12216C56.3342 4.35511 56.1197 4.66051 55.9805 5.03835C55.8413 5.41619 55.7717 5.82386 55.7717 6.26136C55.7717 6.69886 55.8413 7.10511 55.9805 7.48011C56.1197 7.85511 56.3342 8.15767 56.6239 8.38778C56.9137 8.6179 57.283 8.73295 57.7319 8.73295ZM62.3693 9.5V0.772727H63.375V3.99432H63.4602C63.5341 3.88068 63.6364 3.7358 63.767 3.55966C63.9006 3.38068 64.0909 3.22159 64.3381 3.08239C64.5881 2.94034 64.9261 2.86932 65.3523 2.86932C65.9034 2.86932 66.3892 3.0071 66.8097 3.28267C67.2301 3.55824 67.5582 3.94886 67.794 4.45455C68.0298 4.96023 68.1477 5.55682 68.1477 6.24432C68.1477 6.9375 68.0298 7.53835 67.794 8.04688C67.5582 8.55256 67.2315 8.9446 66.8139 9.22301C66.3963 9.49858 65.9148 9.63636 65.3693 9.63636C64.9489 9.63636 64.6122 9.56676 64.3594 9.42756C64.1065 9.28551 63.9119 9.125 63.7756 8.94602C63.6392 8.7642 63.5341 8.61364 63.4602 8.49432H63.3409V9.5H62.3693ZM63.358 6.22727C63.358 6.72159 63.4304 7.15767 63.5753 7.53551C63.7202 7.91051 63.9318 8.20455 64.2102 8.41761C64.4886 8.62784 64.8295 8.73295 65.233 8.73295C65.6534 8.73295 66.0043 8.62216 66.2855 8.40057C66.5696 8.17614 66.7827 7.875 66.9247 7.49716C67.0696 7.11648 67.142 6.69318 67.142 6.22727C67.142 5.76705 67.071 5.35227 66.929 4.98295C66.7898 4.6108 66.5781 4.31676 66.294 4.10085C66.0128 3.8821 65.6591 3.77273 65.233 3.77273C64.8239 3.77273 64.4801 3.87642 64.2017 4.08381C63.9233 4.28835 63.7131 4.57528 63.571 4.9446C63.429 5.31108 63.358 5.73864 63.358 6.22727ZM72.3452 9.63636C71.7543 9.63636 71.2358 9.49574 70.7898 9.21449C70.3466 8.93324 70 8.53977 69.75 8.03409C69.5028 7.52841 69.3793 6.9375 69.3793 6.26136C69.3793 5.57955 69.5028 4.98437 69.75 4.47585C70 3.96733 70.3466 3.57244 70.7898 3.29119C71.2358 3.00994 71.7543 2.86932 72.3452 2.86932C72.9361 2.86932 73.4531 3.00994 73.8963 3.29119C74.3423 3.57244 74.6889 3.96733 74.9361 4.47585C75.1861 4.98437 75.3111 5.57955 75.3111 6.26136C75.3111 6.9375 75.1861 7.52841 74.9361 8.03409C74.6889 8.53977 74.3423 8.93324 73.8963 9.21449C73.4531 9.49574 72.9361 9.63636 72.3452 9.63636ZM72.3452 8.73295C72.794 8.73295 73.1634 8.6179 73.4531 8.38778C73.7429 8.15767 73.9574 7.85511 74.0966 7.48011C74.2358 7.10511 74.3054 6.69886 74.3054 6.26136C74.3054 5.82386 74.2358 5.41619 74.0966 5.03835C73.9574 4.66051 73.7429 4.35511 73.4531 4.12216C73.1634 3.8892 72.794 3.77273 72.3452 3.77273C71.8963 3.77273 71.527 3.8892 71.2372 4.12216C70.9474 4.35511 70.733 4.66051 70.5938 5.03835C70.4545 5.41619 70.3849 5.82386 70.3849 6.26136C70.3849 6.69886 70.4545 7.10511 70.5938 7.48011C70.733 7.85511 70.9474 8.15767 71.2372 8.38778C71.527 8.6179 71.8963 8.73295 72.3452 8.73295ZM76.9826 9.5V0.772727H79.9315C80.6161 0.772727 81.1758 0.896307 81.6104 1.14347C82.0479 1.38778 82.3718 1.71875 82.582 2.13636C82.7923 2.55398 82.8974 3.01989 82.8974 3.53409C82.8974 4.0483 82.7923 4.51562 82.582 4.93608C82.3746 5.35653 82.0536 5.69176 81.619 5.94176C81.1843 6.18892 80.6275 6.3125 79.9485 6.3125H77.8349V5.375H79.9144C80.3832 5.375 80.7596 5.29403 81.0437 5.1321C81.3278 4.97017 81.5337 4.75142 81.6616 4.47585C81.7923 4.19744 81.8576 3.88352 81.8576 3.53409C81.8576 3.18466 81.7923 2.87216 81.6616 2.59659C81.5337 2.32102 81.3263 2.10511 81.0394 1.94886C80.7525 1.78977 80.3718 1.71023 79.8974 1.71023H78.0394V9.5H76.9826ZM86.3896 9.65341C85.9748 9.65341 85.5984 9.57528 85.2603 9.41903C84.9222 9.25994 84.6538 9.03125 84.4549 8.73295C84.256 8.43182 84.1566 8.06818 84.1566 7.64205C84.1566 7.26705 84.2305 6.96307 84.3782 6.73011C84.5259 6.49432 84.7234 6.30966 84.9705 6.17614C85.2177 6.04261 85.4904 5.94318 85.7887 5.87784C86.0898 5.80966 86.3924 5.75568 86.6964 5.71591C87.0941 5.66477 87.4165 5.62642 87.6637 5.60085C87.9137 5.57244 88.0955 5.52557 88.2092 5.46023C88.3256 5.39489 88.3839 5.28125 88.3839 5.11932V5.08523C88.3839 4.66477 88.2688 4.33807 88.0387 4.10511C87.8114 3.87216 87.4663 3.75568 87.0032 3.75568C86.5231 3.75568 86.1467 3.8608 85.8739 4.07102C85.6012 4.28125 85.4094 4.50568 85.2987 4.74432L84.3441 4.40341C84.5146 4.00568 84.7418 3.69602 85.0259 3.47443C85.3129 3.25 85.6254 3.09375 85.9634 3.00568C86.3043 2.91477 86.6396 2.86932 86.9691 2.86932C87.1793 2.86932 87.4208 2.89489 87.6935 2.94602C87.9691 2.99432 88.2347 3.09517 88.4904 3.24858C88.7489 3.40199 88.9634 3.63352 89.1339 3.94318C89.3043 4.25284 89.3896 4.66761 89.3896 5.1875V9.5H88.3839V8.61364H88.3327C88.2646 8.75568 88.1509 8.90767 87.9918 9.0696C87.8327 9.23153 87.6211 9.36932 87.3569 9.48295C87.0927 9.59659 86.7702 9.65341 86.3896 9.65341ZM86.543 8.75C86.9407 8.75 87.2759 8.67188 87.5487 8.51562C87.8242 8.35938 88.0316 8.15767 88.1708 7.91051C88.3129 7.66335 88.3839 7.40341 88.3839 7.13068V6.21023C88.3413 6.26136 88.2475 6.30824 88.1026 6.35085C87.9606 6.39062 87.7958 6.42614 87.6083 6.45739C87.4237 6.4858 87.2433 6.51136 87.0671 6.53409C86.8938 6.55398 86.7532 6.57102 86.6452 6.58523C86.3839 6.61932 86.1396 6.67472 85.9123 6.75142C85.6879 6.82528 85.506 6.9375 85.3668 7.08807C85.2305 7.2358 85.1623 7.4375 85.1623 7.69318C85.1623 8.04261 85.2915 8.30682 85.5501 8.4858C85.8114 8.66193 86.1424 8.75 86.543 8.75ZM91.6385 11.9545C91.468 11.9545 91.3161 11.9403 91.1825 11.9119C91.049 11.8864 90.9567 11.8608 90.9055 11.8352L91.1612 10.9489C91.4055 11.0114 91.6214 11.0341 91.8089 11.017C91.9964 11 92.1626 10.9162 92.3075 10.7656C92.4553 10.6179 92.5902 10.3778 92.7124 10.0455L92.8999 9.53409L90.4794 2.95455H91.5703L93.3771 8.17045H93.4453L95.2521 2.95455H96.343L93.5646 10.4545C93.4396 10.7926 93.2848 11.0724 93.1001 11.294C92.9155 11.5185 92.701 11.6847 92.4567 11.7926C92.2152 11.9006 91.9425 11.9545 91.6385 11.9545ZM97.9933 9.56818C97.783 9.56818 97.6026 9.4929 97.4521 9.34233C97.3015 9.19176 97.2262 9.01136 97.2262 8.80114C97.2262 8.59091 97.3015 8.41051 97.4521 8.25994C97.6026 8.10937 97.783 8.03409 97.9933 8.03409C98.2035 8.03409 98.3839 8.10937 98.5344 8.25994C98.685 8.41051 98.7603 8.59091 98.7603 8.80114C98.7603 8.94034 98.7248 9.06818 98.6538 9.18466C98.5856 9.30114 98.4933 9.39489 98.3768 9.46591C98.2631 9.53409 98.1353 9.56818 97.9933 9.56818ZM104.434 9.5H103.326L106.531 0.772727H107.622L110.826 9.5H109.718L107.11 2.15341H107.042L104.434 9.5ZM104.843 6.09091H109.309V7.02841H104.843V6.09091ZM113.055 0.772727V9.5H112.049V0.772727H113.055ZM115.903 0.772727V9.5H114.897V0.772727H115.903ZM121.256 9.5V0.772727H124.205C124.887 0.772727 125.446 0.889204 125.884 1.12216C126.321 1.35227 126.645 1.66903 126.855 2.07244C127.066 2.47585 127.171 2.93466 127.171 3.44886C127.171 3.96307 127.066 4.41903 126.855 4.81676C126.645 5.21449 126.323 5.52699 125.888 5.75426C125.453 5.97869 124.898 6.09091 124.222 6.09091H121.836V5.13636H124.188C124.654 5.13636 125.029 5.06818 125.313 4.93182C125.6 4.79545 125.807 4.60227 125.935 4.35227C126.066 4.09943 126.131 3.7983 126.131 3.44886C126.131 3.09943 126.066 2.79403 125.935 2.53267C125.804 2.27131 125.596 2.0696 125.309 1.92756C125.022 1.78267 124.642 1.71023 124.171 1.71023H122.313V9.5H121.256ZM125.364 5.57955L127.512 9.5H126.284L124.171 5.57955H125.364ZM128.795 9.5V2.95455H129.801V9.5H128.795ZM129.307 1.86364C129.111 1.86364 128.942 1.79687 128.8 1.66335C128.661 1.52983 128.591 1.36932 128.591 1.18182C128.591 0.994318 128.661 0.833807 128.8 0.700284C128.942 0.566761 129.111 0.5 129.307 0.5C129.503 0.5 129.67 0.566761 129.81 0.700284C129.952 0.833807 130.023 0.994318 130.023 1.18182C130.023 1.36932 129.952 1.52983 129.81 1.66335C129.67 1.79687 129.503 1.86364 129.307 1.86364ZM134.285 12.0909C133.799 12.0909 133.382 12.0284 133.032 11.9034C132.683 11.7812 132.392 11.6193 132.159 11.4176C131.929 11.2188 131.745 11.0057 131.609 10.7784L132.41 10.2159C132.501 10.3352 132.616 10.4716 132.755 10.625C132.895 10.7812 133.085 10.9162 133.326 11.0298C133.571 11.1463 133.89 11.2045 134.285 11.2045C134.814 11.2045 135.25 11.0767 135.593 10.821C135.937 10.5653 136.109 10.1648 136.109 9.61932V8.28977H136.024C135.95 8.40909 135.845 8.55682 135.708 8.73295C135.575 8.90625 135.382 9.06108 135.129 9.19744C134.879 9.33097 134.541 9.39773 134.115 9.39773C133.586 9.39773 133.112 9.27273 132.691 9.02273C132.274 8.77273 131.943 8.40909 131.699 7.93182C131.457 7.45455 131.336 6.875 131.336 6.19318C131.336 5.52273 131.454 4.93892 131.69 4.44176C131.926 3.94176 132.254 3.5554 132.674 3.28267C133.095 3.0071 133.581 2.86932 134.132 2.86932C134.558 2.86932 134.896 2.94034 135.146 3.08239C135.399 3.22159 135.592 3.38068 135.725 3.55966C135.862 3.7358 135.967 3.88068 136.041 3.99432H136.143V2.95455H137.115V9.6875C137.115 10.25 136.987 10.7074 136.731 11.0597C136.478 11.4148 136.137 11.6747 135.708 11.8395C135.282 12.0071 134.808 12.0909 134.285 12.0909ZM134.251 8.49432C134.654 8.49432 134.995 8.40199 135.274 8.21733C135.552 8.03267 135.764 7.76705 135.909 7.42045C136.054 7.07386 136.126 6.65909 136.126 6.17614C136.126 5.70455 136.055 5.28835 135.913 4.92756C135.771 4.56676 135.561 4.28409 135.282 4.07955C135.004 3.875 134.66 3.77273 134.251 3.77273C133.825 3.77273 133.47 3.88068 133.186 4.09659C132.904 4.3125 132.693 4.60227 132.551 4.96591C132.412 5.32955 132.342 5.73295 132.342 6.17614C132.342 6.63068 132.413 7.03267 132.555 7.3821C132.7 7.72869 132.913 8.00142 133.194 8.20028C133.478 8.39631 133.831 8.49432 134.251 8.49432ZM139.961 5.5625V9.5H138.956V0.772727H139.961V3.97727H140.047C140.2 3.6392 140.43 3.37074 140.737 3.17188C141.047 2.97017 141.458 2.86932 141.973 2.86932C142.419 2.86932 142.809 2.95881 143.145 3.13778C143.48 3.31392 143.74 3.58523 143.924 3.9517C144.112 4.31534 144.206 4.77841 144.206 5.34091V9.5H143.2V5.40909C143.2 4.8892 143.065 4.48722 142.795 4.20312C142.528 3.91619 142.157 3.77273 141.683 3.77273C141.353 3.77273 141.058 3.84233 140.797 3.98153C140.538 4.12074 140.333 4.32386 140.183 4.59091C140.035 4.85795 139.961 5.18182 139.961 5.5625ZM148.892 2.95455V3.80682H145.5V2.95455H148.892ZM146.489 1.38636H147.494V7.625C147.494 7.90909 147.536 8.12216 147.618 8.2642C147.703 8.40341 147.811 8.49716 147.942 8.54545C148.075 8.59091 148.216 8.61364 148.364 8.61364C148.474 8.61364 148.565 8.60795 148.636 8.59659C148.707 8.58239 148.764 8.57102 148.807 8.5625L149.011 9.46591C148.943 9.49148 148.848 9.51705 148.726 9.54261C148.604 9.57102 148.449 9.58523 148.261 9.58523C147.977 9.58523 147.699 9.52415 147.426 9.40199C147.156 9.27983 146.932 9.09375 146.753 8.84375C146.577 8.59375 146.489 8.27841 146.489 7.89773V1.38636ZM154.924 4.42045L154.021 4.67614C153.964 4.52557 153.88 4.37926 153.769 4.23722C153.661 4.09233 153.513 3.97301 153.326 3.87926C153.138 3.78551 152.898 3.73864 152.606 3.73864C152.205 3.73864 151.871 3.83097 151.604 4.01562C151.34 4.19744 151.208 4.42898 151.208 4.71023C151.208 4.96023 151.299 5.15767 151.481 5.30256C151.663 5.44744 151.947 5.56818 152.333 5.66477L153.305 5.90341C153.89 6.04545 154.326 6.26278 154.613 6.5554C154.9 6.84517 155.043 7.21875 155.043 7.67614C155.043 8.05114 154.935 8.38636 154.719 8.68182C154.506 8.97727 154.208 9.21023 153.825 9.38068C153.441 9.55114 152.995 9.63636 152.487 9.63636C151.819 9.63636 151.266 9.49148 150.829 9.2017C150.391 8.91193 150.114 8.48864 149.998 7.93182L150.952 7.69318C151.043 8.04545 151.215 8.30966 151.468 8.4858C151.724 8.66193 152.058 8.75 152.469 8.75C152.938 8.75 153.31 8.65057 153.586 8.4517C153.864 8.25 154.004 8.00852 154.004 7.72727C154.004 7.5 153.924 7.30966 153.765 7.15625C153.606 7 153.362 6.88352 153.032 6.80682L151.941 6.55114C151.342 6.40909 150.901 6.18892 150.62 5.89062C150.342 5.58949 150.202 5.21307 150.202 4.76136C150.202 4.39205 150.306 4.06534 150.513 3.78125C150.724 3.49716 151.009 3.27415 151.37 3.11222C151.734 2.95028 152.146 2.86932 152.606 2.86932C153.254 2.86932 153.762 3.01136 154.131 3.29545C154.504 3.57955 154.768 3.95455 154.924 4.42045ZM160.069 9.5V0.772727H163.017C163.699 0.772727 164.259 0.889204 164.696 1.12216C165.134 1.35227 165.458 1.66903 165.668 2.07244C165.878 2.47585 165.983 2.93466 165.983 3.44886C165.983 3.96307 165.878 4.41903 165.668 4.81676C165.458 5.21449 165.135 5.52699 164.701 5.75426C164.266 5.97869 163.711 6.09091 163.034 6.09091H160.648V5.13636H163C163.466 5.13636 163.841 5.06818 164.125 4.93182C164.412 4.79545 164.62 4.60227 164.748 4.35227C164.878 4.09943 164.944 3.7983 164.944 3.44886C164.944 3.09943 164.878 2.79403 164.748 2.53267C164.617 2.27131 164.408 2.0696 164.121 1.92756C163.834 1.78267 163.455 1.71023 162.983 1.71023H161.125V9.5H160.069ZM164.176 5.57955L166.324 9.5H165.097L162.983 5.57955H164.176ZM170.282 9.63636C169.651 9.63636 169.107 9.49716 168.65 9.21875C168.195 8.9375 167.844 8.54545 167.597 8.04261C167.353 7.53693 167.231 6.94886 167.231 6.27841C167.231 5.60795 167.353 5.01705 167.597 4.50568C167.844 3.99148 168.188 3.59091 168.629 3.30398C169.072 3.0142 169.589 2.86932 170.18 2.86932C170.521 2.86932 170.857 2.92614 171.19 3.03977C171.522 3.15341 171.825 3.33807 172.097 3.59375C172.37 3.84659 172.587 4.18182 172.749 4.59943C172.911 5.01705 172.992 5.53125 172.992 6.14205V6.56818H167.947V5.69886H171.969C171.969 5.32955 171.896 5 171.748 4.71023C171.603 4.42045 171.396 4.19176 171.126 4.02415C170.859 3.85653 170.543 3.77273 170.18 3.77273C169.779 3.77273 169.433 3.87216 169.14 4.07102C168.85 4.26705 168.627 4.52273 168.471 4.83807C168.315 5.15341 168.237 5.49148 168.237 5.85227V6.43182C168.237 6.92614 168.322 7.34517 168.492 7.68892C168.665 8.02983 168.906 8.28977 169.212 8.46875C169.519 8.64489 169.876 8.73295 170.282 8.73295C170.546 8.73295 170.785 8.69602 170.998 8.62216C171.214 8.54545 171.4 8.43182 171.556 8.28125C171.712 8.12784 171.833 7.9375 171.918 7.71023L172.89 7.98295C172.788 8.3125 172.616 8.60227 172.374 8.85227C172.133 9.09943 171.835 9.29261 171.479 9.43182C171.124 9.56818 170.725 9.63636 170.282 9.63636ZM179.158 4.42045L178.255 4.67614C178.198 4.52557 178.114 4.37926 178.004 4.23722C177.896 4.09233 177.748 3.97301 177.56 3.87926C177.373 3.78551 177.133 3.73864 176.84 3.73864C176.44 3.73864 176.106 3.83097 175.839 4.01562C175.575 4.19744 175.442 4.42898 175.442 4.71023C175.442 4.96023 175.533 5.15767 175.715 5.30256C175.897 5.44744 176.181 5.56818 176.567 5.66477L177.539 5.90341C178.124 6.04545 178.56 6.26278 178.847 6.5554C179.134 6.84517 179.278 7.21875 179.278 7.67614C179.278 8.05114 179.17 8.38636 178.954 8.68182C178.741 8.97727 178.442 9.21023 178.059 9.38068C177.675 9.55114 177.229 9.63636 176.721 9.63636C176.053 9.63636 175.501 9.49148 175.063 9.2017C174.626 8.91193 174.349 8.48864 174.232 7.93182L175.187 7.69318C175.278 8.04545 175.45 8.30966 175.702 8.4858C175.958 8.66193 176.292 8.75 176.704 8.75C177.173 8.75 177.545 8.65057 177.82 8.4517C178.099 8.25 178.238 8.00852 178.238 7.72727C178.238 7.5 178.158 7.30966 177.999 7.15625C177.84 7 177.596 6.88352 177.266 6.80682L176.175 6.55114C175.576 6.40909 175.136 6.18892 174.854 5.89062C174.576 5.58949 174.437 5.21307 174.437 4.76136C174.437 4.39205 174.54 4.06534 174.748 3.78125C174.958 3.49716 175.244 3.27415 175.604 3.11222C175.968 2.95028 176.38 2.86932 176.84 2.86932C177.488 2.86932 177.996 3.01136 178.366 3.29545C178.738 3.57955 179.002 3.95455 179.158 4.42045ZM183.536 9.63636C182.905 9.63636 182.361 9.49716 181.904 9.21875C181.449 8.9375 181.098 8.54545 180.851 8.04261C180.607 7.53693 180.485 6.94886 180.485 6.27841C180.485 5.60795 180.607 5.01705 180.851 4.50568C181.098 3.99148 181.442 3.59091 181.882 3.30398C182.326 3.0142 182.843 2.86932 183.434 2.86932C183.775 2.86932 184.111 2.92614 184.444 3.03977C184.776 3.15341 185.078 3.33807 185.351 3.59375C185.624 3.84659 185.841 4.18182 186.003 4.59943C186.165 5.01705 186.246 5.53125 186.246 6.14205V6.56818H181.201V5.69886H185.223C185.223 5.32955 185.15 5 185.002 4.71023C184.857 4.42045 184.65 4.19176 184.38 4.02415C184.113 3.85653 183.797 3.77273 183.434 3.77273C183.033 3.77273 182.686 3.87216 182.394 4.07102C182.104 4.26705 181.881 4.52273 181.725 4.83807C181.569 5.15341 181.49 5.49148 181.49 5.85227V6.43182C181.49 6.92614 181.576 7.34517 181.746 7.68892C181.919 8.02983 182.159 8.28977 182.466 8.46875C182.773 8.64489 183.13 8.73295 183.536 8.73295C183.8 8.73295 184.039 8.69602 184.252 8.62216C184.468 8.54545 184.654 8.43182 184.81 8.28125C184.966 8.12784 185.087 7.9375 185.172 7.71023L186.144 7.98295C186.042 8.3125 185.87 8.60227 185.628 8.85227C185.387 9.09943 185.088 9.29261 184.733 9.43182C184.378 9.56818 183.979 9.63636 183.536 9.63636ZM187.776 9.5V2.95455H188.748V3.94318H188.816C188.935 3.61932 189.151 3.35653 189.463 3.15483C189.776 2.95312 190.128 2.85227 190.52 2.85227C190.594 2.85227 190.686 2.85369 190.797 2.85653C190.908 2.85937 190.992 2.86364 191.049 2.86932V3.89205C191.015 3.88352 190.936 3.87074 190.814 3.85369C190.695 3.83381 190.569 3.82386 190.435 3.82386C190.117 3.82386 189.833 3.89062 189.583 4.02415C189.336 4.15483 189.14 4.33665 188.995 4.5696C188.853 4.79972 188.782 5.0625 188.782 5.35795V9.5H187.776ZM197.792 2.95455L195.372 9.5H194.349L191.929 2.95455H193.02L194.826 8.17045H194.895L196.701 2.95455H197.792ZM201.63 9.63636C200.999 9.63636 200.455 9.49716 199.998 9.21875C199.543 8.9375 199.192 8.54545 198.945 8.04261C198.701 7.53693 198.578 6.94886 198.578 6.27841C198.578 5.60795 198.701 5.01705 198.945 4.50568C199.192 3.99148 199.536 3.59091 199.976 3.30398C200.419 3.0142 200.936 2.86932 201.527 2.86932C201.868 2.86932 202.205 2.92614 202.537 3.03977C202.87 3.15341 203.172 3.33807 203.445 3.59375C203.718 3.84659 203.935 4.18182 204.097 4.59943C204.259 5.01705 204.34 5.53125 204.34 6.14205V6.56818H199.294V5.69886H203.317C203.317 5.32955 203.243 5 203.096 4.71023C202.951 4.42045 202.743 4.19176 202.473 4.02415C202.206 3.85653 201.891 3.77273 201.527 3.77273C201.127 3.77273 200.78 3.87216 200.488 4.07102C200.198 4.26705 199.975 4.52273 199.819 4.83807C199.662 5.15341 199.584 5.49148 199.584 5.85227V6.43182C199.584 6.92614 199.669 7.34517 199.84 7.68892C200.013 8.02983 200.253 8.28977 200.56 8.46875C200.867 8.64489 201.223 8.73295 201.63 8.73295C201.894 8.73295 202.132 8.69602 202.346 8.62216C202.561 8.54545 202.748 8.43182 202.904 8.28125C203.06 8.12784 203.181 7.9375 203.266 7.71023L204.238 7.98295C204.135 8.3125 203.963 8.60227 203.722 8.85227C203.48 9.09943 203.182 9.29261 202.827 9.43182C202.472 9.56818 202.073 9.63636 201.63 9.63636ZM208.341 9.63636C207.796 9.63636 207.314 9.49858 206.897 9.22301C206.479 8.9446 206.152 8.55256 205.917 8.04688C205.681 7.53835 205.563 6.9375 205.563 6.24432C205.563 5.55682 205.681 4.96023 205.917 4.45455C206.152 3.94886 206.48 3.55824 206.901 3.28267C207.321 3.0071 207.807 2.86932 208.358 2.86932C208.784 2.86932 209.121 2.94034 209.368 3.08239C209.618 3.22159 209.809 3.38068 209.939 3.55966C210.073 3.7358 210.176 3.88068 210.25 3.99432H210.336V0.772727H211.341V9.5H210.37V8.49432H210.25C210.176 8.61364 210.071 8.7642 209.935 8.94602C209.799 9.125 209.604 9.28551 209.351 9.42756C209.098 9.56676 208.762 9.63636 208.341 9.63636ZM208.478 8.73295C208.881 8.73295 209.222 8.62784 209.5 8.41761C209.779 8.20455 209.99 7.91051 210.135 7.53551C210.28 7.15767 210.353 6.72159 210.353 6.22727C210.353 5.73864 210.282 5.31108 210.14 4.9446C209.998 4.57528 209.787 4.28835 209.509 4.08381C209.23 3.87642 208.887 3.77273 208.478 3.77273C208.051 3.77273 207.696 3.8821 207.412 4.10085C207.131 4.31676 206.919 4.6108 206.777 4.98295C206.638 5.35227 206.569 5.76705 206.569 6.22727C206.569 6.69318 206.64 7.11648 206.782 7.49716C206.926 7.875 207.14 8.17614 207.421 8.40057C207.705 8.62216 208.057 8.73295 208.478 8.73295Z" fill="#E4E4E4"/>
</svg>
